  0
SECTION
  2
HEADER
  9
$ACADVER
  1
AC1009
  9
$EXTMIN
 10
0.0
 20
0.0
 30
0.0
  9
$EXTMAX
 10
1000.0
 20
1000.0
 30
0.0
  9
$FILLMODE
 70
 0
  9
$SPLFRAME
 70
 1
  0
ENDSEC
  0
SECTION
  2
TABLES
  0
TABLE
  2
LAYER
 70
1
  0
LAYER
  2
0
 70
     0
 62
     7
  6
CONTINUOUS
  0
ENDTAB
  0
ENDSEC
  0
SECTION
  2
ENTITIES
  0
LINE
  8
0
 62
     0
 10
86.0944
 20
108.343
 30
0.0
 11
86.3286
 21
108.335
 31
0.0
  0
LINE
  8
0
 62
     0
 10
86.3286
 20
108.335
 30
0.0
 11
86.5628
 21
108.307
 31
0.0
  0
LINE
  8
0
 62
     0
 10
86.5628
 20
108.307
 30
0.0
 11
86.7943
 21
108.262
 31
0.0
  0
LINE
  8
0
 62
     0
 10
86.7943
 20
108.262
 30
0.0
 11
87.0204
 21
108.197
 31
0.0
  0
LINE
  8
0
 62
     0
 10
87.0204
 20
108.197
 30
0.0
 11
87.2423
 21
108.115
 31
0.0
  0
LINE
  8
0
 62
     0
 10
87.2423
 20
108.115
 30
0.0
 11
87.4543
 21
108.017
 31
0.0
  0
LINE
  8
0
 62
     0
 10
87.4543
 20
108.017
 30
0.0
 11
87.661
 21
107.9
 31
0.0
  0
LINE
  8
0
 62
     0
 10
87.661
 20
107.9
 30
0.0
 11
87.8568
 21
107.771
 31
0.0
  0
LINE
  8
0
 62
     0
 10
87.8568
 20
107.771
 30
0.0
 11
88.0413
 21
107.625
 31
0.0
  0
LINE
  8
0
 62
     0
 10
88.0413
 20
107.625
 30
0.0
 11
88.2153
 21
107.465
 31
0.0
  0
LINE
  8
0
 62
     0
 10
88.2153
 20
107.465
 30
0.0
 11
88.3751
 21
107.293
 31
0.0
  0
LINE
  8
0
 62
     0
 10
88.3751
 20
107.293
 30
0.0
 11
88.5211
 21
107.107
 31
0.0
  0
LINE
  8
0
 62
     0
 10
88.5211
 20
107.107
 30
0.0
 11
88.6506
 21
106.911
 31
0.0
  0
LINE
  8
0
 62
     0
 10
88.6506
 20
106.911
 30
0.0
 11
88.7663
 21
106.706
 31
0.0
  0
LINE
  8
0
 62
     0
 10
88.7663
 20
106.706
 30
0.0
 11
88.864
 21
106.492
 31
0.0
  0
LINE
  8
0
 62
     0
 10
88.864
 20
106.492
 30
0.0
 11
88.9469
 21
106.271
 31
0.0
  0
LINE
  8
0
 62
     0
 10
88.9469
 20
106.271
 30
0.0
 11
89.0104
 21
106.044
 31
0.0
  0
LINE
  8
0
 62
     0
 10
89.0104
 20
106.044
 30
0.0
 11
89.057
 21
105.813
 31
0.0
  0
LINE
  8
0
 62
     0
 10
89.057
 20
105.813
 30
0.0
 11
89.0834
 21
105.578
 31
0.0
  0
LINE
  8
0
 62
     0
 10
89.0834
 20
105.578
 30
0.0
 11
89.0944
 21
105.343
 31
0.0
  0
LINE
  8
0
 62
     0
 10
89.0944
 20
105.343
 30
0.0
 11
89.0944
 21
3.09232
 31
0.0
  0
LINE
  8
0
 62
     0
 10
89.0944
 20
3.09232
 30
0.0
 11
89.0834
 21
2.85667
 31
0.0
  0
LINE
  8
0
 62
     0
 10
89.0834
 20
2.85667
 30
0.0
 11
89.057
 21
2.62241
 31
0.0
  0
LINE
  8
0
 62
     0
 10
89.057
 20
2.62241
 30
0.0
 11
89.0104
 21
2.39227
 31
0.0
  0
LINE
  8
0
 62
     0
 10
89.0104
 20
2.39227
 30
0.0
 11
88.9469
 21
2.1649
 31
0.0
  0
LINE
  8
0
 62
     0
 10
88.9469
 20
2.1649
 30
0.0
 11
88.864
 21
1.94441
 31
0.0
  0
LINE
  8
0
 62
     0
 10
88.864
 20
1.94441
 30
0.0
 11
88.7663
 21
1.73082
 31
0.0
  0
LINE
  8
0
 62
     0
 10
88.7663
 20
1.73082
 30
0.0
 11
88.6506
 21
1.52549
 31
0.0
  0
LINE
  8
0
 62
     0
 10
88.6506
 20
1.52549
 30
0.0
 11
88.5211
 21
1.32843
 31
0.0
  0
LINE
  8
0
 62
     0
 10
88.5211
 20
1.32843
 30
0.0
 11
88.3751
 21
1.14377
 31
0.0
  0
LINE
  8
0
 62
     0
 10
88.3751
 20
1.14377
 30
0.0
 11
88.2153
 21
0.971518
 31
0.0
  0
LINE
  8
0
 62
     0
 10
88.2153
 20
0.971518
 30
0.0
 11
88.0413
 21
0.811664
 31
0.0
  0
LINE
  8
0
 62
     0
 10
88.0413
 20
0.811664
 30
0.0
 11
87.8568
 21
0.665593
 31
0.0
  0
LINE
  8
0
 62
     0
 10
87.8568
 20
0.665593
 30
0.0
 11
87.661
 21
0.534681
 31
0.0
  0
LINE
  8
0
 62
     0
 10
87.661
 20
0.534681
 30
0.0
 11
87.4543
 21
0.418924
 31
0.0
  0
LINE
  8
0
 62
     0
 10
87.4543
 20
0.418924
 30
0.0
 11
87.2423
 21
0.321083
 31
0.0
  0
LINE
  8
0
 62
     0
 10
87.2423
 20
0.321083
 30
0.0
 11
87.0204
 21
0.238401
 31
0.0
  0
LINE
  8
0
 62
     0
 10
87.0204
 20
0.238401
 30
0.0
 11
86.7943
 21
0.175011
 31
0.0
  0
LINE
  8
0
 62
     0
 10
86.7943
 20
0.175011
 30
0.0
 11
86.5628
 21
0.129536
 31
0.0
  0
LINE
  8
0
 62
     0
 10
86.5628
 20
0.129536
 30
0.0
 11
86.3286
 21
0.101975
 31
0.0
  0
LINE
  8
0
 62
     0
 10
86.3286
 20
0.101975
 30
0.0
 11
86.0929
 21
0.0923286
 31
0.0
  0
LINE
  8
0
 62
     0
 10
86.0929
 20
0.0923286
 30
0.0
 11
3.09507
 21
0.0923286
 31
0.0
  0
LINE
  8
0
 62
     0
 10
3.09507
 20
0.0923286
 30
0.0
 11
2.85943
 21
0.101975
 31
0.0
  0
LINE
  8
0
 62
     0
 10
2.85943
 20
0.101975
 30
0.0
 11
2.62516
 21
0.129536
 31
0.0
  0
LINE
  8
0
 62
     0
 10
2.62516
 20
0.129536
 30
0.0
 11
2.39365
 21
0.175011
 31
0.0
  0
LINE
  8
0
 62
     0
 10
2.39365
 20
0.175011
 30
0.0
 11
2.16628
 21
0.238401
 31
0.0
  0
LINE
  8
0
 62
     0
 10
2.16628
 20
0.238401
 30
0.0
 11
1.94579
 21
0.321083
 31
0.0
  0
LINE
  8
0
 62
     0
 10
1.94579
 20
0.321083
 30
0.0
 11
1.7322
 21
0.418924
 31
0.0
  0
LINE
  8
0
 62
     0
 10
1.7322
 20
0.418924
 30
0.0
 11
1.52687
 21
0.534681
 31
0.0
  0
LINE
  8
0
 62
     0
 10
1.52687
 20
0.534681
 30
0.0
 11
1.33119
 21
0.665593
 31
0.0
  0
LINE
  8
0
 62
     0
 10
1.33119
 20
0.665593
 30
0.0
 11
1.14515
 21
0.811664
 31
0.0
  0
LINE
  8
0
 62
     0
 10
1.14515
 20
0.811664
 30
0.0
 11
0.972894
 21
0.971518
 31
0.0
  0
LINE
  8
0
 62
     0
 10
0.972894
 20
0.971518
 30
0.0
 11
0.813043
 21
1.14377
 31
0.0
  0
LINE
  8
0
 62
     0
 10
0.813043
 20
1.14377
 30
0.0
 11
0.666972
 21
1.32843
 31
0.0
  0
LINE
  8
0
 62
     0
 10
0.666972
 20
1.32843
 30
0.0
 11
0.537436
 21
1.52549
 31
0.0
  0
LINE
  8
0
 62
     0
 10
0.537436
 20
1.52549
 30
0.0
 11
0.420303
 21
1.73082
 31
0.0
  0
LINE
  8
0
 62
     0
 10
0.420303
 20
1.73082
 30
0.0
 11
0.322461
 21
1.94441
 31
0.0
  0
LINE
  8
0
 62
     0
 10
0.322461
 20
1.94441
 30
0.0
 11
0.241157
 21
2.1649
 31
0.0
  0
LINE
  8
0
 62
     0
 10
0.241157
 20
2.1649
 30
0.0
 11
0.176389
 21
2.39227
 31
0.0
  0
LINE
  8
0
 62
     0
 10
0.176389
 20
2.39227
 30
0.0
 11
0.130914
 21
2.62241
 31
0.0
  0
LINE
  8
0
 62
     0
 10
0.130914
 20
2.62241
 30
0.0
 11
0.103353
 21
2.85667
 31
0.0
  0
LINE
  8
0
 62
     0
 10
0.103353
 20
2.85667
 30
0.0
 11
0.0937066
 21
3.09232
 31
0.0
  0
LINE
  8
0
 62
     0
 10
0.0937066
 20
3.09232
 30
0.0
 11
0.0950846
 21
105.343
 31
0.0
  0
LINE
  8
0
 62
     0
 10
0.0950846
 20
105.343
 30
0.0
 11
0.103353
 21
105.578
 31
0.0
  0
LINE
  8
0
 62
     0
 10
0.103353
 20
105.578
 30
0.0
 11
0.130914
 21
105.813
 31
0.0
  0
LINE
  8
0
 62
     0
 10
0.130914
 20
105.813
 30
0.0
 11
0.176389
 21
106.044
 31
0.0
  0
LINE
  8
0
 62
     0
 10
0.176389
 20
106.044
 30
0.0
 11
0.241157
 21
106.271
 31
0.0
  0
LINE
  8
0
 62
     0
 10
0.241157
 20
106.271
 30
0.0
 11
0.322461
 21
106.492
 31
0.0
  0
LINE
  8
0
 62
     0
 10
0.322461
 20
106.492
 30
0.0
 11
0.420303
 21
106.706
 31
0.0
  0
LINE
  8
0
 62
     0
 10
0.420303
 20
106.706
 30
0.0
 11
0.537436
 21
106.911
 31
0.0
  0
LINE
  8
0
 62
     0
 10
0.537436
 20
106.911
 30
0.0
 11
0.666972
 21
107.107
 31
0.0
  0
LINE
  8
0
 62
     0
 10
0.666972
 20
107.107
 30
0.0
 11
0.813043
 21
107.293
 31
0.0
  0
LINE
  8
0
 62
     0
 10
0.813043
 20
107.293
 30
0.0
 11
0.972894
 21
107.465
 31
0.0
  0
LINE
  8
0
 62
     0
 10
0.972894
 20
107.465
 30
0.0
 11
1.14515
 21
107.625
 31
0.0
  0
LINE
  8
0
 62
     0
 10
1.14515
 20
107.625
 30
0.0
 11
1.33119
 21
107.771
 31
0.0
  0
LINE
  8
0
 62
     0
 10
1.33119
 20
107.771
 30
0.0
 11
1.52687
 21
107.9
 31
0.0
  0
LINE
  8
0
 62
     0
 10
1.52687
 20
107.9
 30
0.0
 11
1.7322
 21
108.017
 31
0.0
  0
LINE
  8
0
 62
     0
 10
1.7322
 20
108.017
 30
0.0
 11
1.94579
 21
108.115
 31
0.0
  0
LINE
  8
0
 62
     0
 10
1.94579
 20
108.115
 30
0.0
 11
2.16628
 21
108.197
 31
0.0
  0
LINE
  8
0
 62
     0
 10
2.16628
 20
108.197
 30
0.0
 11
2.39365
 21
108.262
 31
0.0
  0
LINE
  8
0
 62
     0
 10
2.39365
 20
108.262
 30
0.0
 11
2.62516
 21
108.307
 31
0.0
  0
LINE
  8
0
 62
     0
 10
2.62516
 20
108.307
 30
0.0
 11
2.85943
 21
108.335
 31
0.0
  0
LINE
  8
0
 62
     0
 10
2.85943
 20
108.335
 30
0.0
 11
3.09507
 21
108.344
 31
0.0
  0
LINE
  8
0
 62
     0
 10
3.09507
 20
108.344
 30
0.0
 11
86.0944
 21
108.343
 31
0.0
  0
LINE
  8
0
 62
     0
 10
2.72576
 20
5.24482
 30
0.0
 11
2.16903
 21
4.96094
 31
0.0
  0
LINE
  8
0
 62
     0
 10
2.16903
 20
4.96094
 30
0.0
 11
1.72531
 21
4.51859
 31
0.0
  0
LINE
  8
0
 62
     0
 10
1.72531
 20
4.51859
 30
0.0
 11
1.44143
 21
3.96049
 31
0.0
  0
LINE
  8
0
 62
     0
 10
1.44143
 20
3.96049
 30
0.0
 11
1.34359
 21
3.34174
 31
0.0
  0
LINE
  8
0
 62
     0
 10
1.34359
 20
3.34174
 30
0.0
 11
1.44143
 21
2.72438
 31
0.0
  0
LINE
  8
0
 62
     0
 10
1.44143
 20
2.72438
 30
0.0
 11
1.72531
 21
2.16765
 31
0.0
  0
LINE
  8
0
 62
     0
 10
1.72531
 20
2.16765
 30
0.0
 11
2.16903
 21
1.72393
 31
0.0
  0
LINE
  8
0
 62
     0
 10
2.16903
 20
1.72393
 30
0.0
 11
2.72576
 21
1.44005
 31
0.0
  0
LINE
  8
0
 62
     0
 10
2.72576
 20
1.44005
 30
0.0
 11
3.3445
 21
1.34221
 31
0.0
  0
LINE
  8
0
 62
     0
 10
3.3445
 20
1.34221
 30
0.0
 11
3.96325
 21
1.44005
 31
0.0
  0
LINE
  8
0
 62
     0
 10
3.96325
 20
1.44005
 30
0.0
 11
4.51997
 21
1.72393
 31
0.0
  0
LINE
  8
0
 62
     0
 10
4.51997
 20
1.72393
 30
0.0
 11
4.96231
 21
2.16765
 31
0.0
  0
LINE
  8
0
 62
     0
 10
4.96231
 20
2.16765
 30
0.0
 11
5.24619
 21
2.72438
 31
0.0
  0
LINE
  8
0
 62
     0
 10
5.24619
 20
2.72438
 30
0.0
 11
5.34539
 21
3.34174
 31
0.0
  0
LINE
  8
0
 62
     0
 10
5.34539
 20
3.34174
 30
0.0
 11
5.24619
 21
3.96049
 31
0.0
  0
LINE
  8
0
 62
     0
 10
5.24619
 20
3.96049
 30
0.0
 11
4.96231
 21
4.51859
 31
0.0
  0
LINE
  8
0
 62
     0
 10
4.96231
 20
4.51859
 30
0.0
 11
4.51997
 21
4.96094
 31
0.0
  0
LINE
  8
0
 62
     0
 10
4.51997
 20
4.96094
 30
0.0
 11
3.96325
 21
5.24482
 31
0.0
  0
LINE
  8
0
 62
     0
 10
3.96325
 20
5.24482
 30
0.0
 11
3.3445
 21
5.34264
 31
0.0
  0
LINE
  8
0
 62
     0
 10
3.3445
 20
5.34264
 30
0.0
 11
2.72576
 21
5.24482
 31
0.0
  0
LINE
  8
0
 62
     0
 10
85.2248
 20
5.24482
 30
0.0
 11
84.6681
 21
4.96094
 31
0.0
  0
LINE
  8
0
 62
     0
 10
84.6681
 20
4.96094
 30
0.0
 11
84.2243
 21
4.51859
 31
0.0
  0
LINE
  8
0
 62
     0
 10
84.2243
 20
4.51859
 30
0.0
 11
83.9403
 21
3.96049
 31
0.0
  0
LINE
  8
0
 62
     0
 10
83.9403
 20
3.96049
 30
0.0
 11
83.844
 21
3.34174
 31
0.0
  0
LINE
  8
0
 62
     0
 10
83.844
 20
3.34174
 30
0.0
 11
83.9403
 21
2.72438
 31
0.0
  0
LINE
  8
0
 62
     0
 10
83.9403
 20
2.72438
 30
0.0
 11
84.2243
 21
2.16765
 31
0.0
  0
LINE
  8
0
 62
     0
 10
84.2243
 20
2.16765
 30
0.0
 11
84.6681
 21
1.72393
 31
0.0
  0
LINE
  8
0
 62
     0
 10
84.6681
 20
1.72393
 30
0.0
 11
85.2248
 21
1.44005
 31
0.0
  0
LINE
  8
0
 62
     0
 10
85.2248
 20
1.44005
 30
0.0
 11
85.8435
 21
1.34221
 31
0.0
  0
LINE
  8
0
 62
     0
 10
85.8435
 20
1.34221
 30
0.0
 11
86.4623
 21
1.44005
 31
0.0
  0
LINE
  8
0
 62
     0
 10
86.4623
 20
1.44005
 30
0.0
 11
87.019
 21
1.72393
 31
0.0
  0
LINE
  8
0
 62
     0
 10
87.019
 20
1.72393
 30
0.0
 11
87.4614
 21
2.16765
 31
0.0
  0
LINE
  8
0
 62
     0
 10
87.4614
 20
2.16765
 30
0.0
 11
87.7454
 21
2.72438
 31
0.0
  0
LINE
  8
0
 62
     0
 10
87.7454
 20
2.72438
 30
0.0
 11
87.8445
 21
3.34174
 31
0.0
  0
LINE
  8
0
 62
     0
 10
87.8445
 20
3.34174
 30
0.0
 11
87.7454
 21
3.96049
 31
0.0
  0
LINE
  8
0
 62
     0
 10
87.7454
 20
3.96049
 30
0.0
 11
87.4614
 21
4.51859
 31
0.0
  0
LINE
  8
0
 62
     0
 10
87.4614
 20
4.51859
 30
0.0
 11
87.019
 21
4.96094
 31
0.0
  0
LINE
  8
0
 62
     0
 10
87.019
 20
4.96094
 30
0.0
 11
86.4623
 21
5.24482
 31
0.0
  0
LINE
  8
0
 62
     0
 10
86.4623
 20
5.24482
 30
0.0
 11
85.8435
 21
5.34264
 31
0.0
  0
LINE
  8
0
 62
     0
 10
85.8435
 20
5.34264
 30
0.0
 11
85.2248
 21
5.24482
 31
0.0
  0
LINE
  8
0
 62
     0
 10
11.9931
 20
24.0881
 30
0.0
 11
11.9931
 21
22.8878
 31
0.0
  0
LINE
  8
0
 62
     0
 10
11.9931
 20
22.8878
 30
0.0
 11
10.2691
 21
22.8878
 31
0.0
  0
LINE
  8
0
 62
     0
 10
10.2691
 20
22.8878
 30
0.0
 11
10.2691
 21
16.6178
 31
0.0
  0
LINE
  8
0
 62
     0
 10
10.2691
 20
16.6178
 30
0.0
 11
9.44369
 21
16.6178
 31
0.0
  0
LINE
  8
0
 62
     0
 10
9.44369
 20
16.6178
 30
0.0
 11
9.44369
 21
13.8176
 31
0.0
  0
LINE
  8
0
 62
     0
 10
9.44369
 20
13.8176
 30
0.0
 11
10.2691
 21
13.8176
 31
0.0
  0
LINE
  8
0
 62
     0
 10
10.2691
 20
13.8176
 30
0.0
 11
10.2691
 21
10.5875
 31
0.0
  0
LINE
  8
0
 62
     0
 10
10.2691
 20
10.5875
 30
0.0
 11
17.0188
 21
10.5875
 31
0.0
  0
LINE
  8
0
 62
     0
 10
17.0188
 20
10.5875
 30
0.0
 11
17.0188
 21
13.8176
 31
0.0
  0
LINE
  8
0
 62
     0
 10
17.0188
 20
13.8176
 30
0.0
 11
18.5443
 21
13.8176
 31
0.0
  0
LINE
  8
0
 62
     0
 10
18.5443
 20
13.8176
 30
0.0
 11
18.5443
 21
13.2182
 31
0.0
  0
LINE
  8
0
 62
     0
 10
18.5443
 20
13.2182
 30
0.0
 11
17.7436
 21
13.2182
 31
0.0
  0
LINE
  8
0
 62
     0
 10
17.7436
 20
13.2182
 30
0.0
 11
17.7436
 21
10.1176
 31
0.0
  0
LINE
  8
0
 62
     0
 10
17.7436
 20
10.1176
 30
0.0
 11
18.5443
 21
10.1176
 31
0.0
  0
LINE
  8
0
 62
     0
 10
18.5443
 20
10.1176
 30
0.0
 11
18.5443
 21
9.11849
 31
0.0
  0
LINE
  8
0
 62
     0
 10
18.5443
 20
9.11849
 30
0.0
 11
32.5438
 21
9.11849
 31
0.0
  0
LINE
  8
0
 62
     0
 10
32.5438
 20
9.11849
 30
0.0
 11
32.5438
 21
10.1176
 31
0.0
  0
LINE
  8
0
 62
     0
 10
32.5438
 20
10.1176
 30
0.0
 11
33.3444
 21
10.1176
 31
0.0
  0
LINE
  8
0
 62
     0
 10
33.3444
 20
10.1176
 30
0.0
 11
33.3444
 21
13.2182
 31
0.0
  0
LINE
  8
0
 62
     0
 10
33.3444
 20
13.2182
 30
0.0
 11
32.5438
 21
13.2182
 31
0.0
  0
LINE
  8
0
 62
     0
 10
32.5438
 20
13.2182
 30
0.0
 11
32.5438
 21
13.8176
 31
0.0
  0
LINE
  8
0
 62
     0
 10
32.5438
 20
13.8176
 30
0.0
 11
34.0692
 21
13.8176
 31
0.0
  0
LINE
  8
0
 62
     0
 10
34.0692
 20
13.8176
 30
0.0
 11
34.0692
 21
10.5875
 31
0.0
  0
LINE
  8
0
 62
     0
 10
34.0692
 20
10.5875
 30
0.0
 11
40.8189
 21
10.5875
 31
0.0
  0
LINE
  8
0
 62
     0
 10
40.8189
 20
10.5875
 30
0.0
 11
40.8189
 21
13.8176
 31
0.0
  0
LINE
  8
0
 62
     0
 10
40.8189
 20
13.8176
 30
0.0
 11
41.6444
 21
13.8176
 31
0.0
  0
LINE
  8
0
 62
     0
 10
41.6444
 20
13.8176
 30
0.0
 11
41.6444
 21
16.6178
 31
0.0
  0
LINE
  8
0
 62
     0
 10
41.6444
 20
16.6178
 30
0.0
 11
40.8189
 21
16.6178
 31
0.0
  0
LINE
  8
0
 62
     0
 10
40.8189
 20
16.6178
 30
0.0
 11
40.8189
 21
22.8878
 31
0.0
  0
LINE
  8
0
 62
     0
 10
40.8189
 20
22.8878
 30
0.0
 11
39.0934
 21
22.8878
 31
0.0
  0
LINE
  8
0
 62
     0
 10
39.0934
 20
22.8878
 30
0.0
 11
39.0934
 21
24.0881
 31
0.0
  0
LINE
  8
0
 62
     0
 10
39.0934
 20
24.0881
 30
0.0
 11
35.7932
 21
24.0881
 31
0.0
  0
LINE
  8
0
 62
     0
 10
35.7932
 20
24.0881
 30
0.0
 11
35.7932
 21
22.8878
 31
0.0
  0
LINE
  8
0
 62
     0
 10
35.7932
 20
22.8878
 30
0.0
 11
34.0692
 21
22.8878
 31
0.0
  0
LINE
  8
0
 62
     0
 10
34.0692
 20
22.8878
 30
0.0
 11
34.0692
 21
18.4175
 31
0.0
  0
LINE
  8
0
 62
     0
 10
34.0692
 20
18.4175
 30
0.0
 11
32.5438
 21
18.4175
 31
0.0
  0
LINE
  8
0
 62
     0
 10
32.5438
 20
18.4175
 30
0.0
 11
32.5438
 21
19.0183
 31
0.0
  0
LINE
  8
0
 62
     0
 10
32.5438
 20
19.0183
 30
0.0
 11
33.3444
 21
19.0183
 31
0.0
  0
LINE
  8
0
 62
     0
 10
33.3444
 20
19.0183
 30
0.0
 11
33.3444
 21
22.1175
 31
0.0
  0
LINE
  8
0
 62
     0
 10
33.3444
 20
22.1175
 30
0.0
 11
32.5438
 21
22.1175
 31
0.0
  0
LINE
  8
0
 62
     0
 10
32.5438
 20
22.1175
 30
0.0
 11
32.5438
 21
23.118
 31
0.0
  0
LINE
  8
0
 62
     0
 10
32.5438
 20
23.118
 30
0.0
 11
18.5443
 21
23.118
 31
0.0
  0
LINE
  8
0
 62
     0
 10
18.5443
 20
23.118
 30
0.0
 11
18.5443
 21
22.1175
 31
0.0
  0
LINE
  8
0
 62
     0
 10
18.5443
 20
22.1175
 30
0.0
 11
17.7436
 21
22.1175
 31
0.0
  0
LINE
  8
0
 62
     0
 10
17.7436
 20
22.1175
 30
0.0
 11
17.7436
 21
19.0183
 31
0.0
  0
LINE
  8
0
 62
     0
 10
17.7436
 20
19.0183
 30
0.0
 11
18.5443
 21
19.0183
 31
0.0
  0
LINE
  8
0
 62
     0
 10
18.5443
 20
19.0183
 30
0.0
 11
18.5443
 21
18.4175
 31
0.0
  0
LINE
  8
0
 62
     0
 10
18.5443
 20
18.4175
 30
0.0
 11
17.0188
 21
18.4175
 31
0.0
  0
LINE
  8
0
 62
     0
 10
17.0188
 20
18.4175
 30
0.0
 11
17.0188
 21
22.8878
 31
0.0
  0
LINE
  8
0
 62
     0
 10
17.0188
 20
22.8878
 30
0.0
 11
15.2935
 21
22.8878
 31
0.0
  0
LINE
  8
0
 62
     0
 10
15.2935
 20
22.8878
 30
0.0
 11
15.2921
 21
24.0881
 31
0.0
  0
LINE
  8
0
 62
     0
 10
15.2921
 20
24.0881
 30
0.0
 11
11.9931
 21
24.0881
 31
0.0
  0
LINE
  8
0
 62
     0
 10
47.1191
 20
23.118
 30
0.0
 11
47.1191
 21
22.1175
 31
0.0
  0
LINE
  8
0
 62
     0
 10
47.1191
 20
22.1175
 30
0.0
 11
46.3187
 21
22.1175
 31
0.0
  0
LINE
  8
0
 62
     0
 10
46.3187
 20
22.1175
 30
0.0
 11
46.3187
 21
19.0183
 31
0.0
  0
LINE
  8
0
 62
     0
 10
46.3187
 20
19.0183
 30
0.0
 11
47.1191
 21
19.0183
 31
0.0
  0
LINE
  8
0
 62
     0
 10
47.1191
 20
19.0183
 30
0.0
 11
47.1191
 21
13.2182
 31
0.0
  0
LINE
  8
0
 62
     0
 10
47.1191
 20
13.2182
 30
0.0
 11
46.3187
 21
13.2182
 31
0.0
  0
LINE
  8
0
 62
     0
 10
46.3187
 20
13.2182
 30
0.0
 11
46.3187
 21
10.1176
 31
0.0
  0
LINE
  8
0
 62
     0
 10
46.3187
 20
10.1176
 30
0.0
 11
47.1191
 21
10.1176
 31
0.0
  0
LINE
  8
0
 62
     0
 10
47.1191
 20
10.1176
 30
0.0
 11
47.1191
 21
9.11849
 31
0.0
  0
LINE
  8
0
 62
     0
 10
47.1191
 20
9.11849
 30
0.0
 11
61.1188
 21
9.11849
 31
0.0
  0
LINE
  8
0
 62
     0
 10
61.1188
 20
9.11849
 30
0.0
 11
61.1188
 21
10.1176
 31
0.0
  0
LINE
  8
0
 62
     0
 10
61.1188
 20
10.1176
 30
0.0
 11
61.9196
 21
10.1176
 31
0.0
  0
LINE
  8
0
 62
     0
 10
61.9196
 20
10.1176
 30
0.0
 11
61.9196
 21
13.2182
 31
0.0
  0
LINE
  8
0
 62
     0
 10
61.9196
 20
13.2182
 30
0.0
 11
61.1188
 21
13.2182
 31
0.0
  0
LINE
  8
0
 62
     0
 10
61.1188
 20
13.2182
 30
0.0
 11
61.1188
 21
19.0183
 31
0.0
  0
LINE
  8
0
 62
     0
 10
61.1188
 20
19.0183
 30
0.0
 11
61.9196
 21
19.0183
 31
0.0
  0
LINE
  8
0
 62
     0
 10
61.9196
 20
19.0183
 30
0.0
 11
61.9196
 21
22.1175
 31
0.0
  0
LINE
  8
0
 62
     0
 10
61.9196
 20
22.1175
 30
0.0
 11
61.1188
 21
22.1175
 31
0.0
  0
LINE
  8
0
 62
     0
 10
61.1188
 20
22.1175
 30
0.0
 11
61.1188
 21
23.118
 31
0.0
  0
LINE
  8
0
 62
     0
 10
61.1188
 20
23.118
 30
0.0
 11
47.1191
 21
23.118
 31
0.0
  0
LINE
  8
0
 62
     0
 10
72.668
 20
41.7435
 30
0.0
 11
72.668
 21
40.918
 31
0.0
  0
LINE
  8
0
 62
     0
 10
72.668
 20
40.918
 30
0.0
 11
66.3995
 21
40.918
 31
0.0
  0
LINE
  8
0
 62
     0
 10
66.3995
 20
40.918
 30
0.0
 11
66.3995
 21
39.1929
 31
0.0
  0
LINE
  8
0
 62
     0
 10
66.3995
 20
39.1929
 30
0.0
 11
65.199
 21
39.1929
 31
0.0
  0
LINE
  8
0
 62
     0
 10
65.199
 20
39.1929
 30
0.0
 11
65.199
 21
35.8937
 31
0.0
  0
LINE
  8
0
 62
     0
 10
65.199
 20
35.8937
 30
0.0
 11
66.3995
 21
35.8937
 31
0.0
  0
LINE
  8
0
 62
     0
 10
66.3995
 20
35.8937
 30
0.0
 11
66.3995
 21
34.1685
 31
0.0
  0
LINE
  8
0
 62
     0
 10
66.3995
 20
34.1685
 30
0.0
 11
70.8685
 21
34.1685
 31
0.0
  0
LINE
  8
0
 62
     0
 10
70.8685
 20
34.1685
 30
0.0
 11
70.8685
 21
32.643
 31
0.0
  0
LINE
  8
0
 62
     0
 10
70.8685
 20
32.643
 30
0.0
 11
70.2677
 21
32.643
 31
0.0
  0
LINE
  8
0
 62
     0
 10
70.2677
 20
32.643
 30
0.0
 11
70.2677
 21
33.4436
 31
0.0
  0
LINE
  8
0
 62
     0
 10
70.2677
 20
33.4436
 30
0.0
 11
67.1682
 21
33.4436
 31
0.0
  0
LINE
  8
0
 62
     0
 10
67.1682
 20
33.4436
 30
0.0
 11
67.1682
 21
32.643
 31
0.0
  0
LINE
  8
0
 62
     0
 10
67.1682
 20
32.643
 30
0.0
 11
66.1691
 21
32.643
 31
0.0
  0
LINE
  8
0
 62
     0
 10
66.1691
 20
32.643
 30
0.0
 11
66.1691
 21
18.6435
 31
0.0
  0
LINE
  8
0
 62
     0
 10
66.1691
 20
18.6435
 30
0.0
 11
67.1682
 21
18.6435
 31
0.0
  0
LINE
  8
0
 62
     0
 10
67.1682
 20
18.6435
 30
0.0
 11
67.1682
 21
17.8428
 31
0.0
  0
LINE
  8
0
 62
     0
 10
67.1682
 20
17.8428
 30
0.0
 11
70.2677
 21
17.8428
 31
0.0
  0
LINE
  8
0
 62
     0
 10
70.2677
 20
17.8428
 30
0.0
 11
70.2677
 21
18.6435
 31
0.0
  0
LINE
  8
0
 62
     0
 10
70.2677
 20
18.6435
 30
0.0
 11
70.8685
 21
18.6435
 31
0.0
  0
LINE
  8
0
 62
     0
 10
70.8685
 20
18.6435
 30
0.0
 11
70.8685
 21
17.118
 31
0.0
  0
LINE
  8
0
 62
     0
 10
70.8685
 20
17.118
 30
0.0
 11
66.3995
 21
17.118
 31
0.0
  0
LINE
  8
0
 62
     0
 10
66.3995
 20
17.118
 30
0.0
 11
66.3995
 21
15.3927
 31
0.0
  0
LINE
  8
0
 62
     0
 10
66.3995
 20
15.3927
 30
0.0
 11
65.199
 21
15.3927
 31
0.0
  0
LINE
  8
0
 62
     0
 10
65.199
 20
15.3927
 30
0.0
 11
65.199
 21
12.0937
 31
0.0
  0
LINE
  8
0
 62
     0
 10
65.199
 20
12.0937
 30
0.0
 11
66.3995
 21
12.0937
 31
0.0
  0
LINE
  8
0
 62
     0
 10
66.3995
 20
12.0937
 30
0.0
 11
66.3995
 21
10.3684
 31
0.0
  0
LINE
  8
0
 62
     0
 10
66.3995
 20
10.3684
 30
0.0
 11
72.668
 21
10.3684
 31
0.0
  0
LINE
  8
0
 62
     0
 10
72.668
 20
10.3684
 30
0.0
 11
72.668
 21
9.54292
 31
0.0
  0
LINE
  8
0
 62
     0
 10
72.668
 20
9.54292
 30
0.0
 11
75.4683
 21
9.54292
 31
0.0
  0
LINE
  8
0
 62
     0
 10
75.4683
 20
9.54292
 30
0.0
 11
75.4683
 21
10.3684
 31
0.0
  0
LINE
  8
0
 62
     0
 10
75.4683
 20
10.3684
 30
0.0
 11
78.6984
 21
10.3684
 31
0.0
  0
LINE
  8
0
 62
     0
 10
78.6984
 20
10.3684
 30
0.0
 11
78.6984
 21
17.118
 31
0.0
  0
LINE
  8
0
 62
     0
 10
78.6984
 20
17.118
 30
0.0
 11
75.4683
 21
17.118
 31
0.0
  0
LINE
  8
0
 62
     0
 10
75.4683
 20
17.118
 30
0.0
 11
75.4683
 21
18.6435
 31
0.0
  0
LINE
  8
0
 62
     0
 10
75.4683
 20
18.6435
 30
0.0
 11
76.0691
 21
18.6435
 31
0.0
  0
LINE
  8
0
 62
     0
 10
76.0691
 20
18.6435
 30
0.0
 11
76.0691
 21
17.8428
 31
0.0
  0
LINE
  8
0
 62
     0
 10
76.0691
 20
17.8428
 30
0.0
 11
79.1683
 21
17.8428
 31
0.0
  0
LINE
  8
0
 62
     0
 10
79.1683
 20
17.8428
 30
0.0
 11
79.1683
 21
18.6435
 31
0.0
  0
LINE
  8
0
 62
     0
 10
79.1683
 20
18.6435
 30
0.0
 11
80.1688
 21
18.6435
 31
0.0
  0
LINE
  8
0
 62
     0
 10
80.1688
 20
18.6435
 30
0.0
 11
80.1688
 21
32.643
 31
0.0
  0
LINE
  8
0
 62
     0
 10
80.1688
 20
32.643
 30
0.0
 11
79.1683
 21
32.643
 31
0.0
  0
LINE
  8
0
 62
     0
 10
79.1683
 20
32.643
 30
0.0
 11
79.1683
 21
33.4436
 31
0.0
  0
LINE
  8
0
 62
     0
 10
79.1683
 20
33.4436
 30
0.0
 11
76.0691
 21
33.4436
 31
0.0
  0
LINE
  8
0
 62
     0
 10
76.0691
 20
33.4436
 30
0.0
 11
76.0691
 21
32.643
 31
0.0
  0
LINE
  8
0
 62
     0
 10
76.0691
 20
32.643
 30
0.0
 11
75.4683
 21
32.643
 31
0.0
  0
LINE
  8
0
 62
     0
 10
75.4683
 20
32.643
 30
0.0
 11
75.4683
 21
34.1685
 31
0.0
  0
LINE
  8
0
 62
     0
 10
75.4683
 20
34.1685
 30
0.0
 11
78.6984
 21
34.1685
 31
0.0
  0
LINE
  8
0
 62
     0
 10
78.6984
 20
34.1685
 30
0.0
 11
78.6984
 21
40.918
 31
0.0
  0
LINE
  8
0
 62
     0
 10
78.6984
 20
40.918
 30
0.0
 11
75.4683
 21
40.918
 31
0.0
  0
LINE
  8
0
 62
     0
 10
75.4683
 20
40.918
 30
0.0
 11
75.4683
 21
41.7435
 31
0.0
  0
LINE
  8
0
 62
     0
 10
75.4683
 20
41.7435
 30
0.0
 11
72.668
 21
41.7435
 31
0.0
  0
LINE
  8
0
 62
     0
 10
9.01926
 20
42.1679
 30
0.0
 11
9.01926
 21
41.1674
 31
0.0
  0
LINE
  8
0
 62
     0
 10
9.01926
 20
41.1674
 30
0.0
 11
8.21725
 21
41.1674
 31
0.0
  0
LINE
  8
0
 62
     0
 10
8.21725
 20
41.1674
 30
0.0
 11
8.21725
 21
38.0683
 31
0.0
  0
LINE
  8
0
 62
     0
 10
8.21725
 20
38.0683
 30
0.0
 11
9.01926
 21
38.0683
 31
0.0
  0
LINE
  8
0
 62
     0
 10
9.01926
 20
38.0683
 30
0.0
 11
9.01926
 21
32.2682
 31
0.0
  0
LINE
  8
0
 62
     0
 10
9.01926
 20
32.2682
 30
0.0
 11
8.21725
 21
32.2682
 31
0.0
  0
LINE
  8
0
 62
     0
 10
8.21725
 20
32.2682
 30
0.0
 11
8.21725
 21
29.1676
 31
0.0
  0
LINE
  8
0
 62
     0
 10
8.21725
 20
29.1676
 30
0.0
 11
9.01926
 21
29.1676
 31
0.0
  0
LINE
  8
0
 62
     0
 10
9.01926
 20
29.1676
 30
0.0
 11
9.01926
 21
28.1685
 31
0.0
  0
LINE
  8
0
 62
     0
 10
9.01926
 20
28.1685
 30
0.0
 11
23.0188
 21
28.1685
 31
0.0
  0
LINE
  8
0
 62
     0
 10
23.0188
 20
28.1685
 30
0.0
 11
23.0188
 21
29.1676
 31
0.0
  0
LINE
  8
0
 62
     0
 10
23.0188
 20
29.1676
 30
0.0
 11
23.8194
 21
29.1676
 31
0.0
  0
LINE
  8
0
 62
     0
 10
23.8194
 20
29.1676
 30
0.0
 11
23.8194
 21
32.2682
 31
0.0
  0
LINE
  8
0
 62
     0
 10
23.8194
 20
32.2682
 30
0.0
 11
23.0188
 21
32.2682
 31
0.0
  0
LINE
  8
0
 62
     0
 10
23.0188
 20
32.2682
 30
0.0
 11
23.0188
 21
38.0683
 31
0.0
  0
LINE
  8
0
 62
     0
 10
23.0188
 20
38.0683
 30
0.0
 11
23.8194
 21
38.0683
 31
0.0
  0
LINE
  8
0
 62
     0
 10
23.8194
 20
38.0683
 30
0.0
 11
23.8194
 21
41.1674
 31
0.0
  0
LINE
  8
0
 62
     0
 10
23.8194
 20
41.1674
 30
0.0
 11
23.0188
 21
41.1674
 31
0.0
  0
LINE
  8
0
 62
     0
 10
23.0188
 20
41.1674
 30
0.0
 11
23.0188
 21
42.1679
 31
0.0
  0
LINE
  8
0
 62
     0
 10
23.0188
 20
42.1679
 30
0.0
 11
9.01926
 21
42.1679
 31
0.0
  0
LINE
  8
0
 62
     0
 10
28.0693
 20
42.1679
 30
0.0
 11
28.0693
 21
41.1674
 31
0.0
  0
LINE
  8
0
 62
     0
 10
28.0693
 20
41.1674
 30
0.0
 11
27.2686
 21
41.1674
 31
0.0
  0
LINE
  8
0
 62
     0
 10
27.2686
 20
41.1674
 30
0.0
 11
27.2686
 21
38.0683
 31
0.0
  0
LINE
  8
0
 62
     0
 10
27.2686
 20
38.0683
 30
0.0
 11
28.0693
 21
38.0683
 31
0.0
  0
LINE
  8
0
 62
     0
 10
28.0693
 20
38.0683
 30
0.0
 11
28.0693
 21
32.2682
 31
0.0
  0
LINE
  8
0
 62
     0
 10
28.0693
 20
32.2682
 30
0.0
 11
27.2686
 21
32.2682
 31
0.0
  0
LINE
  8
0
 62
     0
 10
27.2686
 20
32.2682
 30
0.0
 11
27.2686
 21
29.1676
 31
0.0
  0
LINE
  8
0
 62
     0
 10
27.2686
 20
29.1676
 30
0.0
 11
28.0693
 21
29.1676
 31
0.0
  0
LINE
  8
0
 62
     0
 10
28.0693
 20
29.1676
 30
0.0
 11
28.0693
 21
28.1685
 31
0.0
  0
LINE
  8
0
 62
     0
 10
28.0693
 20
28.1685
 30
0.0
 11
42.0688
 21
28.1685
 31
0.0
  0
LINE
  8
0
 62
     0
 10
42.0688
 20
28.1685
 30
0.0
 11
42.0688
 21
29.1676
 31
0.0
  0
LINE
  8
0
 62
     0
 10
42.0688
 20
29.1676
 30
0.0
 11
42.8696
 21
29.1676
 31
0.0
  0
LINE
  8
0
 62
     0
 10
42.8696
 20
29.1676
 30
0.0
 11
42.8696
 21
32.2682
 31
0.0
  0
LINE
  8
0
 62
     0
 10
42.8696
 20
32.2682
 30
0.0
 11
42.0688
 21
32.2682
 31
0.0
  0
LINE
  8
0
 62
     0
 10
42.0688
 20
32.2682
 30
0.0
 11
42.0688
 21
38.0683
 31
0.0
  0
LINE
  8
0
 62
     0
 10
42.0688
 20
38.0683
 30
0.0
 11
42.8696
 21
38.0683
 31
0.0
  0
LINE
  8
0
 62
     0
 10
42.8696
 20
38.0683
 30
0.0
 11
42.8696
 21
41.1674
 31
0.0
  0
LINE
  8
0
 62
     0
 10
42.8696
 20
41.1674
 30
0.0
 11
42.0688
 21
41.1674
 31
0.0
  0
LINE
  8
0
 62
     0
 10
42.0688
 20
41.1674
 30
0.0
 11
42.0688
 21
42.1679
 31
0.0
  0
LINE
  8
0
 62
     0
 10
42.0688
 20
42.1679
 30
0.0
 11
28.0693
 21
42.1679
 31
0.0
  0
LINE
  8
0
 62
     0
 10
47.1191
 20
42.1679
 30
0.0
 11
47.1191
 21
41.1674
 31
0.0
  0
LINE
  8
0
 62
     0
 10
47.1191
 20
41.1674
 30
0.0
 11
46.3187
 21
41.1674
 31
0.0
  0
LINE
  8
0
 62
     0
 10
46.3187
 20
41.1674
 30
0.0
 11
46.3187
 21
38.0683
 31
0.0
  0
LINE
  8
0
 62
     0
 10
46.3187
 20
38.0683
 30
0.0
 11
47.1191
 21
38.0683
 31
0.0
  0
LINE
  8
0
 62
     0
 10
47.1191
 20
38.0683
 30
0.0
 11
47.1191
 21
32.2682
 31
0.0
  0
LINE
  8
0
 62
     0
 10
47.1191
 20
32.2682
 30
0.0
 11
46.3187
 21
32.2682
 31
0.0
  0
LINE
  8
0
 62
     0
 10
46.3187
 20
32.2682
 30
0.0
 11
46.3187
 21
29.1676
 31
0.0
  0
LINE
  8
0
 62
     0
 10
46.3187
 20
29.1676
 30
0.0
 11
47.1191
 21
29.1676
 31
0.0
  0
LINE
  8
0
 62
     0
 10
47.1191
 20
29.1676
 30
0.0
 11
47.1191
 21
28.1685
 31
0.0
  0
LINE
  8
0
 62
     0
 10
47.1191
 20
28.1685
 30
0.0
 11
61.1188
 21
28.1685
 31
0.0
  0
LINE
  8
0
 62
     0
 10
61.1188
 20
28.1685
 30
0.0
 11
61.1188
 21
29.1676
 31
0.0
  0
LINE
  8
0
 62
     0
 10
61.1188
 20
29.1676
 30
0.0
 11
61.9196
 21
29.1676
 31
0.0
  0
LINE
  8
0
 62
     0
 10
61.9196
 20
29.1676
 30
0.0
 11
61.9196
 21
32.2682
 31
0.0
  0
LINE
  8
0
 62
     0
 10
61.9196
 20
32.2682
 30
0.0
 11
61.1188
 21
32.2682
 31
0.0
  0
LINE
  8
0
 62
     0
 10
61.1188
 20
32.2682
 30
0.0
 11
61.1188
 21
38.0683
 31
0.0
  0
LINE
  8
0
 62
     0
 10
61.1188
 20
38.0683
 30
0.0
 11
61.9196
 21
38.0683
 31
0.0
  0
LINE
  8
0
 62
     0
 10
61.9196
 20
38.0683
 30
0.0
 11
61.9196
 21
41.1674
 31
0.0
  0
LINE
  8
0
 62
     0
 10
61.9196
 20
41.1674
 30
0.0
 11
61.1188
 21
41.1674
 31
0.0
  0
LINE
  8
0
 62
     0
 10
61.1188
 20
41.1674
 30
0.0
 11
61.1188
 21
42.1679
 31
0.0
  0
LINE
  8
0
 62
     0
 10
61.1188
 20
42.1679
 30
0.0
 11
47.1191
 21
42.1679
 31
0.0
  0
LINE
  8
0
 62
     0
 10
9.01926
 20
61.2179
 30
0.0
 11
9.01926
 21
60.2174
 31
0.0
  0
LINE
  8
0
 62
     0
 10
9.01926
 20
60.2174
 30
0.0
 11
8.21725
 21
60.2174
 31
0.0
  0
LINE
  8
0
 62
     0
 10
8.21725
 20
60.2174
 30
0.0
 11
8.21725
 21
57.1183
 31
0.0
  0
LINE
  8
0
 62
     0
 10
8.21725
 20
57.1183
 30
0.0
 11
9.01926
 21
57.1183
 31
0.0
  0
LINE
  8
0
 62
     0
 10
9.01926
 20
57.1183
 30
0.0
 11
9.01926
 21
51.3182
 31
0.0
  0
LINE
  8
0
 62
     0
 10
9.01926
 20
51.3182
 30
0.0
 11
8.21725
 21
51.3182
 31
0.0
  0
LINE
  8
0
 62
     0
 10
8.21725
 20
51.3182
 30
0.0
 11
8.21725
 21
48.2177
 31
0.0
  0
LINE
  8
0
 62
     0
 10
8.21725
 20
48.2177
 30
0.0
 11
9.01926
 21
48.2177
 31
0.0
  0
LINE
  8
0
 62
     0
 10
9.01926
 20
48.2177
 30
0.0
 11
9.01926
 21
47.2186
 31
0.0
  0
LINE
  8
0
 62
     0
 10
9.01926
 20
47.2186
 30
0.0
 11
23.0188
 21
47.2186
 31
0.0
  0
LINE
  8
0
 62
     0
 10
23.0188
 20
47.2186
 30
0.0
 11
23.0188
 21
48.2177
 31
0.0
  0
LINE
  8
0
 62
     0
 10
23.0188
 20
48.2177
 30
0.0
 11
23.8194
 21
48.2177
 31
0.0
  0
LINE
  8
0
 62
     0
 10
23.8194
 20
48.2177
 30
0.0
 11
23.8194
 21
51.3182
 31
0.0
  0
LINE
  8
0
 62
     0
 10
23.8194
 20
51.3182
 30
0.0
 11
23.0188
 21
51.3182
 31
0.0
  0
LINE
  8
0
 62
     0
 10
23.0188
 20
51.3182
 30
0.0
 11
23.0188
 21
57.1183
 31
0.0
  0
LINE
  8
0
 62
     0
 10
23.0188
 20
57.1183
 30
0.0
 11
23.8194
 21
57.1183
 31
0.0
  0
LINE
  8
0
 62
     0
 10
23.8194
 20
57.1183
 30
0.0
 11
23.8194
 21
60.2174
 31
0.0
  0
LINE
  8
0
 62
     0
 10
23.8194
 20
60.2174
 30
0.0
 11
23.0188
 21
60.2174
 31
0.0
  0
LINE
  8
0
 62
     0
 10
23.0188
 20
60.2174
 30
0.0
 11
23.0188
 21
61.2179
 31
0.0
  0
LINE
  8
0
 62
     0
 10
23.0188
 20
61.2179
 30
0.0
 11
9.01926
 21
61.2179
 31
0.0
  0
LINE
  8
0
 62
     0
 10
28.0693
 20
61.2179
 30
0.0
 11
28.0693
 21
60.2174
 31
0.0
  0
LINE
  8
0
 62
     0
 10
28.0693
 20
60.2174
 30
0.0
 11
27.2686
 21
60.2174
 31
0.0
  0
LINE
  8
0
 62
     0
 10
27.2686
 20
60.2174
 30
0.0
 11
27.2686
 21
57.1183
 31
0.0
  0
LINE
  8
0
 62
     0
 10
27.2686
 20
57.1183
 30
0.0
 11
28.0693
 21
57.1183
 31
0.0
  0
LINE
  8
0
 62
     0
 10
28.0693
 20
57.1183
 30
0.0
 11
28.0693
 21
51.3182
 31
0.0
  0
LINE
  8
0
 62
     0
 10
28.0693
 20
51.3182
 30
0.0
 11
27.2686
 21
51.3182
 31
0.0
  0
LINE
  8
0
 62
     0
 10
27.2686
 20
51.3182
 30
0.0
 11
27.2686
 21
48.2177
 31
0.0
  0
LINE
  8
0
 62
     0
 10
27.2686
 20
48.2177
 30
0.0
 11
28.0693
 21
48.2177
 31
0.0
  0
LINE
  8
0
 62
     0
 10
28.0693
 20
48.2177
 30
0.0
 11
28.0693
 21
47.2186
 31
0.0
  0
LINE
  8
0
 62
     0
 10
28.0693
 20
47.2186
 30
0.0
 11
42.0688
 21
47.2186
 31
0.0
  0
LINE
  8
0
 62
     0
 10
42.0688
 20
47.2186
 30
0.0
 11
42.0688
 21
48.2177
 31
0.0
  0
LINE
  8
0
 62
     0
 10
42.0688
 20
48.2177
 30
0.0
 11
42.8696
 21
48.2177
 31
0.0
  0
LINE
  8
0
 62
     0
 10
42.8696
 20
48.2177
 30
0.0
 11
42.8696
 21
51.3182
 31
0.0
  0
LINE
  8
0
 62
     0
 10
42.8696
 20
51.3182
 30
0.0
 11
42.0688
 21
51.3182
 31
0.0
  0
LINE
  8
0
 62
     0
 10
42.0688
 20
51.3182
 30
0.0
 11
42.0688
 21
57.1183
 31
0.0
  0
LINE
  8
0
 62
     0
 10
42.0688
 20
57.1183
 30
0.0
 11
42.8696
 21
57.1183
 31
0.0
  0
LINE
  8
0
 62
     0
 10
42.8696
 20
57.1183
 30
0.0
 11
42.8696
 21
60.2174
 31
0.0
  0
LINE
  8
0
 62
     0
 10
42.8696
 20
60.2174
 30
0.0
 11
42.0688
 21
60.2174
 31
0.0
  0
LINE
  8
0
 62
     0
 10
42.0688
 20
60.2174
 30
0.0
 11
42.0688
 21
61.2179
 31
0.0
  0
LINE
  8
0
 62
     0
 10
42.0688
 20
61.2179
 30
0.0
 11
28.0693
 21
61.2179
 31
0.0
  0
LINE
  8
0
 62
     0
 10
47.1191
 20
61.2179
 30
0.0
 11
47.1191
 21
60.2174
 31
0.0
  0
LINE
  8
0
 62
     0
 10
47.1191
 20
60.2174
 30
0.0
 11
46.3187
 21
60.2174
 31
0.0
  0
LINE
  8
0
 62
     0
 10
46.3187
 20
60.2174
 30
0.0
 11
46.3187
 21
57.1183
 31
0.0
  0
LINE
  8
0
 62
     0
 10
46.3187
 20
57.1183
 30
0.0
 11
47.1191
 21
57.1183
 31
0.0
  0
LINE
  8
0
 62
     0
 10
47.1191
 20
57.1183
 30
0.0
 11
47.1191
 21
51.3182
 31
0.0
  0
LINE
  8
0
 62
     0
 10
47.1191
 20
51.3182
 30
0.0
 11
46.3187
 21
51.3182
 31
0.0
  0
LINE
  8
0
 62
     0
 10
46.3187
 20
51.3182
 30
0.0
 11
46.3187
 21
48.2177
 31
0.0
  0
LINE
  8
0
 62
     0
 10
46.3187
 20
48.2177
 30
0.0
 11
47.1191
 21
48.2177
 31
0.0
  0
LINE
  8
0
 62
     0
 10
47.1191
 20
48.2177
 30
0.0
 11
47.1191
 21
47.2186
 31
0.0
  0
LINE
  8
0
 62
     0
 10
47.1191
 20
47.2186
 30
0.0
 11
61.1188
 21
47.2186
 31
0.0
  0
LINE
  8
0
 62
     0
 10
61.1188
 20
47.2186
 30
0.0
 11
61.1188
 21
48.2177
 31
0.0
  0
LINE
  8
0
 62
     0
 10
61.1188
 20
48.2177
 30
0.0
 11
61.9196
 21
48.2177
 31
0.0
  0
LINE
  8
0
 62
     0
 10
61.9196
 20
48.2177
 30
0.0
 11
61.9196
 21
51.3182
 31
0.0
  0
LINE
  8
0
 62
     0
 10
61.9196
 20
51.3182
 30
0.0
 11
61.1188
 21
51.3182
 31
0.0
  0
LINE
  8
0
 62
     0
 10
61.1188
 20
51.3182
 30
0.0
 11
61.1188
 21
57.1183
 31
0.0
  0
LINE
  8
0
 62
     0
 10
61.1188
 20
57.1183
 30
0.0
 11
61.9196
 21
57.1183
 31
0.0
  0
LINE
  8
0
 62
     0
 10
61.9196
 20
57.1183
 30
0.0
 11
61.9196
 21
60.2174
 31
0.0
  0
LINE
  8
0
 62
     0
 10
61.9196
 20
60.2174
 30
0.0
 11
61.1188
 21
60.2174
 31
0.0
  0
LINE
  8
0
 62
     0
 10
61.1188
 20
60.2174
 30
0.0
 11
61.1188
 21
61.2179
 31
0.0
  0
LINE
  8
0
 62
     0
 10
61.1188
 20
61.2179
 30
0.0
 11
47.1191
 21
61.2179
 31
0.0
  0
LINE
  8
0
 62
     0
 10
72.668
 20
79.8435
 30
0.0
 11
72.668
 21
79.018
 31
0.0
  0
LINE
  8
0
 62
     0
 10
72.668
 20
79.018
 30
0.0
 11
66.3995
 21
79.018
 31
0.0
  0
LINE
  8
0
 62
     0
 10
66.3995
 20
79.018
 30
0.0
 11
66.3995
 21
77.2929
 31
0.0
  0
LINE
  8
0
 62
     0
 10
66.3995
 20
77.2929
 30
0.0
 11
65.199
 21
77.2929
 31
0.0
  0
LINE
  8
0
 62
     0
 10
65.199
 20
77.2929
 30
0.0
 11
65.199
 21
73.9937
 31
0.0
  0
LINE
  8
0
 62
     0
 10
65.199
 20
73.9937
 30
0.0
 11
66.3995
 21
73.9937
 31
0.0
  0
LINE
  8
0
 62
     0
 10
66.3995
 20
73.9937
 30
0.0
 11
66.3995
 21
72.2683
 31
0.0
  0
LINE
  8
0
 62
     0
 10
66.3995
 20
72.2683
 30
0.0
 11
70.8685
 21
72.2683
 31
0.0
  0
LINE
  8
0
 62
     0
 10
70.8685
 20
72.2683
 30
0.0
 11
70.8685
 21
70.7429
 31
0.0
  0
LINE
  8
0
 62
     0
 10
70.8685
 20
70.7429
 30
0.0
 11
70.2677
 21
70.7429
 31
0.0
  0
LINE
  8
0
 62
     0
 10
70.2677
 20
70.7429
 30
0.0
 11
70.2677
 21
71.5437
 31
0.0
  0
LINE
  8
0
 62
     0
 10
70.2677
 20
71.5437
 30
0.0
 11
67.1682
 21
71.5437
 31
0.0
  0
LINE
  8
0
 62
     0
 10
67.1682
 20
71.5437
 30
0.0
 11
67.1682
 21
70.7429
 31
0.0
  0
LINE
  8
0
 62
     0
 10
67.1682
 20
70.7429
 30
0.0
 11
66.1691
 21
70.7429
 31
0.0
  0
LINE
  8
0
 62
     0
 10
66.1691
 20
70.7429
 30
0.0
 11
66.1691
 21
56.7436
 31
0.0
  0
LINE
  8
0
 62
     0
 10
66.1691
 20
56.7436
 30
0.0
 11
67.1682
 21
56.7436
 31
0.0
  0
LINE
  8
0
 62
     0
 10
67.1682
 20
56.7436
 30
0.0
 11
67.1682
 21
55.9428
 31
0.0
  0
LINE
  8
0
 62
     0
 10
67.1682
 20
55.9428
 30
0.0
 11
70.2677
 21
55.9428
 31
0.0
  0
LINE
  8
0
 62
     0
 10
70.2677
 20
55.9428
 30
0.0
 11
70.2677
 21
56.7436
 31
0.0
  0
LINE
  8
0
 62
     0
 10
70.2677
 20
56.7436
 30
0.0
 11
70.8685
 21
56.7436
 31
0.0
  0
LINE
  8
0
 62
     0
 10
70.8685
 20
56.7436
 30
0.0
 11
70.8685
 21
55.2178
 31
0.0
  0
LINE
  8
0
 62
     0
 10
70.8685
 20
55.2178
 30
0.0
 11
66.3995
 21
55.2178
 31
0.0
  0
LINE
  8
0
 62
     0
 10
66.3995
 20
55.2178
 30
0.0
 11
66.3995
 21
53.4928
 31
0.0
  0
LINE
  8
0
 62
     0
 10
66.3995
 20
53.4928
 30
0.0
 11
65.199
 21
53.4928
 31
0.0
  0
LINE
  8
0
 62
     0
 10
65.199
 20
53.4928
 30
0.0
 11
65.199
 21
50.1936
 31
0.0
  0
LINE
  8
0
 62
     0
 10
65.199
 20
50.1936
 30
0.0
 11
66.3995
 21
50.1936
 31
0.0
  0
LINE
  8
0
 62
     0
 10
66.3995
 20
50.1936
 30
0.0
 11
66.3995
 21
48.4685
 31
0.0
  0
LINE
  8
0
 62
     0
 10
66.3995
 20
48.4685
 30
0.0
 11
72.668
 21
48.4685
 31
0.0
  0
LINE
  8
0
 62
     0
 10
72.668
 20
48.4685
 30
0.0
 11
72.668
 21
47.643
 31
0.0
  0
LINE
  8
0
 62
     0
 10
72.668
 20
47.643
 30
0.0
 11
75.4683
 21
47.643
 31
0.0
  0
LINE
  8
0
 62
     0
 10
75.4683
 20
47.643
 30
0.0
 11
75.4683
 21
48.4685
 31
0.0
  0
LINE
  8
0
 62
     0
 10
75.4683
 20
48.4685
 30
0.0
 11
78.6984
 21
48.4685
 31
0.0
  0
LINE
  8
0
 62
     0
 10
78.6984
 20
48.4685
 30
0.0
 11
78.6984
 21
55.2178
 31
0.0
  0
LINE
  8
0
 62
     0
 10
78.6984
 20
55.2178
 30
0.0
 11
75.4683
 21
55.2178
 31
0.0
  0
LINE
  8
0
 62
     0
 10
75.4683
 20
55.2178
 30
0.0
 11
75.4683
 21
56.7436
 31
0.0
  0
LINE
  8
0
 62
     0
 10
75.4683
 20
56.7436
 30
0.0
 11
76.0691
 21
56.7436
 31
0.0
  0
LINE
  8
0
 62
     0
 10
76.0691
 20
56.7436
 30
0.0
 11
76.0691
 21
55.9428
 31
0.0
  0
LINE
  8
0
 62
     0
 10
76.0691
 20
55.9428
 30
0.0
 11
79.1683
 21
55.9428
 31
0.0
  0
LINE
  8
0
 62
     0
 10
79.1683
 20
55.9428
 30
0.0
 11
79.1683
 21
56.7436
 31
0.0
  0
LINE
  8
0
 62
     0
 10
79.1683
 20
56.7436
 30
0.0
 11
80.1688
 21
56.7436
 31
0.0
  0
LINE
  8
0
 62
     0
 10
80.1688
 20
56.7436
 30
0.0
 11
80.1688
 21
70.7429
 31
0.0
  0
LINE
  8
0
 62
     0
 10
80.1688
 20
70.7429
 30
0.0
 11
79.1683
 21
70.7429
 31
0.0
  0
LINE
  8
0
 62
     0
 10
79.1683
 20
70.7429
 30
0.0
 11
79.1683
 21
71.5437
 31
0.0
  0
LINE
  8
0
 62
     0
 10
79.1683
 20
71.5437
 30
0.0
 11
76.0691
 21
71.5437
 31
0.0
  0
LINE
  8
0
 62
     0
 10
76.0691
 20
71.5437
 30
0.0
 11
76.0691
 21
70.7429
 31
0.0
  0
LINE
  8
0
 62
     0
 10
76.0691
 20
70.7429
 30
0.0
 11
75.4683
 21
70.7429
 31
0.0
  0
LINE
  8
0
 62
     0
 10
75.4683
 20
70.7429
 30
0.0
 11
75.4683
 21
72.2683
 31
0.0
  0
LINE
  8
0
 62
     0
 10
75.4683
 20
72.2683
 30
0.0
 11
78.6984
 21
72.2683
 31
0.0
  0
LINE
  8
0
 62
     0
 10
78.6984
 20
72.2683
 30
0.0
 11
78.6984
 21
79.018
 31
0.0
  0
LINE
  8
0
 62
     0
 10
78.6984
 20
79.018
 30
0.0
 11
75.4683
 21
79.018
 31
0.0
  0
LINE
  8
0
 62
     0
 10
75.4683
 20
79.018
 30
0.0
 11
75.4683
 21
79.8435
 31
0.0
  0
LINE
  8
0
 62
     0
 10
75.4683
 20
79.8435
 30
0.0
 11
72.668
 21
79.8435
 31
0.0
  0
LINE
  8
0
 62
     0
 10
9.01926
 20
80.2679
 30
0.0
 11
9.01926
 21
79.2674
 31
0.0
  0
LINE
  8
0
 62
     0
 10
9.01926
 20
79.2674
 30
0.0
 11
8.21725
 21
79.2674
 31
0.0
  0
LINE
  8
0
 62
     0
 10
8.21725
 20
79.2674
 30
0.0
 11
8.21725
 21
76.1683
 31
0.0
  0
LINE
  8
0
 62
     0
 10
8.21725
 20
76.1683
 30
0.0
 11
9.01926
 21
76.1683
 31
0.0
  0
LINE
  8
0
 62
     0
 10
9.01926
 20
76.1683
 30
0.0
 11
9.01926
 21
70.3682
 31
0.0
  0
LINE
  8
0
 62
     0
 10
9.01926
 20
70.3682
 30
0.0
 11
8.21725
 21
70.3682
 31
0.0
  0
LINE
  8
0
 62
     0
 10
8.21725
 20
70.3682
 30
0.0
 11
8.21725
 21
67.2677
 31
0.0
  0
LINE
  8
0
 62
     0
 10
8.21725
 20
67.2677
 30
0.0
 11
9.01926
 21
67.2677
 31
0.0
  0
LINE
  8
0
 62
     0
 10
9.01926
 20
67.2677
 30
0.0
 11
9.01926
 21
66.2686
 31
0.0
  0
LINE
  8
0
 62
     0
 10
9.01926
 20
66.2686
 30
0.0
 11
23.0188
 21
66.2686
 31
0.0
  0
LINE
  8
0
 62
     0
 10
23.0188
 20
66.2686
 30
0.0
 11
23.0188
 21
67.2677
 31
0.0
  0
LINE
  8
0
 62
     0
 10
23.0188
 20
67.2677
 30
0.0
 11
23.8194
 21
67.2677
 31
0.0
  0
LINE
  8
0
 62
     0
 10
23.8194
 20
67.2677
 30
0.0
 11
23.8194
 21
70.3682
 31
0.0
  0
LINE
  8
0
 62
     0
 10
23.8194
 20
70.3682
 30
0.0
 11
23.0188
 21
70.3682
 31
0.0
  0
LINE
  8
0
 62
     0
 10
23.0188
 20
70.3682
 30
0.0
 11
23.0188
 21
76.1683
 31
0.0
  0
LINE
  8
0
 62
     0
 10
23.0188
 20
76.1683
 30
0.0
 11
23.8194
 21
76.1683
 31
0.0
  0
LINE
  8
0
 62
     0
 10
23.8194
 20
76.1683
 30
0.0
 11
23.8194
 21
79.2674
 31
0.0
  0
LINE
  8
0
 62
     0
 10
23.8194
 20
79.2674
 30
0.0
 11
23.0188
 21
79.2674
 31
0.0
  0
LINE
  8
0
 62
     0
 10
23.0188
 20
79.2674
 30
0.0
 11
23.0188
 21
80.2679
 31
0.0
  0
LINE
  8
0
 62
     0
 10
23.0188
 20
80.2679
 30
0.0
 11
9.01926
 21
80.2679
 31
0.0
  0
LINE
  8
0
 62
     0
 10
28.0693
 20
80.2679
 30
0.0
 11
28.0693
 21
79.2674
 31
0.0
  0
LINE
  8
0
 62
     0
 10
28.0693
 20
79.2674
 30
0.0
 11
27.2686
 21
79.2674
 31
0.0
  0
LINE
  8
0
 62
     0
 10
27.2686
 20
79.2674
 30
0.0
 11
27.2686
 21
76.1683
 31
0.0
  0
LINE
  8
0
 62
     0
 10
27.2686
 20
76.1683
 30
0.0
 11
28.0693
 21
76.1683
 31
0.0
  0
LINE
  8
0
 62
     0
 10
28.0693
 20
76.1683
 30
0.0
 11
28.0693
 21
70.3682
 31
0.0
  0
LINE
  8
0
 62
     0
 10
28.0693
 20
70.3682
 30
0.0
 11
27.2686
 21
70.3682
 31
0.0
  0
LINE
  8
0
 62
     0
 10
27.2686
 20
70.3682
 30
0.0
 11
27.2686
 21
67.2677
 31
0.0
  0
LINE
  8
0
 62
     0
 10
27.2686
 20
67.2677
 30
0.0
 11
28.0693
 21
67.2677
 31
0.0
  0
LINE
  8
0
 62
     0
 10
28.0693
 20
67.2677
 30
0.0
 11
28.0693
 21
66.2686
 31
0.0
  0
LINE
  8
0
 62
     0
 10
28.0693
 20
66.2686
 30
0.0
 11
42.0688
 21
66.2686
 31
0.0
  0
LINE
  8
0
 62
     0
 10
42.0688
 20
66.2686
 30
0.0
 11
42.0688
 21
67.2677
 31
0.0
  0
LINE
  8
0
 62
     0
 10
42.0688
 20
67.2677
 30
0.0
 11
42.8696
 21
67.2677
 31
0.0
  0
LINE
  8
0
 62
     0
 10
42.8696
 20
67.2677
 30
0.0
 11
42.8696
 21
70.3682
 31
0.0
  0
LINE
  8
0
 62
     0
 10
42.8696
 20
70.3682
 30
0.0
 11
42.0688
 21
70.3682
 31
0.0
  0
LINE
  8
0
 62
     0
 10
42.0688
 20
70.3682
 30
0.0
 11
42.0688
 21
76.1683
 31
0.0
  0
LINE
  8
0
 62
     0
 10
42.0688
 20
76.1683
 30
0.0
 11
42.8696
 21
76.1683
 31
0.0
  0
LINE
  8
0
 62
     0
 10
42.8696
 20
76.1683
 30
0.0
 11
42.8696
 21
79.2674
 31
0.0
  0
LINE
  8
0
 62
     0
 10
42.8696
 20
79.2674
 30
0.0
 11
42.0688
 21
79.2674
 31
0.0
  0
LINE
  8
0
 62
     0
 10
42.0688
 20
79.2674
 30
0.0
 11
42.0688
 21
80.2679
 31
0.0
  0
LINE
  8
0
 62
     0
 10
42.0688
 20
80.2679
 30
0.0
 11
28.0693
 21
80.2679
 31
0.0
  0
LINE
  8
0
 62
     0
 10
47.1191
 20
80.2679
 30
0.0
 11
47.1191
 21
79.2674
 31
0.0
  0
LINE
  8
0
 62
     0
 10
47.1191
 20
79.2674
 30
0.0
 11
46.3187
 21
79.2674
 31
0.0
  0
LINE
  8
0
 62
     0
 10
46.3187
 20
79.2674
 30
0.0
 11
46.3187
 21
76.1683
 31
0.0
  0
LINE
  8
0
 62
     0
 10
46.3187
 20
76.1683
 30
0.0
 11
47.1191
 21
76.1683
 31
0.0
  0
LINE
  8
0
 62
     0
 10
47.1191
 20
76.1683
 30
0.0
 11
47.1191
 21
70.3682
 31
0.0
  0
LINE
  8
0
 62
     0
 10
47.1191
 20
70.3682
 30
0.0
 11
46.3187
 21
70.3682
 31
0.0
  0
LINE
  8
0
 62
     0
 10
46.3187
 20
70.3682
 30
0.0
 11
46.3187
 21
67.2677
 31
0.0
  0
LINE
  8
0
 62
     0
 10
46.3187
 20
67.2677
 30
0.0
 11
47.1191
 21
67.2677
 31
0.0
  0
LINE
  8
0
 62
     0
 10
47.1191
 20
67.2677
 30
0.0
 11
47.1191
 21
66.2686
 31
0.0
  0
LINE
  8
0
 62
     0
 10
47.1191
 20
66.2686
 30
0.0
 11
61.1188
 21
66.2686
 31
0.0
  0
LINE
  8
0
 62
     0
 10
61.1188
 20
66.2686
 30
0.0
 11
61.1188
 21
67.2677
 31
0.0
  0
LINE
  8
0
 62
     0
 10
61.1188
 20
67.2677
 30
0.0
 11
61.9196
 21
67.2677
 31
0.0
  0
LINE
  8
0
 62
     0
 10
61.9196
 20
67.2677
 30
0.0
 11
61.9196
 21
70.3682
 31
0.0
  0
LINE
  8
0
 62
     0
 10
61.9196
 20
70.3682
 30
0.0
 11
61.1188
 21
70.3682
 31
0.0
  0
LINE
  8
0
 62
     0
 10
61.1188
 20
70.3682
 30
0.0
 11
61.1188
 21
76.1683
 31
0.0
  0
LINE
  8
0
 62
     0
 10
61.1188
 20
76.1683
 30
0.0
 11
61.9196
 21
76.1683
 31
0.0
  0
LINE
  8
0
 62
     0
 10
61.9196
 20
76.1683
 30
0.0
 11
61.9196
 21
79.2674
 31
0.0
  0
LINE
  8
0
 62
     0
 10
61.9196
 20
79.2674
 30
0.0
 11
61.1188
 21
79.2674
 31
0.0
  0
LINE
  8
0
 62
     0
 10
61.1188
 20
79.2674
 30
0.0
 11
61.1188
 21
80.2679
 31
0.0
  0
LINE
  8
0
 62
     0
 10
61.1188
 20
80.2679
 30
0.0
 11
47.1191
 21
80.2679
 31
0.0
  0
LINE
  8
0
 62
     0
 10
9.01926
 20
99.3193
 30
0.0
 11
9.01926
 21
98.3188
 31
0.0
  0
LINE
  8
0
 62
     0
 10
9.01926
 20
98.3188
 30
0.0
 11
8.21725
 21
98.3188
 31
0.0
  0
LINE
  8
0
 62
     0
 10
8.21725
 20
98.3188
 30
0.0
 11
8.21725
 21
95.2183
 31
0.0
  0
LINE
  8
0
 62
     0
 10
8.21725
 20
95.2183
 30
0.0
 11
9.01926
 21
95.2183
 31
0.0
  0
LINE
  8
0
 62
     0
 10
9.01926
 20
95.2183
 30
0.0
 11
9.01926
 21
89.4196
 31
0.0
  0
LINE
  8
0
 62
     0
 10
9.01926
 20
89.4196
 30
0.0
 11
8.21725
 21
89.4196
 31
0.0
  0
LINE
  8
0
 62
     0
 10
8.21725
 20
89.4196
 30
0.0
 11
8.21725
 21
86.3177
 31
0.0
  0
LINE
  8
0
 62
     0
 10
8.21725
 20
86.3177
 30
0.0
 11
9.01926
 21
86.3177
 31
0.0
  0
LINE
  8
0
 62
     0
 10
9.01926
 20
86.3177
 30
0.0
 11
9.01926
 21
85.3186
 31
0.0
  0
LINE
  8
0
 62
     0
 10
9.01926
 20
85.3186
 30
0.0
 11
23.0188
 21
85.3186
 31
0.0
  0
LINE
  8
0
 62
     0
 10
23.0188
 20
85.3186
 30
0.0
 11
23.0188
 21
86.3177
 31
0.0
  0
LINE
  8
0
 62
     0
 10
23.0188
 20
86.3177
 30
0.0
 11
23.8194
 21
86.3177
 31
0.0
  0
LINE
  8
0
 62
     0
 10
23.8194
 20
86.3177
 30
0.0
 11
23.8194
 21
89.4196
 31
0.0
  0
LINE
  8
0
 62
     0
 10
23.8194
 20
89.4196
 30
0.0
 11
23.0188
 21
89.4196
 31
0.0
  0
LINE
  8
0
 62
     0
 10
23.0188
 20
89.4196
 30
0.0
 11
23.0188
 21
95.2183
 31
0.0
  0
LINE
  8
0
 62
     0
 10
23.0188
 20
95.2183
 30
0.0
 11
23.8194
 21
95.2183
 31
0.0
  0
LINE
  8
0
 62
     0
 10
23.8194
 20
95.2183
 30
0.0
 11
23.8194
 21
98.3188
 31
0.0
  0
LINE
  8
0
 62
     0
 10
23.8194
 20
98.3188
 30
0.0
 11
23.0188
 21
98.3188
 31
0.0
  0
LINE
  8
0
 62
     0
 10
23.0188
 20
98.3188
 30
0.0
 11
23.0188
 21
99.3193
 31
0.0
  0
LINE
  8
0
 62
     0
 10
23.0188
 20
99.3193
 30
0.0
 11
9.01926
 21
99.3193
 31
0.0
  0
LINE
  8
0
 62
     0
 10
28.0693
 20
99.3193
 30
0.0
 11
28.0693
 21
98.3188
 31
0.0
  0
LINE
  8
0
 62
     0
 10
28.0693
 20
98.3188
 30
0.0
 11
27.2686
 21
98.3188
 31
0.0
  0
LINE
  8
0
 62
     0
 10
27.2686
 20
98.3188
 30
0.0
 11
27.2686
 21
95.2183
 31
0.0
  0
LINE
  8
0
 62
     0
 10
27.2686
 20
95.2183
 30
0.0
 11
28.0693
 21
95.2183
 31
0.0
  0
LINE
  8
0
 62
     0
 10
28.0693
 20
95.2183
 30
0.0
 11
28.0693
 21
89.4196
 31
0.0
  0
LINE
  8
0
 62
     0
 10
28.0693
 20
89.4196
 30
0.0
 11
27.2686
 21
89.4196
 31
0.0
  0
LINE
  8
0
 62
     0
 10
27.2686
 20
89.4196
 30
0.0
 11
27.2686
 21
86.3177
 31
0.0
  0
LINE
  8
0
 62
     0
 10
27.2686
 20
86.3177
 30
0.0
 11
28.0693
 21
86.3177
 31
0.0
  0
LINE
  8
0
 62
     0
 10
28.0693
 20
86.3177
 30
0.0
 11
28.0693
 21
85.3186
 31
0.0
  0
LINE
  8
0
 62
     0
 10
28.0693
 20
85.3186
 30
0.0
 11
42.0688
 21
85.3186
 31
0.0
  0
LINE
  8
0
 62
     0
 10
42.0688
 20
85.3186
 30
0.0
 11
42.0688
 21
86.3177
 31
0.0
  0
LINE
  8
0
 62
     0
 10
42.0688
 20
86.3177
 30
0.0
 11
42.8696
 21
86.3177
 31
0.0
  0
LINE
  8
0
 62
     0
 10
42.8696
 20
86.3177
 30
0.0
 11
42.8696
 21
89.4196
 31
0.0
  0
LINE
  8
0
 62
     0
 10
42.8696
 20
89.4196
 30
0.0
 11
42.0688
 21
89.4196
 31
0.0
  0
LINE
  8
0
 62
     0
 10
42.0688
 20
89.4196
 30
0.0
 11
42.0688
 21
95.2183
 31
0.0
  0
LINE
  8
0
 62
     0
 10
42.0688
 20
95.2183
 30
0.0
 11
42.8696
 21
95.2183
 31
0.0
  0
LINE
  8
0
 62
     0
 10
42.8696
 20
95.2183
 30
0.0
 11
42.8696
 21
98.3188
 31
0.0
  0
LINE
  8
0
 62
     0
 10
42.8696
 20
98.3188
 30
0.0
 11
42.0688
 21
98.3188
 31
0.0
  0
LINE
  8
0
 62
     0
 10
42.0688
 20
98.3188
 30
0.0
 11
42.0688
 21
99.3193
 31
0.0
  0
LINE
  8
0
 62
     0
 10
42.0688
 20
99.3193
 30
0.0
 11
28.0693
 21
99.3193
 31
0.0
  0
LINE
  8
0
 62
     0
 10
47.1191
 20
99.3193
 30
0.0
 11
47.1191
 21
98.3188
 31
0.0
  0
LINE
  8
0
 62
     0
 10
47.1191
 20
98.3188
 30
0.0
 11
46.3187
 21
98.3188
 31
0.0
  0
LINE
  8
0
 62
     0
 10
46.3187
 20
98.3188
 30
0.0
 11
46.3187
 21
95.2183
 31
0.0
  0
LINE
  8
0
 62
     0
 10
46.3187
 20
95.2183
 30
0.0
 11
47.1191
 21
95.2183
 31
0.0
  0
LINE
  8
0
 62
     0
 10
47.1191
 20
95.2183
 30
0.0
 11
47.1191
 21
89.4196
 31
0.0
  0
LINE
  8
0
 62
     0
 10
47.1191
 20
89.4196
 30
0.0
 11
46.3187
 21
89.4196
 31
0.0
  0
LINE
  8
0
 62
     0
 10
46.3187
 20
89.4196
 30
0.0
 11
46.3187
 21
86.3177
 31
0.0
  0
LINE
  8
0
 62
     0
 10
46.3187
 20
86.3177
 30
0.0
 11
47.1191
 21
86.3177
 31
0.0
  0
LINE
  8
0
 62
     0
 10
47.1191
 20
86.3177
 30
0.0
 11
47.1191
 21
85.3186
 31
0.0
  0
LINE
  8
0
 62
     0
 10
47.1191
 20
85.3186
 30
0.0
 11
61.1188
 21
85.3186
 31
0.0
  0
LINE
  8
0
 62
     0
 10
61.1188
 20
85.3186
 30
0.0
 11
61.1188
 21
86.3177
 31
0.0
  0
LINE
  8
0
 62
     0
 10
61.1188
 20
86.3177
 30
0.0
 11
61.9196
 21
86.3177
 31
0.0
  0
LINE
  8
0
 62
     0
 10
61.9196
 20
86.3177
 30
0.0
 11
61.9196
 21
89.4196
 31
0.0
  0
LINE
  8
0
 62
     0
 10
61.9196
 20
89.4196
 30
0.0
 11
61.1188
 21
89.4196
 31
0.0
  0
LINE
  8
0
 62
     0
 10
61.1188
 20
89.4196
 30
0.0
 11
61.1188
 21
95.2183
 31
0.0
  0
LINE
  8
0
 62
     0
 10
61.1188
 20
95.2183
 30
0.0
 11
61.9196
 21
95.2183
 31
0.0
  0
LINE
  8
0
 62
     0
 10
61.9196
 20
95.2183
 30
0.0
 11
61.9196
 21
98.3188
 31
0.0
  0
LINE
  8
0
 62
     0
 10
61.9196
 20
98.3188
 30
0.0
 11
61.1188
 21
98.3188
 31
0.0
  0
LINE
  8
0
 62
     0
 10
61.1188
 20
98.3188
 30
0.0
 11
61.1188
 21
99.3193
 31
0.0
  0
LINE
  8
0
 62
     0
 10
61.1188
 20
99.3193
 30
0.0
 11
47.1191
 21
99.3193
 31
0.0
  0
LINE
  8
0
 62
     0
 10
66.1691
 20
99.3193
 30
0.0
 11
66.1691
 21
98.3188
 31
0.0
  0
LINE
  8
0
 62
     0
 10
66.1691
 20
98.3188
 30
0.0
 11
65.3687
 21
98.3188
 31
0.0
  0
LINE
  8
0
 62
     0
 10
65.3687
 20
98.3188
 30
0.0
 11
65.3687
 21
95.2183
 31
0.0
  0
LINE
  8
0
 62
     0
 10
65.3687
 20
95.2183
 30
0.0
 11
66.1691
 21
95.2183
 31
0.0
  0
LINE
  8
0
 62
     0
 10
66.1691
 20
95.2183
 30
0.0
 11
66.1691
 21
89.4196
 31
0.0
  0
LINE
  8
0
 62
     0
 10
66.1691
 20
89.4196
 30
0.0
 11
65.3687
 21
89.4196
 31
0.0
  0
LINE
  8
0
 62
     0
 10
65.3687
 20
89.4196
 30
0.0
 11
65.3687
 21
86.3177
 31
0.0
  0
LINE
  8
0
 62
     0
 10
65.3687
 20
86.3177
 30
0.0
 11
66.1691
 21
86.3177
 31
0.0
  0
LINE
  8
0
 62
     0
 10
66.1691
 20
86.3177
 30
0.0
 11
66.1691
 21
85.3186
 31
0.0
  0
LINE
  8
0
 62
     0
 10
66.1691
 20
85.3186
 30
0.0
 11
80.1688
 21
85.3186
 31
0.0
  0
LINE
  8
0
 62
     0
 10
80.1688
 20
85.3186
 30
0.0
 11
80.1688
 21
86.3177
 31
0.0
  0
LINE
  8
0
 62
     0
 10
80.1688
 20
86.3177
 30
0.0
 11
80.9696
 21
86.3177
 31
0.0
  0
LINE
  8
0
 62
     0
 10
80.9696
 20
86.3177
 30
0.0
 11
80.9696
 21
89.4196
 31
0.0
  0
LINE
  8
0
 62
     0
 10
80.9696
 20
89.4196
 30
0.0
 11
80.1688
 21
89.4196
 31
0.0
  0
LINE
  8
0
 62
     0
 10
80.1688
 20
89.4196
 30
0.0
 11
80.1688
 21
95.2183
 31
0.0
  0
LINE
  8
0
 62
     0
 10
80.1688
 20
95.2183
 30
0.0
 11
80.9696
 21
95.2183
 31
0.0
  0
LINE
  8
0
 62
     0
 10
80.9696
 20
95.2183
 30
0.0
 11
80.9696
 21
98.3188
 31
0.0
  0
LINE
  8
0
 62
     0
 10
80.9696
 20
98.3188
 30
0.0
 11
80.1688
 21
98.3188
 31
0.0
  0
LINE
  8
0
 62
     0
 10
80.1688
 20
98.3188
 30
0.0
 11
80.1688
 21
99.3193
 31
0.0
  0
LINE
  8
0
 62
     0
 10
80.1688
 20
99.3193
 30
0.0
 11
66.1691
 21
99.3193
 31
0.0
  0
LINE
  8
0
 62
     0
 10
2.72576
 20
106.996
 30
0.0
 11
2.16903
 21
106.712
 31
0.0
  0
LINE
  8
0
 62
     0
 10
2.16903
 20
106.712
 30
0.0
 11
1.72531
 21
106.269
 31
0.0
  0
LINE
  8
0
 62
     0
 10
1.72531
 20
106.269
 30
0.0
 11
1.44143
 21
105.712
 31
0.0
  0
LINE
  8
0
 62
     0
 10
1.44143
 20
105.712
 30
0.0
 11
1.34359
 21
105.093
 31
0.0
  0
LINE
  8
0
 62
     0
 10
1.34359
 20
105.093
 30
0.0
 11
1.44143
 21
104.474
 31
0.0
  0
LINE
  8
0
 62
     0
 10
1.44143
 20
104.474
 30
0.0
 11
1.72531
 21
103.918
 31
0.0
  0
LINE
  8
0
 62
     0
 10
1.72531
 20
103.918
 30
0.0
 11
2.16903
 21
103.475
 31
0.0
  0
LINE
  8
0
 62
     0
 10
2.16903
 20
103.475
 30
0.0
 11
2.72576
 21
103.192
 31
0.0
  0
LINE
  8
0
 62
     0
 10
2.72576
 20
103.192
 30
0.0
 11
3.3445
 21
103.092
 31
0.0
  0
LINE
  8
0
 62
     0
 10
3.3445
 20
103.092
 30
0.0
 11
3.96325
 21
103.192
 31
0.0
  0
LINE
  8
0
 62
     0
 10
3.96325
 20
103.192
 30
0.0
 11
4.51997
 21
103.475
 31
0.0
  0
LINE
  8
0
 62
     0
 10
4.51997
 20
103.475
 30
0.0
 11
4.96231
 21
103.918
 31
0.0
  0
LINE
  8
0
 62
     0
 10
4.96231
 20
103.918
 30
0.0
 11
5.24619
 21
104.474
 31
0.0
  0
LINE
  8
0
 62
     0
 10
5.24619
 20
104.474
 30
0.0
 11
5.34539
 21
105.093
 31
0.0
  0
LINE
  8
0
 62
     0
 10
5.34539
 20
105.093
 30
0.0
 11
5.24619
 21
105.712
 31
0.0
  0
LINE
  8
0
 62
     0
 10
5.24619
 20
105.712
 30
0.0
 11
4.96231
 21
106.269
 31
0.0
  0
LINE
  8
0
 62
     0
 10
4.96231
 20
106.269
 30
0.0
 11
4.51997
 21
106.712
 31
0.0
  0
LINE
  8
0
 62
     0
 10
4.51997
 20
106.712
 30
0.0
 11
3.96325
 21
106.996
 31
0.0
  0
LINE
  8
0
 62
     0
 10
3.96325
 20
106.996
 30
0.0
 11
3.3445
 21
107.093
 31
0.0
  0
LINE
  8
0
 62
     0
 10
3.3445
 20
107.093
 30
0.0
 11
2.72576
 21
106.996
 31
0.0
  0
LINE
  8
0
 62
     0
 10
85.2248
 20
106.996
 30
0.0
 11
84.6681
 21
106.712
 31
0.0
  0
LINE
  8
0
 62
     0
 10
84.6681
 20
106.712
 30
0.0
 11
84.2243
 21
106.269
 31
0.0
  0
LINE
  8
0
 62
     0
 10
84.2243
 20
106.269
 30
0.0
 11
83.9403
 21
105.712
 31
0.0
  0
LINE
  8
0
 62
     0
 10
83.9403
 20
105.712
 30
0.0
 11
83.844
 21
105.093
 31
0.0
  0
LINE
  8
0
 62
     0
 10
83.844
 20
105.093
 30
0.0
 11
83.9403
 21
104.474
 31
0.0
  0
LINE
  8
0
 62
     0
 10
83.9403
 20
104.474
 30
0.0
 11
84.2243
 21
103.918
 31
0.0
  0
LINE
  8
0
 62
     0
 10
84.2243
 20
103.918
 30
0.0
 11
84.6681
 21
103.475
 31
0.0
  0
LINE
  8
0
 62
     0
 10
84.6681
 20
103.475
 30
0.0
 11
85.2248
 21
103.192
 31
0.0
  0
LINE
  8
0
 62
     0
 10
85.2248
 20
103.192
 30
0.0
 11
85.8435
 21
103.092
 31
0.0
  0
LINE
  8
0
 62
     0
 10
85.8435
 20
103.092
 30
0.0
 11
86.4623
 21
103.192
 31
0.0
  0
LINE
  8
0
 62
     0
 10
86.4623
 20
103.192
 30
0.0
 11
87.019
 21
103.475
 31
0.0
  0
LINE
  8
0
 62
     0
 10
87.019
 20
103.475
 30
0.0
 11
87.4614
 21
103.918
 31
0.0
  0
LINE
  8
0
 62
     0
 10
87.4614
 20
103.918
 30
0.0
 11
87.7454
 21
104.474
 31
0.0
  0
LINE
  8
0
 62
     0
 10
87.7454
 20
104.474
 30
0.0
 11
87.8445
 21
105.093
 31
0.0
  0
LINE
  8
0
 62
     0
 10
87.8445
 20
105.093
 30
0.0
 11
87.7454
 21
105.712
 31
0.0
  0
LINE
  8
0
 62
     0
 10
87.7454
 20
105.712
 30
0.0
 11
87.4614
 21
106.269
 31
0.0
  0
LINE
  8
0
 62
     0
 10
87.4614
 20
106.269
 30
0.0
 11
87.019
 21
106.712
 31
0.0
  0
LINE
  8
0
 62
     0
 10
87.019
 20
106.712
 30
0.0
 11
86.4623
 21
106.996
 31
0.0
  0
LINE
  8
0
 62
     0
 10
86.4623
 20
106.996
 30
0.0
 11
85.8435
 21
107.093
 31
0.0
  0
LINE
  8
0
 62
     0
 10
85.8435
 20
107.093
 30
0.0
 11
85.2248
 21
106.996
 31
0.0
  0
ENDSEC
  0
EOF
