  0
SECTION
  2
HEADER
  9
$ACADVER
  1
AC1009
  9
$DWGCODEPAGE
  3
ansi_1252
  9
$INSBASE
 10
0.0
 20
0.0
 30
0.0
  9
$EXTMIN
 10
0.0937066
 20
0.0923286
 30
0.0
  9
$EXTMAX
 10
89.0944
 20
108.344
 30
0.0
  9
$LIMMIN
 10
0.0
 20
0.0
  9
$LIMMAX
 10
12.0
 20
9.0
  9
$ORTHOMODE
 70
     0
  9
$REGENMODE
 70
     1
  9
$FILLMODE
 70
     0
  9
$QTEXTMODE
 70
     0
  9
$MIRRTEXT
 70
     1
  9
$DRAGMODE
 70
     2
  9
$LTSCALE
 40
1.0
  9
$OSMODE
 70
    37
  9
$ATTMODE
 70
     1
  9
$TEXTSIZE
 40
0.2
  9
$TRACEWID
 40
0.05
  9
$TEXTSTYLE
  7
STANDARD
  9
$CLAYER
  8
0
  9
$CELTYPE
  6
BYLAYER
  9
$CECOLOR
 62
    18
  9
$DIMSCALE
 40
1.0
  9
$DIMASZ
 40
0.18
  9
$DIMEXO
 40
0.0625
  9
$DIMDLI
 40
0.38
  9
$DIMRND
 40
0.0
  9
$DIMDLE
 40
0.0
  9
$DIMEXE
 40
0.18
  9
$DIMTP
 40
0.0
  9
$DIMTM
 40
0.0
  9
$DIMTXT
 40
0.18
  9
$DIMCEN
 40
0.09
  9
$DIMTSZ
 40
0.0
  9
$DIMTOL
 70
     0
  9
$DIMLIM
 70
     0
  9
$DIMTIH
 70
     1
  9
$DIMTOH
 70
     1
  9
$DIMSE1
 70
     0
  9
$DIMSE2
 70
     0
  9
$DIMTAD
 70
     0
  9
$DIMZIN
 70
     0
  9
$DIMBLK
  1

  9
$DIMASO
 70
     1
  9
$DIMSHO
 70
     1
  9
$DIMPOST
  1

  9
$DIMAPOST
  1

  9
$DIMALT
 70
     0
  9
$DIMALTD
 70
     2
  9
$DIMALTF
 40
25.4
  9
$DIMLFAC
 40
1.0
  9
$DIMTOFL
 70
     0
  9
$DIMTVP
 40
0.0
  9
$DIMTIX
 70
     0
  9
$DIMSOXD
 70
     0
  9
$DIMSAH
 70
     0
  9
$DIMBLK1
  1

  9
$DIMBLK2
  1

  9
$DIMSTYLE
  2
STANDARD
  9
$DIMCLRD
 70
    18
  9
$DIMCLRE
 70
    18
  9
$DIMCLRT
 70
    18
  9
$DIMTFAC
 40
1.0
  9
$DIMGAP
 40
0.09
  9
$LUNITS
 70
     2
  9
$LUPREC
 70
     4
  9
$SKETCHINC
 40
0.1
  9
$FILLETRAD
 40
0.5
  9
$AUNITS
 70
     0
  9
$AUPREC
 70
     0
  9
$MENU
  1
.
  9
$ELEVATION
 40
0.0
  9
$PELEVATION
 40
0.0
  9
$THICKNESS
 40
0.0
  9
$LIMCHECK
 70
     0
  9
$CHAMFERA
 40
0.0
  9
$CHAMFERB
 40
0.0
  9
$SKPOLY
 70
     0
  9
$TDCREATE
 40
2458755.673468924
  9
$TDUPDATE
 40
2458755.67346897
  9
$TDINDWG
 40
0.0000000116
  9
$TDUSRTIMER
 40
0.0000000116
  9
$USRTIMER
 70
     1
  9
$ANGBASE
 50
0.0
  9
$ANGDIR
 70
     0
  9
$PDMODE
 70
     0
  9
$PDSIZE
 40
0.0
  9
$PLINEWID
 40
0.0
  9
$COORDS
 70
     1
  9
$SPLFRAME
 70
     1
  9
$SPLINETYPE
 70
     6
  9
$SPLINESEGS
 70
     8
  9
$ATTDIA
 70
     0
  9
$ATTREQ
 70
     1
  9
$HANDLING
 70
     1
  9
$HANDSEED
  5
37C
  9
$SURFTAB1
 70
     6
  9
$SURFTAB2
 70
     6
  9
$SURFTYPE
 70
     6
  9
$SURFU
 70
     6
  9
$SURFV
 70
     6
  9
$UCSNAME
  2

  9
$UCSORG
 10
0.0
 20
0.0
 30
0.0
  9
$UCSXDIR
 10
1.0
 20
0.0
 30
0.0
  9
$UCSYDIR
 10
0.0
 20
1.0
 30
0.0
  9
$PUCSNAME
  2

  9
$PUCSORG
 10
0.0
 20
0.0
 30
0.0
  9
$PUCSXDIR
 10
1.0
 20
0.0
 30
0.0
  9
$PUCSYDIR
 10
0.0
 20
1.0
 30
0.0
  9
$USERI1
 70
     0
  9
$USERI2
 70
     0
  9
$USERI3
 70
     0
  9
$USERI4
 70
     0
  9
$USERI5
 70
     0
  9
$USERR1
 40
0.0
  9
$USERR2
 40
0.0
  9
$USERR3
 40
0.0
  9
$USERR4
 40
0.0
  9
$USERR5
 40
0.0
  9
$WORLDVIEW
 70
     1
  9
$SHADEDGE
 70
     3
  9
$SHADEDIF
 70
    70
  9
$TILEMODE
 70
     1
  9
$MAXACTVP
 70
    64
  9
$PLIMCHECK
 70
     0
  9
$PEXTMIN
 10
1.000000000000000E+20
 20
1.000000000000000E+20
 30
1.000000000000000E+20
  9
$PEXTMAX
 10
-1.000000000000000E+20
 20
-1.000000000000000E+20
 30
-1.000000000000000E+20
  9
$PLIMMIN
 10
-0.25
 20
-0.25
  9
$PLIMMAX
 10
10.75
 20
8.25
  9
$UNITMODE
 70
     0
  9
$VISRETAIN
 70
     1
  9
$PLINEGEN
 70
     0
  9
$PSLTSCALE
 70
     1
  0
ENDSEC
  0
SECTION
  2
TABLES
  0
TABLE
  2
VPORT
 70
     1
  0
VPORT
  2
*ACTIVE
 70
     0
 10
0.0
 20
0.0
 11
1.0
 21
1.0
 12
45.94067751038992
 22
48.85896291841917
 13
0.0
 23
0.0
 14
0.5
 24
0.5
 15
0.5
 25
0.5
 16
0.0
 26
0.0
 36
1.0
 17
0.0
 27
0.0
 37
0.0
 40
136.3549999317051
 41
1.9245960502693
 42
50.0
 43
0.0
 44
0.0
 50
0.0
 51
0.0
 71
     0
 72
   100
 73
     1
 74
     3
 75
     0
 76
     0
 77
     0
 78
     0
  0
ENDTAB
  0
TABLE
  2
LTYPE
 70
    48
  0
LTYPE
  2
CONTINUOUS
 70
     0
  3
Solid line
 72
    65
 73
     0
 40
0.0
  0
LTYPE
  2
DASHEDX2
 70
     0
  3
Dashed (2x) ____  ____  ____  ____  ____  ___
 72
    65
 73
     2
 40
38.09999999999999
 49
25.4
 49
-12.7
  0
LTYPE
  2
DIVIDE
 70
     0
  3
Divide ____ . . ____ . . ____ . . ____ . . ____
 72
    65
 73
     6
 40
31.75
 49
12.7
 49
-6.35
 49
0.0
 49
-6.35
 49
0.0
 49
-6.35
  0
LTYPE
  2
DASHED
 70
     0
  3
Dashed __ __ __ __ __ __ __ __ __ __ __ __ __ _
 72
    65
 73
     2
 40
19.05
 49
12.7
 49
-6.35
  0
LTYPE
  2
DASHED2
 70
     0
  3
Dashed (.5x) _ _ _ _ _ _ _ _ _ _ _ _ _ _ _ _ _ 
 72
    65
 73
     2
 40
9.524999999999999
 49
6.35
 49
-3.175
  0
LTYPE
  2
ZIGZAG
 70
     0
  3
Zig zag /\/\/\/\/\/\/\/\/\/\/\/\/\/\/\/\/\/\/\/\/\/\/\/
 72
    65
 73
     4
 40
20.32254
 49
0.00254
 49
-5.08
 49
-10.16
 49
-5.08
  0
LTYPE
  2
PHANTOMX2
 70
     0
  3
Phantom (2x) ____________    ____    ____   _
 72
    65
 73
     6
 40
127.0
 49
63.5
 49
-12.7
 49
12.7
 49
-12.7
 49
12.7
 49
-12.7
  0
LTYPE
  2
TRACKS
 70
     0
  3
Tracks -|-|-|-|-|-|-|-|-|-|-|-|-|-|-|-|-|-|-|-|-|-|-|-|-
 72
    65
 73
     2
 40
7.62
 49
3.81
 49
3.81
  0
LTYPE
  2
PHANTOM
 70
     0
  3
Phantom ______  __  __  ______  __  __  ______ 
 72
    65
 73
     6
 40
63.50000000000001
 49
31.75
 49
-6.35
 49
6.35
 49
-6.35
 49
6.35
 49
-6.35
  0
LTYPE
  2
PHANTOM2
 70
     0
  3
Phantom (.5x) ___ _ _ ___ _ _ ___ _ _ ___ _ _
 72
    65
 73
     6
 40
31.75
 49
15.875
 49
-3.175
 49
3.175
 49
-3.175
 49
3.175
 49
-3.175
  0
LTYPE
  2
HIDDENX2
 70
     0
  3
Hidden (2x) ____ ____ ____ ____ ____ ____ ____ 
 72
    65
 73
     2
 40
19.05
 49
12.7
 49
-6.35
  0
LTYPE
  2
HOT_WATER_SUPPLY
 70
     0
  3
Hot water supply ---- HW ---- HW ---- HW ----
 72
    65
 73
     3
 40
22.86
 49
12.7
 49
-5.08
 49
-5.08
  0
LTYPE
  2
ACAD_ISO08W100
 70
     0
  3
ISO long-dash short-dash ____ __ ____ __ ____ _
 72
    65
 73
     4
 40
36.0
 49
24.0
 49
-3.0
 49
6.0
 49
-3.0
  0
LTYPE
  2
ACAD_ISO09W100
 70
     0
  3
ISO long-dash double-short-dash ____ __ __ ____
 72
    65
 73
     6
 40
45.0
 49
24.0
 49
-3.0
 49
6.0
 49
-3.0
 49
6.0
 49
-3.0
  0
LTYPE
  2
ACAD_ISO06W100
 70
     0
  3
ISO long-dash triple-dot ____ ... ____ ... ____
 72
    65
 73
     8
 40
36.0
 49
24.0
 49
-3.0
 49
0.0
 49
-3.0
 49
0.0
 49
-3.0
 49
0.0
 49
-3.0
  0
LTYPE
  2
ACAD_ISO07W100
 70
     0
  3
ISO dot . . . . . . . . . . . . . . . . . . . . 
 72
    65
 73
     2
 40
3.0
 49
0.0
 49
-3.0
  0
LTYPE
  2
ACAD_ISO04W100
 70
     0
  3
ISO long-dash dot ____ . ____ . ____ . ____ . _
 72
    65
 73
     4
 40
30.0
 49
24.0
 49
-3.0
 49
0.0
 49
-3.0
  0
LTYPE
  2
ACAD_ISO05W100
 70
     0
  3
ISO long-dash double-dot ____ .. ____ .. ____ . 
 72
    65
 73
     6
 40
33.0
 49
24.0
 49
-3.0
 49
0.0
 49
-3.0
 49
0.0
 49
-3.0
  0
LTYPE
  2
ACAD_ISO02W100
 70
     0
  3
ISO dash __ __ __ __ __ __ __ __ __ __ __ __ __
 72
    65
 73
     2
 40
15.0
 49
12.0
 49
-3.0
  0
LTYPE
  2
ACAD_ISO03W100
 70
     0
  3
ISO dash space __    __    __    __    __    __
 72
    65
 73
     2
 40
30.0
 49
12.0
 49
-18.0
  0
LTYPE
  2
DASHDOT2
 70
     0
  3
Dash dot (.5x) _._._._._._._._._._._._._._._.
 72
    65
 73
     4
 40
12.7
 49
6.35
 49
-3.175
 49
0.0
 49
-3.175
  0
LTYPE
  2
DASHDOTX2
 70
     0
  3
Dash dot (2x) ____  .  ____  .  ____  .  ___
 72
    65
 73
     4
 40
50.8
 49
25.4
 49
-12.7
 49
0.0
 49
-12.7
  0
LTYPE
  2
CENTERX2
 70
     0
  3
Center (2x) ________  __  ________  __  _____
 72
    65
 73
     4
 40
101.6
 49
63.5
 49
-12.7
 49
12.7
 49
-12.7
  0
LTYPE
  2
DASHDOT
 70
     0
  3
Dash dot __ . __ . __ . __ . __ . __ . __ . __
 72
    65
 73
     4
 40
25.4
 49
12.7
 49
-6.35
 49
0.0
 49
-6.35
  0
LTYPE
  2
CENTER
 70
     0
  3
Center ____ _ ____ _ ____ _ ____ _ ____ _ ____
 72
    65
 73
     4
 40
50.8
 49
31.75
 49
-6.35
 49
6.35
 49
-6.35
  0
LTYPE
  2
CENTER2
 70
     0
  3
Center (.5x) ___ _ ___ _ ___ _ ___ _ ___ _ ___
 72
    65
 73
     4
 40
28.575
 49
19.05
 49
-3.175
 49
3.175
 49
-3.175
  0
LTYPE
  2
BORDER2
 70
     0
  3
Border (.5x) __.__.__.__.__.__.__.__.__.__.__.
 72
    65
 73
     6
 40
22.225
 49
6.35
 49
-3.175
 49
6.35
 49
-3.175
 49
0.0
 49
-3.175
  0
LTYPE
  2
BORDERX2
 70
     0
  3
Border (2x) ____  ____  .  ____  ____  .  ___
 72
    65
 73
     6
 40
88.89999999999999
 49
25.4
 49
-12.7
 49
25.4
 49
-12.7
 49
0.0
 49
-12.7
  0
LTYPE
  2
BATTING
 70
     0
  3
Batting SSSSSSSSSSSSSSSSSSSSSSSSSSSSSSSSSSSSSSSSSSSSSSS
 72
    65
 73
     4
 40
10.16254
 49
0.00254
 49
-2.54
 49
-5.08
 49
-2.54
  0
LTYPE
  2
BORDER
 70
     0
  3
Border __ __ . __ __ . __ __ . __ __ . __ __ .
 72
    65
 73
     6
 40
44.45
 49
12.7
 49
-6.35
 49
12.7
 49
-6.35
 49
0.0
 49
-6.35
  0
LTYPE
  2
ACAD_ISO14W100
 70
     0
  3
ISO dash triple-dot __ . . . __ . . . __ . . . _
 72
    65
 73
     8
 40
24.0
 49
12.0
 49
-3.0
 49
0.0
 49
-3.0
 49
0.0
 49
-3.0
 49
0.0
 49
-3.0
  0
LTYPE
  2
ACAD_ISO15W100
 70
     0
  3
ISO double-dash triple-dot __ __ . . . __ __ . .
 72
    65
 73
    10
 40
39.0
 49
12.0
 49
-3.0
 49
12.0
 49
-3.0
 49
0.0
 49
-3.0
 49
0.0
 49
-3.0
 49
0.0
 49
-3.0
  0
LTYPE
  2
ACAD_ISO12W100
 70
     0
  3
ISO dash double-dot __ . . __ . . __ . . __ . . 
 72
    65
 73
     6
 40
21.0
 49
12.0
 49
-3.0
 49
0.0
 49
-3.0
 49
0.0
 49
-3.0
  0
LTYPE
  2
ACAD_ISO13W100
 70
     0
  3
ISO double-dash double-dot __ __ . . __ __ . . _
 72
    65
 73
     8
 40
36.0
 49
12.0
 49
-3.0
 49
12.0
 49
-3.0
 49
0.0
 49
-3.0
 49
0.0
 49
-3.0
  0
LTYPE
  2
ACAD_ISO10W100
 70
     0
  3
ISO dash dot __ . __ . __ . __ . __ . __ . __ . 
 72
    65
 73
     4
 40
18.0
 49
12.0
 49
-3.0
 49
0.0
 49
-3.0
  0
LTYPE
  2
ACAD_ISO11W100
 70
     0
  3
ISO double-dash dot __ __ . __ __ . __ __ . __ _
 72
    65
 73
     6
 40
33.0
 49
12.0
 49
-3.0
 49
12.0
 49
-3.0
 49
0.0
 49
-3.0
  0
LTYPE
  2
HIDDEN
 70
     0
  3
Hidden __ __ __ __ __ __ __ __ __ __ __ __ __ __
 72
    65
 73
     2
 40
9.524999999999999
 49
6.35
 49
-3.175
  0
LTYPE
  2
HIDDEN2
 70
     0
  3
Hidden (.5x) _ _ _ _ _ _ _ _ _ _ _ _ _ _ _ _ _ 
 72
    65
 73
     2
 40
4.762499999999999
 49
3.175
 49
-1.5875
  0
LTYPE
  2
FENCELINE2
 70
     0
  3
Fenceline square ----[]-----[]----[]-----[]----[]---
 72
    65
 73
     4
 40
36.83
 49
6.35
 49
-2.54
 49
-2.54
 49
25.4
  0
LTYPE
  2
GAS_LINE
 70
     0
  3
Gas line ----GAS----GAS----GAS----GAS----GAS----GAS--
 72
    65
 73
     3
 40
24.13
 49
12.7
 49
-5.08
 49
-6.35
  0
LTYPE
  2
DRAINAGE2
 70
     0
  3
Drainage reversed----<----<----<----
 72
    65
 73
     2
 40
10.16
 49
5.08
 49
5.08
  0
LTYPE
  2
FENCELINE1
 70
     0
  3
Fenceline circle ----0-----0----0-----0----0-----0--
 72
    65
 73
     4
 40
36.83
 49
6.35
 49
-2.54
 49
-2.54
 49
25.4
  0
LTYPE
  2
DOTX2
 70
     0
  3
Dot (2x) .  .  .  .  .  .  .  .  .  .  .  .  .  .
 72
    65
 73
     2
 40
12.7
 49
0.0
 49
-12.7
  0
LTYPE
  2
DRAINAGE
 70
     0
  3
Drainage ---->---->---->----
 72
    65
 73
     2
 40
10.16
 49
5.08
 49
5.08
  0
LTYPE
  2
DOT
 70
     0
  3
Dot . . . . . . . . . . . . . . . . . . . . . . . .
 72
    65
 73
     2
 40
6.35
 49
0.0
 49
-6.35
  0
LTYPE
  2
DOT2
 70
     0
  3
Dot (.5x) ........................................
 72
    65
 73
     2
 40
3.175
 49
0.0
 49
-3.175
  0
LTYPE
  2
DIVIDE2
 70
     0
  3
Divide (.5x) __..__..__..__..__..__..__..__.._
 72
    65
 73
     6
 40
15.875
 49
6.35
 49
-3.175
 49
0.0
 49
-3.175
 49
0.0
 49
-3.175
  0
LTYPE
  2
DIVIDEX2
 70
     0
  3
Divide (2x) ________  .  .  ________  .  .  _
 72
    65
 73
     6
 40
63.5
 49
25.4
 49
-12.7
 49
0.0
 49
-12.7
 49
0.0
 49
-12.7
  0
ENDTAB
  0
TABLE
  2
LAYER
 70
     1
  0
LAYER
  2
0
 70
     0
 62
     7
  6
CONTINUOUS
  0
ENDTAB
  0
TABLE
  2
STYLE
 70
    13
  0
STYLE
  2
STANDARD
 70
     0
 40
0.0
 41
1.0
 50
0.0
 71
     0
 42
0.2
  3
txt
  4

  0
STYLE
  2
QCADDIMTEXTSTYLE
 70
     0
 40
0.0
 41
1.0
 50
0.0
 71
     0
 42
0.2
  3

  4

  0
STYLE
  2
TEXTSTYLE0
 70
     0
 40
0.0
 41
1.0
 50
0.0
 71
     0
 42
0.2
  3
ltypeshp.shx
  4

  0
STYLE
  2
TEXTSTYLE1
 70
     0
 40
0.0
 41
1.0
 50
0.0
 71
     0
 42
0.2
  3
ltypeshp.shx
  4

  0
STYLE
  2
TEXTSTYLE2
 70
     0
 40
0.0
 41
1.0
 50
0.0
 71
     0
 42
0.2
  3
ltypeshp.shx
  4

  0
STYLE
  2
TEXTSTYLE3
 70
     0
 40
0.0
 41
1.0
 50
0.0
 71
     0
 42
0.2
  3
STANDARD
  4

  0
STYLE
  2
TEXTSTYLE4
 70
     0
 40
0.0
 41
1.0
 50
0.0
 71
     0
 42
0.2
  3
ltypeshp.shx
  4

  0
STYLE
  2
TEXTSTYLE5
 70
     0
 40
0.0
 41
1.0
 50
0.0
 71
     0
 42
0.2
  3
ltypeshp.shx
  4

  0
STYLE
  2
TEXTSTYLE6
 70
     0
 40
0.0
 41
1.0
 50
0.0
 71
     0
 42
0.2
  3
ltypeshp.shx
  4

  0
STYLE
  2
TEXTSTYLE7
 70
     0
 40
0.0
 41
1.0
 50
0.0
 71
     0
 42
0.2
  3
STANDARD
  4

  0
STYLE
  2
TEXTSTYLE8
 70
     0
 40
0.0
 41
1.0
 50
0.0
 71
     0
 42
0.2
  3
qcadshp.shx
  4

  0
STYLE
  2
TEXTSTYLE9
 70
     0
 40
0.0
 41
1.0
 50
0.0
 71
     0
 42
0.2
  3
ltypeshp.shx
  4

  0
STYLE
  2
TEXTSTYLE10
 70
     0
 40
0.0
 41
1.0
 50
0.0
 71
     0
 42
0.2
  3
qcadshp.shx
  4

  0
ENDTAB
  0
TABLE
  2
VIEW
 70
     0
  0
ENDTAB
  0
TABLE
  2
UCS
 70
     0
  0
ENDTAB
  0
TABLE
  2
APPID
 70
     2
  0
APPID
  2
ACAD
 70
     0
  0
APPID
  2
QCAD
 70
     0
  0
ENDTAB
  0
TABLE
  2
DIMSTYLE
 70
     2
  0
DIMSTYLE
  2
STANDARD
 70
     0
  3

  4

  5

  6

  7

 40
1.0
 41
0.18
 42
0.0625
 43
0.38
 44
0.18
 45
0.0
 46
0.0
 47
0.0
 48
0.0
140
0.18
141
0.09
142
0.0
143
25.4
144
1.0
145
0.0
146
1.0
147
0.09
 71
     0
 72
     0
 73
     1
 74
     1
 75
     0
 76
     0
 77
     0
 78
     0
170
     0
171
     2
172
     0
173
     0
174
     0
175
     0
176
     0
177
     0
178
     0
  0
DIMSTYLE
  2
QCADDIMSTYLE
 70
     0
  3

  4

  5

  6

  7

 40
1.0
 41
0.18
 42
0.0625
 43
0.38
 44
0.18
 45
0.0
 46
0.0
 47
0.0
 48
0.0
140
0.18
141
0.09
142
0.0
143
25.4
144
1.0
145
0.0
146
1.0
147
0.09
 71
     0
 72
     0
 73
     0
 74
     1
 75
     0
 76
     0
 77
     1
 78
     0
170
     0
171
     2
172
     0
173
     0
174
     0
175
     0
176
     0
177
     0
178
     0
  0
ENDTAB
  0
ENDSEC
  0
SECTION
  2
BLOCKS
  0
BLOCK
  8
0
  2
$MODEL_SPACE
 70
     0
 10
0.0
 20
0.0
 30
0.0
  3
$MODEL_SPACE
  1

  0
ENDBLK
  5
2B7
  8
0
  0
BLOCK
 67
     1
  8
0
  2
$PAPER_SPACE
 70
     0
 10
0.0
 20
0.0
 30
0.0
  3
$PAPER_SPACE
  1

  0
ENDBLK
  5
2B3
 67
     1
  8
0
  0
ENDSEC
  0
SECTION
  2
ENTITIES
  0
LINE
  5
40
  8
0
 62
     0
 10
86.0944
 20
108.343
 30
0.0
 11
86.3286
 21
108.335
 31
0.0
  0
LINE
  5
41
  8
0
 62
     0
 10
86.3286
 20
108.335
 30
0.0
 11
86.5628
 21
108.307
 31
0.0
  0
LINE
  5
42
  8
0
 62
     0
 10
86.5628
 20
108.307
 30
0.0
 11
86.7943
 21
108.262
 31
0.0
  0
LINE
  5
43
  8
0
 62
     0
 10
86.7943
 20
108.262
 30
0.0
 11
87.0204
 21
108.197
 31
0.0
  0
LINE
  5
44
  8
0
 62
     0
 10
87.0204
 20
108.197
 30
0.0
 11
87.2423
 21
108.115
 31
0.0
  0
LINE
  5
45
  8
0
 62
     0
 10
87.2423
 20
108.115
 30
0.0
 11
87.4543
 21
108.017
 31
0.0
  0
LINE
  5
46
  8
0
 62
     0
 10
87.4543
 20
108.017
 30
0.0
 11
87.661
 21
107.9
 31
0.0
  0
LINE
  5
47
  8
0
 62
     0
 10
87.661
 20
107.9
 30
0.0
 11
87.8568
 21
107.771
 31
0.0
  0
LINE
  5
48
  8
0
 62
     0
 10
87.8568
 20
107.771
 30
0.0
 11
88.0413
 21
107.625
 31
0.0
  0
LINE
  5
49
  8
0
 62
     0
 10
88.0413
 20
107.625
 30
0.0
 11
88.2153
 21
107.465
 31
0.0
  0
LINE
  5
4A
  8
0
 62
     0
 10
88.2153
 20
107.465
 30
0.0
 11
88.3751
 21
107.293
 31
0.0
  0
LINE
  5
4B
  8
0
 62
     0
 10
88.3751
 20
107.293
 30
0.0
 11
88.5211
 21
107.107
 31
0.0
  0
LINE
  5
4C
  8
0
 62
     0
 10
88.5211
 20
107.107
 30
0.0
 11
88.6506
 21
106.911
 31
0.0
  0
LINE
  5
4D
  8
0
 62
     0
 10
88.6506
 20
106.911
 30
0.0
 11
88.7663
 21
106.706
 31
0.0
  0
LINE
  5
4E
  8
0
 62
     0
 10
88.7663
 20
106.706
 30
0.0
 11
88.864
 21
106.492
 31
0.0
  0
LINE
  5
4F
  8
0
 62
     0
 10
88.864
 20
106.492
 30
0.0
 11
88.9469
 21
106.271
 31
0.0
  0
LINE
  5
50
  8
0
 62
     0
 10
88.9469
 20
106.271
 30
0.0
 11
89.0104
 21
106.044
 31
0.0
  0
LINE
  5
51
  8
0
 62
     0
 10
89.0104
 20
106.044
 30
0.0
 11
89.057
 21
105.813
 31
0.0
  0
LINE
  5
52
  8
0
 62
     0
 10
89.057
 20
105.813
 30
0.0
 11
89.0834
 21
105.578
 31
0.0
  0
LINE
  5
53
  8
0
 62
     0
 10
89.0834
 20
105.578
 30
0.0
 11
89.0944
 21
105.343
 31
0.0
  0
LINE
  5
54
  8
0
 62
     0
 10
89.0944
 20
105.343
 30
0.0
 11
89.0944
 21
3.09232
 31
0.0
  0
LINE
  5
55
  8
0
 62
     0
 10
89.0944
 20
3.09232
 30
0.0
 11
89.0834
 21
2.85667
 31
0.0
  0
LINE
  5
56
  8
0
 62
     0
 10
89.0834
 20
2.85667
 30
0.0
 11
89.057
 21
2.62241
 31
0.0
  0
LINE
  5
57
  8
0
 62
     0
 10
89.057
 20
2.62241
 30
0.0
 11
89.0104
 21
2.39227
 31
0.0
  0
LINE
  5
58
  8
0
 62
     0
 10
89.0104
 20
2.39227
 30
0.0
 11
88.9469
 21
2.1649
 31
0.0
  0
LINE
  5
59
  8
0
 62
     0
 10
88.9469
 20
2.1649
 30
0.0
 11
88.864
 21
1.94441
 31
0.0
  0
LINE
  5
5A
  8
0
 62
     0
 10
88.864
 20
1.94441
 30
0.0
 11
88.7663
 21
1.73082
 31
0.0
  0
LINE
  5
5B
  8
0
 62
     0
 10
88.7663
 20
1.73082
 30
0.0
 11
88.6506
 21
1.52549
 31
0.0
  0
LINE
  5
5C
  8
0
 62
     0
 10
88.6506
 20
1.52549
 30
0.0
 11
88.5211
 21
1.32843
 31
0.0
  0
LINE
  5
5D
  8
0
 62
     0
 10
88.5211
 20
1.32843
 30
0.0
 11
88.3751
 21
1.14377
 31
0.0
  0
LINE
  5
5E
  8
0
 62
     0
 10
88.3751
 20
1.14377
 30
0.0
 11
88.2153
 21
0.971518
 31
0.0
  0
LINE
  5
5F
  8
0
 62
     0
 10
88.2153
 20
0.971518
 30
0.0
 11
88.0413
 21
0.811664
 31
0.0
  0
LINE
  5
60
  8
0
 62
     0
 10
88.0413
 20
0.811664
 30
0.0
 11
87.8568
 21
0.665593
 31
0.0
  0
LINE
  5
61
  8
0
 62
     0
 10
87.8568
 20
0.665593
 30
0.0
 11
87.661
 21
0.534681
 31
0.0
  0
LINE
  5
62
  8
0
 62
     0
 10
87.661
 20
0.534681
 30
0.0
 11
87.4543
 21
0.418924
 31
0.0
  0
LINE
  5
63
  8
0
 62
     0
 10
87.4543
 20
0.418924
 30
0.0
 11
87.2423
 21
0.321083
 31
0.0
  0
LINE
  5
64
  8
0
 62
     0
 10
87.2423
 20
0.321083
 30
0.0
 11
87.0204
 21
0.238401
 31
0.0
  0
LINE
  5
65
  8
0
 62
     0
 10
87.0204
 20
0.238401
 30
0.0
 11
86.7943
 21
0.175011
 31
0.0
  0
LINE
  5
66
  8
0
 62
     0
 10
86.7943
 20
0.175011
 30
0.0
 11
86.5628
 21
0.129536
 31
0.0
  0
LINE
  5
67
  8
0
 62
     0
 10
86.5628
 20
0.129536
 30
0.0
 11
86.3286
 21
0.101975
 31
0.0
  0
LINE
  5
68
  8
0
 62
     0
 10
86.3286
 20
0.101975
 30
0.0
 11
86.0929
 21
0.0923286
 31
0.0
  0
LINE
  5
69
  8
0
 62
     0
 10
86.0929
 20
0.0923286
 30
0.0
 11
3.09507
 21
0.0923286
 31
0.0
  0
LINE
  5
6A
  8
0
 62
     0
 10
3.09507
 20
0.0923286
 30
0.0
 11
2.85943
 21
0.101975
 31
0.0
  0
LINE
  5
6B
  8
0
 62
     0
 10
2.85943
 20
0.101975
 30
0.0
 11
2.62516
 21
0.129536
 31
0.0
  0
LINE
  5
6C
  8
0
 62
     0
 10
2.62516
 20
0.129536
 30
0.0
 11
2.39365
 21
0.175011
 31
0.0
  0
LINE
  5
6D
  8
0
 62
     0
 10
2.39365
 20
0.175011
 30
0.0
 11
2.16628
 21
0.238401
 31
0.0
  0
LINE
  5
6E
  8
0
 62
     0
 10
2.16628
 20
0.238401
 30
0.0
 11
1.94579
 21
0.321083
 31
0.0
  0
LINE
  5
6F
  8
0
 62
     0
 10
1.94579
 20
0.321083
 30
0.0
 11
1.7322
 21
0.418924
 31
0.0
  0
LINE
  5
70
  8
0
 62
     0
 10
1.7322
 20
0.418924
 30
0.0
 11
1.52687
 21
0.534681
 31
0.0
  0
LINE
  5
71
  8
0
 62
     0
 10
1.52687
 20
0.534681
 30
0.0
 11
1.33119
 21
0.665593
 31
0.0
  0
LINE
  5
72
  8
0
 62
     0
 10
1.33119
 20
0.665593
 30
0.0
 11
1.14515
 21
0.811664
 31
0.0
  0
LINE
  5
73
  8
0
 62
     0
 10
1.14515
 20
0.811664
 30
0.0
 11
0.972894
 21
0.971518
 31
0.0
  0
LINE
  5
74
  8
0
 62
     0
 10
0.972894
 20
0.971518
 30
0.0
 11
0.813043
 21
1.14377
 31
0.0
  0
LINE
  5
75
  8
0
 62
     0
 10
0.813043
 20
1.14377
 30
0.0
 11
0.666972
 21
1.32843
 31
0.0
  0
LINE
  5
76
  8
0
 62
     0
 10
0.666972
 20
1.32843
 30
0.0
 11
0.537436
 21
1.52549
 31
0.0
  0
LINE
  5
77
  8
0
 62
     0
 10
0.537436
 20
1.52549
 30
0.0
 11
0.420303
 21
1.73082
 31
0.0
  0
LINE
  5
78
  8
0
 62
     0
 10
0.420303
 20
1.73082
 30
0.0
 11
0.322461
 21
1.94441
 31
0.0
  0
LINE
  5
79
  8
0
 62
     0
 10
0.322461
 20
1.94441
 30
0.0
 11
0.241157
 21
2.1649
 31
0.0
  0
LINE
  5
7A
  8
0
 62
     0
 10
0.241157
 20
2.1649
 30
0.0
 11
0.176389
 21
2.39227
 31
0.0
  0
LINE
  5
7B
  8
0
 62
     0
 10
0.176389
 20
2.39227
 30
0.0
 11
0.130914
 21
2.62241
 31
0.0
  0
LINE
  5
7C
  8
0
 62
     0
 10
0.130914
 20
2.62241
 30
0.0
 11
0.103353
 21
2.85667
 31
0.0
  0
LINE
  5
7D
  8
0
 62
     0
 10
0.103353
 20
2.85667
 30
0.0
 11
0.0937066
 21
3.09232
 31
0.0
  0
LINE
  5
7E
  8
0
 62
     0
 10
0.0937066
 20
3.09232
 30
0.0
 11
0.0950846
 21
105.343
 31
0.0
  0
LINE
  5
7F
  8
0
 62
     0
 10
0.0950846
 20
105.343
 30
0.0
 11
0.103353
 21
105.578
 31
0.0
  0
LINE
  5
80
  8
0
 62
     0
 10
0.103353
 20
105.578
 30
0.0
 11
0.130914
 21
105.813
 31
0.0
  0
LINE
  5
81
  8
0
 62
     0
 10
0.130914
 20
105.813
 30
0.0
 11
0.176389
 21
106.044
 31
0.0
  0
LINE
  5
82
  8
0
 62
     0
 10
0.176389
 20
106.044
 30
0.0
 11
0.241157
 21
106.271
 31
0.0
  0
LINE
  5
83
  8
0
 62
     0
 10
0.241157
 20
106.271
 30
0.0
 11
0.322461
 21
106.492
 31
0.0
  0
LINE
  5
84
  8
0
 62
     0
 10
0.322461
 20
106.492
 30
0.0
 11
0.420303
 21
106.706
 31
0.0
  0
LINE
  5
85
  8
0
 62
     0
 10
0.420303
 20
106.706
 30
0.0
 11
0.537436
 21
106.911
 31
0.0
  0
LINE
  5
86
  8
0
 62
     0
 10
0.537436
 20
106.911
 30
0.0
 11
0.666972
 21
107.107
 31
0.0
  0
LINE
  5
87
  8
0
 62
     0
 10
0.666972
 20
107.107
 30
0.0
 11
0.813043
 21
107.293
 31
0.0
  0
LINE
  5
88
  8
0
 62
     0
 10
0.813043
 20
107.293
 30
0.0
 11
0.972894
 21
107.465
 31
0.0
  0
LINE
  5
89
  8
0
 62
     0
 10
0.972894
 20
107.465
 30
0.0
 11
1.14515
 21
107.625
 31
0.0
  0
LINE
  5
8A
  8
0
 62
     0
 10
1.14515
 20
107.625
 30
0.0
 11
1.33119
 21
107.771
 31
0.0
  0
LINE
  5
8B
  8
0
 62
     0
 10
1.33119
 20
107.771
 30
0.0
 11
1.52687
 21
107.9
 31
0.0
  0
LINE
  5
8C
  8
0
 62
     0
 10
1.52687
 20
107.9
 30
0.0
 11
1.7322
 21
108.017
 31
0.0
  0
LINE
  5
8D
  8
0
 62
     0
 10
1.7322
 20
108.017
 30
0.0
 11
1.94579
 21
108.115
 31
0.0
  0
LINE
  5
8E
  8
0
 62
     0
 10
1.94579
 20
108.115
 30
0.0
 11
2.16628
 21
108.197
 31
0.0
  0
LINE
  5
8F
  8
0
 62
     0
 10
2.16628
 20
108.197
 30
0.0
 11
2.39365
 21
108.262
 31
0.0
  0
LINE
  5
90
  8
0
 62
     0
 10
2.39365
 20
108.262
 30
0.0
 11
2.62516
 21
108.307
 31
0.0
  0
LINE
  5
91
  8
0
 62
     0
 10
2.62516
 20
108.307
 30
0.0
 11
2.85943
 21
108.335
 31
0.0
  0
LINE
  5
92
  8
0
 62
     0
 10
2.85943
 20
108.335
 30
0.0
 11
3.09507
 21
108.344
 31
0.0
  0
LINE
  5
93
  8
0
 62
     0
 10
3.09507
 20
108.344
 30
0.0
 11
86.0944
 21
108.343
 31
0.0
  0
LINE
  5
94
  8
0
 62
     0
 10
3.72576
 20
6.24482
 30
0.0
 11
3.16903
 21
5.96094
 31
0.0
  0
LINE
  5
95
  8
0
 62
     0
 10
3.16903
 20
5.96094
 30
0.0
 11
2.72531
 21
5.51859
 31
0.0
  0
LINE
  5
96
  8
0
 62
     0
 10
2.72531
 20
5.51859
 30
0.0
 11
2.44143
 21
4.96049
 31
0.0
  0
LINE
  5
97
  8
0
 62
     0
 10
2.44143
 20
4.96049
 30
0.0
 11
2.34359
 21
4.34174
 31
0.0
  0
LINE
  5
98
  8
0
 62
     0
 10
2.34359
 20
4.34174
 30
0.0
 11
2.44143
 21
3.72438
 31
0.0
  0
LINE
  5
99
  8
0
 62
     0
 10
2.44143
 20
3.72438
 30
0.0
 11
2.72531
 21
3.16765
 31
0.0
  0
LINE
  5
9A
  8
0
 62
     0
 10
2.72531
 20
3.16765
 30
0.0
 11
3.16903
 21
2.72393
 31
0.0
  0
LINE
  5
9B
  8
0
 62
     0
 10
3.16903
 20
2.72393
 30
0.0
 11
3.72576
 21
2.44005
 31
0.0
  0
LINE
  5
9C
  8
0
 62
     0
 10
3.72576
 20
2.44005
 30
0.0
 11
4.3445
 21
2.34221
 31
0.0
  0
LINE
  5
9D
  8
0
 62
     0
 10
4.3445
 20
2.34221
 30
0.0
 11
4.96325
 21
2.44005
 31
0.0
  0
LINE
  5
9E
  8
0
 62
     0
 10
4.96325
 20
2.44005
 30
0.0
 11
5.51997
 21
2.72393
 31
0.0
  0
LINE
  5
9F
  8
0
 62
     0
 10
5.51997
 20
2.72393
 30
0.0
 11
5.96231
 21
3.16765
 31
0.0
  0
LINE
  5
A0
  8
0
 62
     0
 10
5.96231
 20
3.16765
 30
0.0
 11
6.24619
 21
3.72438
 31
0.0
  0
LINE
  5
A1
  8
0
 62
     0
 10
6.24619
 20
3.72438
 30
0.0
 11
6.34539
 21
4.34174
 31
0.0
  0
LINE
  5
A2
  8
0
 62
     0
 10
6.34539
 20
4.34174
 30
0.0
 11
6.24619
 21
4.96049
 31
0.0
  0
LINE
  5
A3
  8
0
 62
     0
 10
6.24619
 20
4.96049
 30
0.0
 11
5.96231
 21
5.51859
 31
0.0
  0
LINE
  5
A4
  8
0
 62
     0
 10
5.96231
 20
5.51859
 30
0.0
 11
5.51997
 21
5.96094
 31
0.0
  0
LINE
  5
A5
  8
0
 62
     0
 10
5.51997
 20
5.96094
 30
0.0
 11
4.96325
 21
6.24482
 31
0.0
  0
LINE
  5
A6
  8
0
 62
     0
 10
4.96325
 20
6.24482
 30
0.0
 11
4.3445
 21
6.34264
 31
0.0
  0
LINE
  5
A7
  8
0
 62
     0
 10
4.3445
 20
6.34264
 30
0.0
 11
3.72576
 21
6.24482
 31
0.0
  0
LINE
  5
A8
  8
0
 62
     0
 10
84.2248
 20
6.24482
 30
0.0
 11
83.6681
 21
5.96094
 31
0.0
  0
LINE
  5
A9
  8
0
 62
     0
 10
83.6681
 20
5.96094
 30
0.0
 11
83.2243
 21
5.51859
 31
0.0
  0
LINE
  5
AA
  8
0
 62
     0
 10
83.2243
 20
5.51859
 30
0.0
 11
82.9403
 21
4.96049
 31
0.0
  0
LINE
  5
AB
  8
0
 62
     0
 10
82.9403
 20
4.96049
 30
0.0
 11
82.844
 21
4.34174
 31
0.0
  0
LINE
  5
AC
  8
0
 62
     0
 10
82.844
 20
4.34174
 30
0.0
 11
82.9403
 21
3.72438
 31
0.0
  0
LINE
  5
AD
  8
0
 62
     0
 10
82.9403
 20
3.72438
 30
0.0
 11
83.2243
 21
3.16765
 31
0.0
  0
LINE
  5
AE
  8
0
 62
     0
 10
83.2243
 20
3.16765
 30
0.0
 11
83.6681
 21
2.72393
 31
0.0
  0
LINE
  5
AF
  8
0
 62
     0
 10
83.6681
 20
2.72393
 30
0.0
 11
84.2248
 21
2.44005
 31
0.0
  0
LINE
  5
B0
  8
0
 62
     0
 10
84.2248
 20
2.44005
 30
0.0
 11
84.8435
 21
2.34221
 31
0.0
  0
LINE
  5
B1
  8
0
 62
     0
 10
84.8435
 20
2.34221
 30
0.0
 11
85.4623
 21
2.44005
 31
0.0
  0
LINE
  5
B2
  8
0
 62
     0
 10
85.4623
 20
2.44005
 30
0.0
 11
86.019
 21
2.72393
 31
0.0
  0
LINE
  5
B3
  8
0
 62
     0
 10
86.019
 20
2.72393
 30
0.0
 11
86.4614
 21
3.16765
 31
0.0
  0
LINE
  5
B4
  8
0
 62
     0
 10
86.4614
 20
3.16765
 30
0.0
 11
86.7454
 21
3.72438
 31
0.0
  0
LINE
  5
B5
  8
0
 62
     0
 10
86.7454
 20
3.72438
 30
0.0
 11
86.8445
 21
4.34174
 31
0.0
  0
LINE
  5
B6
  8
0
 62
     0
 10
86.8445
 20
4.34174
 30
0.0
 11
86.7454
 21
4.96049
 31
0.0
  0
LINE
  5
B7
  8
0
 62
     0
 10
86.7454
 20
4.96049
 30
0.0
 11
86.4614
 21
5.51859
 31
0.0
  0
LINE
  5
B8
  8
0
 62
     0
 10
86.4614
 20
5.51859
 30
0.0
 11
86.019
 21
5.96094
 31
0.0
  0
LINE
  5
B9
  8
0
 62
     0
 10
86.019
 20
5.96094
 30
0.0
 11
85.4623
 21
6.24482
 31
0.0
  0
LINE
  5
BA
  8
0
 62
     0
 10
85.4623
 20
6.24482
 30
0.0
 11
84.8435
 21
6.34264
 31
0.0
  0
LINE
  5
BB
  8
0
 62
     0
 10
84.8435
 20
6.34264
 30
0.0
 11
84.2248
 21
6.24482
 31
0.0
  0
LINE
  5
BC
  8
0
 62
     0
 10
11.9931
 20
24.0881
 30
0.0
 11
11.9931
 21
22.8878
 31
0.0
  0
LINE
  5
BD
  8
0
 62
     0
 10
11.9931
 20
22.8878
 30
0.0
 11
10.2691
 21
22.8878
 31
0.0
  0
LINE
  5
BE
  8
0
 62
     0
 10
10.2691
 20
22.8878
 30
0.0
 11
10.2691
 21
16.6178
 31
0.0
  0
LINE
  5
BF
  8
0
 62
     0
 10
10.2691
 20
16.6178
 30
0.0
 11
9.44369
 21
16.6178
 31
0.0
  0
LINE
  5
C0
  8
0
 62
     0
 10
9.44369
 20
16.6178
 30
0.0
 11
9.44369
 21
13.8176
 31
0.0
  0
LINE
  5
C1
  8
0
 62
     0
 10
9.44369
 20
13.8176
 30
0.0
 11
10.2691
 21
13.8176
 31
0.0
  0
LINE
  5
C2
  8
0
 62
     0
 10
10.2691
 20
13.8176
 30
0.0
 11
10.2691
 21
10.5875
 31
0.0
  0
LINE
  5
C3
  8
0
 62
     0
 10
10.2691
 20
10.5875
 30
0.0
 11
17.0188
 21
10.5875
 31
0.0
  0
LINE
  5
C4
  8
0
 62
     0
 10
17.0188
 20
10.5875
 30
0.0
 11
17.0188
 21
13.8176
 31
0.0
  0
LINE
  5
C5
  8
0
 62
     0
 10
17.0188
 20
13.8176
 30
0.0
 11
18.5443
 21
13.8176
 31
0.0
  0
LINE
  5
C6
  8
0
 62
     0
 10
18.5443
 20
13.8176
 30
0.0
 11
18.5443
 21
13.2182
 31
0.0
  0
LINE
  5
C7
  8
0
 62
     0
 10
18.5443
 20
13.2182
 30
0.0
 11
17.7436
 21
13.2182
 31
0.0
  0
LINE
  5
C8
  8
0
 62
     0
 10
17.7436
 20
13.2182
 30
0.0
 11
17.7436
 21
10.1176
 31
0.0
  0
LINE
  5
C9
  8
0
 62
     0
 10
17.7436
 20
10.1176
 30
0.0
 11
18.5443
 21
10.1176
 31
0.0
  0
LINE
  5
CA
  8
0
 62
     0
 10
18.5443
 20
10.1176
 30
0.0
 11
18.5443
 21
9.11849
 31
0.0
  0
LINE
  5
CB
  8
0
 62
     0
 10
18.5443
 20
9.11849
 30
0.0
 11
32.5438
 21
9.11849
 31
0.0
  0
LINE
  5
CC
  8
0
 62
     0
 10
32.5438
 20
9.11849
 30
0.0
 11
32.5438
 21
10.1176
 31
0.0
  0
LINE
  5
CD
  8
0
 62
     0
 10
32.5438
 20
10.1176
 30
0.0
 11
33.3444
 21
10.1176
 31
0.0
  0
LINE
  5
CE
  8
0
 62
     0
 10
33.3444
 20
10.1176
 30
0.0
 11
33.3444
 21
13.2182
 31
0.0
  0
LINE
  5
CF
  8
0
 62
     0
 10
33.3444
 20
13.2182
 30
0.0
 11
32.5438
 21
13.2182
 31
0.0
  0
LINE
  5
D0
  8
0
 62
     0
 10
32.5438
 20
13.2182
 30
0.0
 11
32.5438
 21
13.8176
 31
0.0
  0
LINE
  5
D1
  8
0
 62
     0
 10
32.5438
 20
13.8176
 30
0.0
 11
34.0692
 21
13.8176
 31
0.0
  0
LINE
  5
D2
  8
0
 62
     0
 10
34.0692
 20
13.8176
 30
0.0
 11
34.0692
 21
10.5875
 31
0.0
  0
LINE
  5
D3
  8
0
 62
     0
 10
34.0692
 20
10.5875
 30
0.0
 11
40.8189
 21
10.5875
 31
0.0
  0
LINE
  5
D4
  8
0
 62
     0
 10
40.8189
 20
10.5875
 30
0.0
 11
40.8189
 21
13.8176
 31
0.0
  0
LINE
  5
D5
  8
0
 62
     0
 10
40.8189
 20
13.8176
 30
0.0
 11
41.6444
 21
13.8176
 31
0.0
  0
LINE
  5
D6
  8
0
 62
     0
 10
41.6444
 20
13.8176
 30
0.0
 11
41.6444
 21
16.6178
 31
0.0
  0
LINE
  5
D7
  8
0
 62
     0
 10
41.6444
 20
16.6178
 30
0.0
 11
40.8189
 21
16.6178
 31
0.0
  0
LINE
  5
D8
  8
0
 62
     0
 10
40.8189
 20
16.6178
 30
0.0
 11
40.8189
 21
22.8878
 31
0.0
  0
LINE
  5
D9
  8
0
 62
     0
 10
40.8189
 20
22.8878
 30
0.0
 11
39.0934
 21
22.8878
 31
0.0
  0
LINE
  5
DA
  8
0
 62
     0
 10
39.0934
 20
22.8878
 30
0.0
 11
39.0934
 21
24.0881
 31
0.0
  0
LINE
  5
DB
  8
0
 62
     0
 10
39.0934
 20
24.0881
 30
0.0
 11
35.7932
 21
24.0881
 31
0.0
  0
LINE
  5
DC
  8
0
 62
     0
 10
35.7932
 20
24.0881
 30
0.0
 11
35.7932
 21
22.8878
 31
0.0
  0
LINE
  5
DD
  8
0
 62
     0
 10
35.7932
 20
22.8878
 30
0.0
 11
34.0692
 21
22.8878
 31
0.0
  0
LINE
  5
DE
  8
0
 62
     0
 10
34.0692
 20
22.8878
 30
0.0
 11
34.0692
 21
18.4175
 31
0.0
  0
LINE
  5
DF
  8
0
 62
     0
 10
34.0692
 20
18.4175
 30
0.0
 11
32.5438
 21
18.4175
 31
0.0
  0
LINE
  5
E0
  8
0
 62
     0
 10
32.5438
 20
18.4175
 30
0.0
 11
32.5438
 21
19.0183
 31
0.0
  0
LINE
  5
E1
  8
0
 62
     0
 10
32.5438
 20
19.0183
 30
0.0
 11
33.3444
 21
19.0183
 31
0.0
  0
LINE
  5
E2
  8
0
 62
     0
 10
33.3444
 20
19.0183
 30
0.0
 11
33.3444
 21
22.1175
 31
0.0
  0
LINE
  5
E3
  8
0
 62
     0
 10
33.3444
 20
22.1175
 30
0.0
 11
32.5438
 21
22.1175
 31
0.0
  0
LINE
  5
E4
  8
0
 62
     0
 10
32.5438
 20
22.1175
 30
0.0
 11
32.5438
 21
23.118
 31
0.0
  0
LINE
  5
E5
  8
0
 62
     0
 10
32.5438
 20
23.118
 30
0.0
 11
18.5443
 21
23.118
 31
0.0
  0
LINE
  5
E6
  8
0
 62
     0
 10
18.5443
 20
23.118
 30
0.0
 11
18.5443
 21
22.1175
 31
0.0
  0
LINE
  5
E7
  8
0
 62
     0
 10
18.5443
 20
22.1175
 30
0.0
 11
17.7436
 21
22.1175
 31
0.0
  0
LINE
  5
E8
  8
0
 62
     0
 10
17.7436
 20
22.1175
 30
0.0
 11
17.7436
 21
19.0183
 31
0.0
  0
LINE
  5
E9
  8
0
 62
     0
 10
17.7436
 20
19.0183
 30
0.0
 11
18.5443
 21
19.0183
 31
0.0
  0
LINE
  5
EA
  8
0
 62
     0
 10
18.5443
 20
19.0183
 30
0.0
 11
18.5443
 21
18.4175
 31
0.0
  0
LINE
  5
EB
  8
0
 62
     0
 10
18.5443
 20
18.4175
 30
0.0
 11
17.0188
 21
18.4175
 31
0.0
  0
LINE
  5
EC
  8
0
 62
     0
 10
17.0188
 20
18.4175
 30
0.0
 11
17.0188
 21
22.8878
 31
0.0
  0
LINE
  5
ED
  8
0
 62
     0
 10
17.0188
 20
22.8878
 30
0.0
 11
15.2935
 21
22.8878
 31
0.0
  0
LINE
  5
EE
  8
0
 62
     0
 10
15.2935
 20
22.8878
 30
0.0
 11
15.2921
 21
24.0881
 31
0.0
  0
LINE
  5
EF
  8
0
 62
     0
 10
15.2921
 20
24.0881
 30
0.0
 11
11.9931
 21
24.0881
 31
0.0
  0
LINE
  5
F0
  8
0
 62
     0
 10
47.1191
 20
23.118
 30
0.0
 11
47.1191
 21
22.1175
 31
0.0
  0
LINE
  5
F1
  8
0
 62
     0
 10
47.1191
 20
22.1175
 30
0.0
 11
46.3187
 21
22.1175
 31
0.0
  0
LINE
  5
F2
  8
0
 62
     0
 10
46.3187
 20
22.1175
 30
0.0
 11
46.3187
 21
19.0183
 31
0.0
  0
LINE
  5
F3
  8
0
 62
     0
 10
46.3187
 20
19.0183
 30
0.0
 11
47.1191
 21
19.0183
 31
0.0
  0
LINE
  5
F4
  8
0
 62
     0
 10
47.1191
 20
19.0183
 30
0.0
 11
47.1191
 21
13.2182
 31
0.0
  0
LINE
  5
F5
  8
0
 62
     0
 10
47.1191
 20
13.2182
 30
0.0
 11
46.3187
 21
13.2182
 31
0.0
  0
LINE
  5
F6
  8
0
 62
     0
 10
46.3187
 20
13.2182
 30
0.0
 11
46.3187
 21
10.1176
 31
0.0
  0
LINE
  5
F7
  8
0
 62
     0
 10
46.3187
 20
10.1176
 30
0.0
 11
47.1191
 21
10.1176
 31
0.0
  0
LINE
  5
F8
  8
0
 62
     0
 10
47.1191
 20
10.1176
 30
0.0
 11
47.1191
 21
9.11849
 31
0.0
  0
LINE
  5
F9
  8
0
 62
     0
 10
47.1191
 20
9.11849
 30
0.0
 11
61.1188
 21
9.11849
 31
0.0
  0
LINE
  5
FA
  8
0
 62
     0
 10
61.1188
 20
9.11849
 30
0.0
 11
61.1188
 21
10.1176
 31
0.0
  0
LINE
  5
FB
  8
0
 62
     0
 10
61.1188
 20
10.1176
 30
0.0
 11
61.9196
 21
10.1176
 31
0.0
  0
LINE
  5
FC
  8
0
 62
     0
 10
61.9196
 20
10.1176
 30
0.0
 11
61.9196
 21
13.2182
 31
0.0
  0
LINE
  5
FD
  8
0
 62
     0
 10
61.9196
 20
13.2182
 30
0.0
 11
61.1188
 21
13.2182
 31
0.0
  0
LINE
  5
FE
  8
0
 62
     0
 10
61.1188
 20
13.2182
 30
0.0
 11
61.1188
 21
19.0183
 31
0.0
  0
LINE
  5
FF
  8
0
 62
     0
 10
61.1188
 20
19.0183
 30
0.0
 11
61.9196
 21
19.0183
 31
0.0
  0
LINE
  5
100
  8
0
 62
     0
 10
61.9196
 20
19.0183
 30
0.0
 11
61.9196
 21
22.1175
 31
0.0
  0
LINE
  5
101
  8
0
 62
     0
 10
61.9196
 20
22.1175
 30
0.0
 11
61.1188
 21
22.1175
 31
0.0
  0
LINE
  5
102
  8
0
 62
     0
 10
61.1188
 20
22.1175
 30
0.0
 11
61.1188
 21
23.118
 31
0.0
  0
LINE
  5
103
  8
0
 62
     0
 10
61.1188
 20
23.118
 30
0.0
 11
47.1191
 21
23.118
 31
0.0
  0
LINE
  5
104
  8
0
 62
     0
 10
72.668
 20
41.7435
 30
0.0
 11
72.668
 21
40.918
 31
0.0
  0
LINE
  5
105
  8
0
 62
     0
 10
72.668
 20
40.918
 30
0.0
 11
66.3995
 21
40.918
 31
0.0
  0
LINE
  5
106
  8
0
 62
     0
 10
66.3995
 20
40.918
 30
0.0
 11
66.3995
 21
39.1929
 31
0.0
  0
LINE
  5
107
  8
0
 62
     0
 10
66.3995
 20
39.1929
 30
0.0
 11
65.199
 21
39.1929
 31
0.0
  0
LINE
  5
108
  8
0
 62
     0
 10
65.199
 20
39.1929
 30
0.0
 11
65.199
 21
35.8937
 31
0.0
  0
LINE
  5
109
  8
0
 62
     0
 10
65.199
 20
35.8937
 30
0.0
 11
66.3995
 21
35.8937
 31
0.0
  0
LINE
  5
10A
  8
0
 62
     0
 10
66.3995
 20
35.8937
 30
0.0
 11
66.3995
 21
34.1685
 31
0.0
  0
LINE
  5
10B
  8
0
 62
     0
 10
66.3995
 20
34.1685
 30
0.0
 11
70.8685
 21
34.1685
 31
0.0
  0
LINE
  5
10C
  8
0
 62
     0
 10
70.8685
 20
34.1685
 30
0.0
 11
70.8685
 21
32.643
 31
0.0
  0
LINE
  5
10D
  8
0
 62
     0
 10
70.8685
 20
32.643
 30
0.0
 11
70.2677
 21
32.643
 31
0.0
  0
LINE
  5
10E
  8
0
 62
     0
 10
70.2677
 20
32.643
 30
0.0
 11
70.2677
 21
33.4436
 31
0.0
  0
LINE
  5
10F
  8
0
 62
     0
 10
70.2677
 20
33.4436
 30
0.0
 11
67.1682
 21
33.4436
 31
0.0
  0
LINE
  5
110
  8
0
 62
     0
 10
67.1682
 20
33.4436
 30
0.0
 11
67.1682
 21
32.643
 31
0.0
  0
LINE
  5
111
  8
0
 62
     0
 10
67.1682
 20
32.643
 30
0.0
 11
66.1691
 21
32.643
 31
0.0
  0
LINE
  5
112
  8
0
 62
     0
 10
66.1691
 20
32.643
 30
0.0
 11
66.1691
 21
18.6435
 31
0.0
  0
LINE
  5
113
  8
0
 62
     0
 10
66.1691
 20
18.6435
 30
0.0
 11
67.1682
 21
18.6435
 31
0.0
  0
LINE
  5
114
  8
0
 62
     0
 10
67.1682
 20
18.6435
 30
0.0
 11
67.1682
 21
17.8428
 31
0.0
  0
LINE
  5
115
  8
0
 62
     0
 10
67.1682
 20
17.8428
 30
0.0
 11
70.2677
 21
17.8428
 31
0.0
  0
LINE
  5
116
  8
0
 62
     0
 10
70.2677
 20
17.8428
 30
0.0
 11
70.2677
 21
18.6435
 31
0.0
  0
LINE
  5
117
  8
0
 62
     0
 10
70.2677
 20
18.6435
 30
0.0
 11
70.8685
 21
18.6435
 31
0.0
  0
LINE
  5
118
  8
0
 62
     0
 10
70.8685
 20
18.6435
 30
0.0
 11
70.8685
 21
17.118
 31
0.0
  0
LINE
  5
119
  8
0
 62
     0
 10
70.8685
 20
17.118
 30
0.0
 11
66.3995
 21
17.118
 31
0.0
  0
LINE
  5
11A
  8
0
 62
     0
 10
66.3995
 20
17.118
 30
0.0
 11
66.3995
 21
15.3927
 31
0.0
  0
LINE
  5
11B
  8
0
 62
     0
 10
66.3995
 20
15.3927
 30
0.0
 11
65.199
 21
15.3927
 31
0.0
  0
LINE
  5
11C
  8
0
 62
     0
 10
65.199
 20
15.3927
 30
0.0
 11
65.199
 21
12.0937
 31
0.0
  0
LINE
  5
11D
  8
0
 62
     0
 10
65.199
 20
12.0937
 30
0.0
 11
66.3995
 21
12.0937
 31
0.0
  0
LINE
  5
11E
  8
0
 62
     0
 10
66.3995
 20
12.0937
 30
0.0
 11
66.3995
 21
10.3684
 31
0.0
  0
LINE
  5
11F
  8
0
 62
     0
 10
66.3995
 20
10.3684
 30
0.0
 11
72.668
 21
10.3684
 31
0.0
  0
LINE
  5
120
  8
0
 62
     0
 10
72.668
 20
10.3684
 30
0.0
 11
72.668
 21
9.54292
 31
0.0
  0
LINE
  5
121
  8
0
 62
     0
 10
72.668
 20
9.54292
 30
0.0
 11
75.4683
 21
9.54292
 31
0.0
  0
LINE
  5
122
  8
0
 62
     0
 10
75.4683
 20
9.54292
 30
0.0
 11
75.4683
 21
10.3684
 31
0.0
  0
LINE
  5
123
  8
0
 62
     0
 10
75.4683
 20
10.3684
 30
0.0
 11
78.6984
 21
10.3684
 31
0.0
  0
LINE
  5
124
  8
0
 62
     0
 10
78.6984
 20
10.3684
 30
0.0
 11
78.6984
 21
17.118
 31
0.0
  0
LINE
  5
125
  8
0
 62
     0
 10
78.6984
 20
17.118
 30
0.0
 11
75.4683
 21
17.118
 31
0.0
  0
LINE
  5
126
  8
0
 62
     0
 10
75.4683
 20
17.118
 30
0.0
 11
75.4683
 21
18.6435
 31
0.0
  0
LINE
  5
127
  8
0
 62
     0
 10
75.4683
 20
18.6435
 30
0.0
 11
76.0691
 21
18.6435
 31
0.0
  0
LINE
  5
128
  8
0
 62
     0
 10
76.0691
 20
18.6435
 30
0.0
 11
76.0691
 21
17.8428
 31
0.0
  0
LINE
  5
129
  8
0
 62
     0
 10
76.0691
 20
17.8428
 30
0.0
 11
79.1683
 21
17.8428
 31
0.0
  0
LINE
  5
12A
  8
0
 62
     0
 10
79.1683
 20
17.8428
 30
0.0
 11
79.1683
 21
18.6435
 31
0.0
  0
LINE
  5
12B
  8
0
 62
     0
 10
79.1683
 20
18.6435
 30
0.0
 11
80.1688
 21
18.6435
 31
0.0
  0
LINE
  5
12C
  8
0
 62
     0
 10
80.1688
 20
18.6435
 30
0.0
 11
80.1688
 21
32.643
 31
0.0
  0
LINE
  5
12D
  8
0
 62
     0
 10
80.1688
 20
32.643
 30
0.0
 11
79.1683
 21
32.643
 31
0.0
  0
LINE
  5
12E
  8
0
 62
     0
 10
79.1683
 20
32.643
 30
0.0
 11
79.1683
 21
33.4436
 31
0.0
  0
LINE
  5
12F
  8
0
 62
     0
 10
79.1683
 20
33.4436
 30
0.0
 11
76.0691
 21
33.4436
 31
0.0
  0
LINE
  5
130
  8
0
 62
     0
 10
76.0691
 20
33.4436
 30
0.0
 11
76.0691
 21
32.643
 31
0.0
  0
LINE
  5
131
  8
0
 62
     0
 10
76.0691
 20
32.643
 30
0.0
 11
75.4683
 21
32.643
 31
0.0
  0
LINE
  5
132
  8
0
 62
     0
 10
75.4683
 20
32.643
 30
0.0
 11
75.4683
 21
34.1685
 31
0.0
  0
LINE
  5
133
  8
0
 62
     0
 10
75.4683
 20
34.1685
 30
0.0
 11
78.6984
 21
34.1685
 31
0.0
  0
LINE
  5
134
  8
0
 62
     0
 10
78.6984
 20
34.1685
 30
0.0
 11
78.6984
 21
40.918
 31
0.0
  0
LINE
  5
135
  8
0
 62
     0
 10
78.6984
 20
40.918
 30
0.0
 11
75.4683
 21
40.918
 31
0.0
  0
LINE
  5
136
  8
0
 62
     0
 10
75.4683
 20
40.918
 30
0.0
 11
75.4683
 21
41.7435
 31
0.0
  0
LINE
  5
137
  8
0
 62
     0
 10
75.4683
 20
41.7435
 30
0.0
 11
72.668
 21
41.7435
 31
0.0
  0
LINE
  5
138
  8
0
 62
     0
 10
9.01926
 20
42.1679
 30
0.0
 11
9.01926
 21
41.1674
 31
0.0
  0
LINE
  5
139
  8
0
 62
     0
 10
9.01926
 20
41.1674
 30
0.0
 11
8.21725
 21
41.1674
 31
0.0
  0
LINE
  5
13A
  8
0
 62
     0
 10
8.21725
 20
41.1674
 30
0.0
 11
8.21725
 21
38.0683
 31
0.0
  0
LINE
  5
13B
  8
0
 62
     0
 10
8.21725
 20
38.0683
 30
0.0
 11
9.01926
 21
38.0683
 31
0.0
  0
LINE
  5
13C
  8
0
 62
     0
 10
9.01926
 20
38.0683
 30
0.0
 11
9.01926
 21
32.2682
 31
0.0
  0
LINE
  5
13D
  8
0
 62
     0
 10
9.01926
 20
32.2682
 30
0.0
 11
8.21725
 21
32.2682
 31
0.0
  0
LINE
  5
13E
  8
0
 62
     0
 10
8.21725
 20
32.2682
 30
0.0
 11
8.21725
 21
29.1676
 31
0.0
  0
LINE
  5
13F
  8
0
 62
     0
 10
8.21725
 20
29.1676
 30
0.0
 11
9.01926
 21
29.1676
 31
0.0
  0
LINE
  5
140
  8
0
 62
     0
 10
9.01926
 20
29.1676
 30
0.0
 11
9.01926
 21
28.1685
 31
0.0
  0
LINE
  5
141
  8
0
 62
     0
 10
9.01926
 20
28.1685
 30
0.0
 11
23.0188
 21
28.1685
 31
0.0
  0
LINE
  5
142
  8
0
 62
     0
 10
23.0188
 20
28.1685
 30
0.0
 11
23.0188
 21
29.1676
 31
0.0
  0
LINE
  5
143
  8
0
 62
     0
 10
23.0188
 20
29.1676
 30
0.0
 11
23.8194
 21
29.1676
 31
0.0
  0
LINE
  5
144
  8
0
 62
     0
 10
23.8194
 20
29.1676
 30
0.0
 11
23.8194
 21
32.2682
 31
0.0
  0
LINE
  5
145
  8
0
 62
     0
 10
23.8194
 20
32.2682
 30
0.0
 11
23.0188
 21
32.2682
 31
0.0
  0
LINE
  5
146
  8
0
 62
     0
 10
23.0188
 20
32.2682
 30
0.0
 11
23.0188
 21
38.0683
 31
0.0
  0
LINE
  5
147
  8
0
 62
     0
 10
23.0188
 20
38.0683
 30
0.0
 11
23.8194
 21
38.0683
 31
0.0
  0
LINE
  5
148
  8
0
 62
     0
 10
23.8194
 20
38.0683
 30
0.0
 11
23.8194
 21
41.1674
 31
0.0
  0
LINE
  5
149
  8
0
 62
     0
 10
23.8194
 20
41.1674
 30
0.0
 11
23.0188
 21
41.1674
 31
0.0
  0
LINE
  5
14A
  8
0
 62
     0
 10
23.0188
 20
41.1674
 30
0.0
 11
23.0188
 21
42.1679
 31
0.0
  0
LINE
  5
14B
  8
0
 62
     0
 10
23.0188
 20
42.1679
 30
0.0
 11
9.01926
 21
42.1679
 31
0.0
  0
LINE
  5
14C
  8
0
 62
     0
 10
28.0693
 20
42.1679
 30
0.0
 11
28.0693
 21
41.1674
 31
0.0
  0
LINE
  5
14D
  8
0
 62
     0
 10
28.0693
 20
41.1674
 30
0.0
 11
27.2686
 21
41.1674
 31
0.0
  0
LINE
  5
14E
  8
0
 62
     0
 10
27.2686
 20
41.1674
 30
0.0
 11
27.2686
 21
38.0683
 31
0.0
  0
LINE
  5
14F
  8
0
 62
     0
 10
27.2686
 20
38.0683
 30
0.0
 11
28.0693
 21
38.0683
 31
0.0
  0
LINE
  5
150
  8
0
 62
     0
 10
28.0693
 20
38.0683
 30
0.0
 11
28.0693
 21
32.2682
 31
0.0
  0
LINE
  5
151
  8
0
 62
     0
 10
28.0693
 20
32.2682
 30
0.0
 11
27.2686
 21
32.2682
 31
0.0
  0
LINE
  5
152
  8
0
 62
     0
 10
27.2686
 20
32.2682
 30
0.0
 11
27.2686
 21
29.1676
 31
0.0
  0
LINE
  5
153
  8
0
 62
     0
 10
27.2686
 20
29.1676
 30
0.0
 11
28.0693
 21
29.1676
 31
0.0
  0
LINE
  5
154
  8
0
 62
     0
 10
28.0693
 20
29.1676
 30
0.0
 11
28.0693
 21
28.1685
 31
0.0
  0
LINE
  5
155
  8
0
 62
     0
 10
28.0693
 20
28.1685
 30
0.0
 11
42.0688
 21
28.1685
 31
0.0
  0
LINE
  5
156
  8
0
 62
     0
 10
42.0688
 20
28.1685
 30
0.0
 11
42.0688
 21
29.1676
 31
0.0
  0
LINE
  5
157
  8
0
 62
     0
 10
42.0688
 20
29.1676
 30
0.0
 11
42.8696
 21
29.1676
 31
0.0
  0
LINE
  5
158
  8
0
 62
     0
 10
42.8696
 20
29.1676
 30
0.0
 11
42.8696
 21
32.2682
 31
0.0
  0
LINE
  5
159
  8
0
 62
     0
 10
42.8696
 20
32.2682
 30
0.0
 11
42.0688
 21
32.2682
 31
0.0
  0
LINE
  5
15A
  8
0
 62
     0
 10
42.0688
 20
32.2682
 30
0.0
 11
42.0688
 21
38.0683
 31
0.0
  0
LINE
  5
15B
  8
0
 62
     0
 10
42.0688
 20
38.0683
 30
0.0
 11
42.8696
 21
38.0683
 31
0.0
  0
LINE
  5
15C
  8
0
 62
     0
 10
42.8696
 20
38.0683
 30
0.0
 11
42.8696
 21
41.1674
 31
0.0
  0
LINE
  5
15D
  8
0
 62
     0
 10
42.8696
 20
41.1674
 30
0.0
 11
42.0688
 21
41.1674
 31
0.0
  0
LINE
  5
15E
  8
0
 62
     0
 10
42.0688
 20
41.1674
 30
0.0
 11
42.0688
 21
42.1679
 31
0.0
  0
LINE
  5
15F
  8
0
 62
     0
 10
42.0688
 20
42.1679
 30
0.0
 11
28.0693
 21
42.1679
 31
0.0
  0
LINE
  5
160
  8
0
 62
     0
 10
47.1191
 20
42.1679
 30
0.0
 11
47.1191
 21
41.1674
 31
0.0
  0
LINE
  5
161
  8
0
 62
     0
 10
47.1191
 20
41.1674
 30
0.0
 11
46.3187
 21
41.1674
 31
0.0
  0
LINE
  5
162
  8
0
 62
     0
 10
46.3187
 20
41.1674
 30
0.0
 11
46.3187
 21
38.0683
 31
0.0
  0
LINE
  5
163
  8
0
 62
     0
 10
46.3187
 20
38.0683
 30
0.0
 11
47.1191
 21
38.0683
 31
0.0
  0
LINE
  5
164
  8
0
 62
     0
 10
47.1191
 20
38.0683
 30
0.0
 11
47.1191
 21
32.2682
 31
0.0
  0
LINE
  5
165
  8
0
 62
     0
 10
47.1191
 20
32.2682
 30
0.0
 11
46.3187
 21
32.2682
 31
0.0
  0
LINE
  5
166
  8
0
 62
     0
 10
46.3187
 20
32.2682
 30
0.0
 11
46.3187
 21
29.1676
 31
0.0
  0
LINE
  5
167
  8
0
 62
     0
 10
46.3187
 20
29.1676
 30
0.0
 11
47.1191
 21
29.1676
 31
0.0
  0
LINE
  5
168
  8
0
 62
     0
 10
47.1191
 20
29.1676
 30
0.0
 11
47.1191
 21
28.1685
 31
0.0
  0
LINE
  5
169
  8
0
 62
     0
 10
47.1191
 20
28.1685
 30
0.0
 11
61.1188
 21
28.1685
 31
0.0
  0
LINE
  5
16A
  8
0
 62
     0
 10
61.1188
 20
28.1685
 30
0.0
 11
61.1188
 21
29.1676
 31
0.0
  0
LINE
  5
16B
  8
0
 62
     0
 10
61.1188
 20
29.1676
 30
0.0
 11
61.9196
 21
29.1676
 31
0.0
  0
LINE
  5
16C
  8
0
 62
     0
 10
61.9196
 20
29.1676
 30
0.0
 11
61.9196
 21
32.2682
 31
0.0
  0
LINE
  5
16D
  8
0
 62
     0
 10
61.9196
 20
32.2682
 30
0.0
 11
61.1188
 21
32.2682
 31
0.0
  0
LINE
  5
16E
  8
0
 62
     0
 10
61.1188
 20
32.2682
 30
0.0
 11
61.1188
 21
38.0683
 31
0.0
  0
LINE
  5
16F
  8
0
 62
     0
 10
61.1188
 20
38.0683
 30
0.0
 11
61.9196
 21
38.0683
 31
0.0
  0
LINE
  5
170
  8
0
 62
     0
 10
61.9196
 20
38.0683
 30
0.0
 11
61.9196
 21
41.1674
 31
0.0
  0
LINE
  5
171
  8
0
 62
     0
 10
61.9196
 20
41.1674
 30
0.0
 11
61.1188
 21
41.1674
 31
0.0
  0
LINE
  5
172
  8
0
 62
     0
 10
61.1188
 20
41.1674
 30
0.0
 11
61.1188
 21
42.1679
 31
0.0
  0
LINE
  5
173
  8
0
 62
     0
 10
61.1188
 20
42.1679
 30
0.0
 11
47.1191
 21
42.1679
 31
0.0
  0
LINE
  5
174
  8
0
 62
     0
 10
9.01926
 20
61.2179
 30
0.0
 11
9.01926
 21
60.2174
 31
0.0
  0
LINE
  5
175
  8
0
 62
     0
 10
9.01926
 20
60.2174
 30
0.0
 11
8.21725
 21
60.2174
 31
0.0
  0
LINE
  5
176
  8
0
 62
     0
 10
8.21725
 20
60.2174
 30
0.0
 11
8.21725
 21
57.1183
 31
0.0
  0
LINE
  5
177
  8
0
 62
     0
 10
8.21725
 20
57.1183
 30
0.0
 11
9.01926
 21
57.1183
 31
0.0
  0
LINE
  5
178
  8
0
 62
     0
 10
9.01926
 20
57.1183
 30
0.0
 11
9.01926
 21
51.3182
 31
0.0
  0
LINE
  5
179
  8
0
 62
     0
 10
9.01926
 20
51.3182
 30
0.0
 11
8.21725
 21
51.3182
 31
0.0
  0
LINE
  5
17A
  8
0
 62
     0
 10
8.21725
 20
51.3182
 30
0.0
 11
8.21725
 21
48.2177
 31
0.0
  0
LINE
  5
17B
  8
0
 62
     0
 10
8.21725
 20
48.2177
 30
0.0
 11
9.01926
 21
48.2177
 31
0.0
  0
LINE
  5
17C
  8
0
 62
     0
 10
9.01926
 20
48.2177
 30
0.0
 11
9.01926
 21
47.2186
 31
0.0
  0
LINE
  5
17D
  8
0
 62
     0
 10
9.01926
 20
47.2186
 30
0.0
 11
23.0188
 21
47.2186
 31
0.0
  0
LINE
  5
17E
  8
0
 62
     0
 10
23.0188
 20
47.2186
 30
0.0
 11
23.0188
 21
48.2177
 31
0.0
  0
LINE
  5
17F
  8
0
 62
     0
 10
23.0188
 20
48.2177
 30
0.0
 11
23.8194
 21
48.2177
 31
0.0
  0
LINE
  5
180
  8
0
 62
     0
 10
23.8194
 20
48.2177
 30
0.0
 11
23.8194
 21
51.3182
 31
0.0
  0
LINE
  5
181
  8
0
 62
     0
 10
23.8194
 20
51.3182
 30
0.0
 11
23.0188
 21
51.3182
 31
0.0
  0
LINE
  5
182
  8
0
 62
     0
 10
23.0188
 20
51.3182
 30
0.0
 11
23.0188
 21
57.1183
 31
0.0
  0
LINE
  5
183
  8
0
 62
     0
 10
23.0188
 20
57.1183
 30
0.0
 11
23.8194
 21
57.1183
 31
0.0
  0
LINE
  5
184
  8
0
 62
     0
 10
23.8194
 20
57.1183
 30
0.0
 11
23.8194
 21
60.2174
 31
0.0
  0
LINE
  5
185
  8
0
 62
     0
 10
23.8194
 20
60.2174
 30
0.0
 11
23.0188
 21
60.2174
 31
0.0
  0
LINE
  5
186
  8
0
 62
     0
 10
23.0188
 20
60.2174
 30
0.0
 11
23.0188
 21
61.2179
 31
0.0
  0
LINE
  5
187
  8
0
 62
     0
 10
23.0188
 20
61.2179
 30
0.0
 11
9.01926
 21
61.2179
 31
0.0
  0
LINE
  5
188
  8
0
 62
     0
 10
28.0693
 20
61.2179
 30
0.0
 11
28.0693
 21
60.2174
 31
0.0
  0
LINE
  5
189
  8
0
 62
     0
 10
28.0693
 20
60.2174
 30
0.0
 11
27.2686
 21
60.2174
 31
0.0
  0
LINE
  5
18A
  8
0
 62
     0
 10
27.2686
 20
60.2174
 30
0.0
 11
27.2686
 21
57.1183
 31
0.0
  0
LINE
  5
18B
  8
0
 62
     0
 10
27.2686
 20
57.1183
 30
0.0
 11
28.0693
 21
57.1183
 31
0.0
  0
LINE
  5
18C
  8
0
 62
     0
 10
28.0693
 20
57.1183
 30
0.0
 11
28.0693
 21
51.3182
 31
0.0
  0
LINE
  5
18D
  8
0
 62
     0
 10
28.0693
 20
51.3182
 30
0.0
 11
27.2686
 21
51.3182
 31
0.0
  0
LINE
  5
18E
  8
0
 62
     0
 10
27.2686
 20
51.3182
 30
0.0
 11
27.2686
 21
48.2177
 31
0.0
  0
LINE
  5
18F
  8
0
 62
     0
 10
27.2686
 20
48.2177
 30
0.0
 11
28.0693
 21
48.2177
 31
0.0
  0
LINE
  5
190
  8
0
 62
     0
 10
28.0693
 20
48.2177
 30
0.0
 11
28.0693
 21
47.2186
 31
0.0
  0
LINE
  5
191
  8
0
 62
     0
 10
28.0693
 20
47.2186
 30
0.0
 11
42.0688
 21
47.2186
 31
0.0
  0
LINE
  5
192
  8
0
 62
     0
 10
42.0688
 20
47.2186
 30
0.0
 11
42.0688
 21
48.2177
 31
0.0
  0
LINE
  5
193
  8
0
 62
     0
 10
42.0688
 20
48.2177
 30
0.0
 11
42.8696
 21
48.2177
 31
0.0
  0
LINE
  5
194
  8
0
 62
     0
 10
42.8696
 20
48.2177
 30
0.0
 11
42.8696
 21
51.3182
 31
0.0
  0
LINE
  5
195
  8
0
 62
     0
 10
42.8696
 20
51.3182
 30
0.0
 11
42.0688
 21
51.3182
 31
0.0
  0
LINE
  5
196
  8
0
 62
     0
 10
42.0688
 20
51.3182
 30
0.0
 11
42.0688
 21
57.1183
 31
0.0
  0
LINE
  5
197
  8
0
 62
     0
 10
42.0688
 20
57.1183
 30
0.0
 11
42.8696
 21
57.1183
 31
0.0
  0
LINE
  5
198
  8
0
 62
     0
 10
42.8696
 20
57.1183
 30
0.0
 11
42.8696
 21
60.2174
 31
0.0
  0
LINE
  5
199
  8
0
 62
     0
 10
42.8696
 20
60.2174
 30
0.0
 11
42.0688
 21
60.2174
 31
0.0
  0
LINE
  5
19A
  8
0
 62
     0
 10
42.0688
 20
60.2174
 30
0.0
 11
42.0688
 21
61.2179
 31
0.0
  0
LINE
  5
19B
  8
0
 62
     0
 10
42.0688
 20
61.2179
 30
0.0
 11
28.0693
 21
61.2179
 31
0.0
  0
LINE
  5
19C
  8
0
 62
     0
 10
47.1191
 20
61.2179
 30
0.0
 11
47.1191
 21
60.2174
 31
0.0
  0
LINE
  5
19D
  8
0
 62
     0
 10
47.1191
 20
60.2174
 30
0.0
 11
46.3187
 21
60.2174
 31
0.0
  0
LINE
  5
19E
  8
0
 62
     0
 10
46.3187
 20
60.2174
 30
0.0
 11
46.3187
 21
57.1183
 31
0.0
  0
LINE
  5
19F
  8
0
 62
     0
 10
46.3187
 20
57.1183
 30
0.0
 11
47.1191
 21
57.1183
 31
0.0
  0
LINE
  5
1A0
  8
0
 62
     0
 10
47.1191
 20
57.1183
 30
0.0
 11
47.1191
 21
51.3182
 31
0.0
  0
LINE
  5
1A1
  8
0
 62
     0
 10
47.1191
 20
51.3182
 30
0.0
 11
46.3187
 21
51.3182
 31
0.0
  0
LINE
  5
1A2
  8
0
 62
     0
 10
46.3187
 20
51.3182
 30
0.0
 11
46.3187
 21
48.2177
 31
0.0
  0
LINE
  5
1A3
  8
0
 62
     0
 10
46.3187
 20
48.2177
 30
0.0
 11
47.1191
 21
48.2177
 31
0.0
  0
LINE
  5
1A4
  8
0
 62
     0
 10
47.1191
 20
48.2177
 30
0.0
 11
47.1191
 21
47.2186
 31
0.0
  0
LINE
  5
1A5
  8
0
 62
     0
 10
47.1191
 20
47.2186
 30
0.0
 11
61.1188
 21
47.2186
 31
0.0
  0
LINE
  5
1A6
  8
0
 62
     0
 10
61.1188
 20
47.2186
 30
0.0
 11
61.1188
 21
48.2177
 31
0.0
  0
LINE
  5
1A7
  8
0
 62
     0
 10
61.1188
 20
48.2177
 30
0.0
 11
61.9196
 21
48.2177
 31
0.0
  0
LINE
  5
1A8
  8
0
 62
     0
 10
61.9196
 20
48.2177
 30
0.0
 11
61.9196
 21
51.3182
 31
0.0
  0
LINE
  5
1A9
  8
0
 62
     0
 10
61.9196
 20
51.3182
 30
0.0
 11
61.1188
 21
51.3182
 31
0.0
  0
LINE
  5
1AA
  8
0
 62
     0
 10
61.1188
 20
51.3182
 30
0.0
 11
61.1188
 21
57.1183
 31
0.0
  0
LINE
  5
1AB
  8
0
 62
     0
 10
61.1188
 20
57.1183
 30
0.0
 11
61.9196
 21
57.1183
 31
0.0
  0
LINE
  5
1AC
  8
0
 62
     0
 10
61.9196
 20
57.1183
 30
0.0
 11
61.9196
 21
60.2174
 31
0.0
  0
LINE
  5
1AD
  8
0
 62
     0
 10
61.9196
 20
60.2174
 30
0.0
 11
61.1188
 21
60.2174
 31
0.0
  0
LINE
  5
1AE
  8
0
 62
     0
 10
61.1188
 20
60.2174
 30
0.0
 11
61.1188
 21
61.2179
 31
0.0
  0
LINE
  5
1AF
  8
0
 62
     0
 10
61.1188
 20
61.2179
 30
0.0
 11
47.1191
 21
61.2179
 31
0.0
  0
LINE
  5
1B0
  8
0
 62
     0
 10
72.668
 20
79.8435
 30
0.0
 11
72.668
 21
79.018
 31
0.0
  0
LINE
  5
1B1
  8
0
 62
     0
 10
72.668
 20
79.018
 30
0.0
 11
66.3995
 21
79.018
 31
0.0
  0
LINE
  5
1B2
  8
0
 62
     0
 10
66.3995
 20
79.018
 30
0.0
 11
66.3995
 21
77.2929
 31
0.0
  0
LINE
  5
1B3
  8
0
 62
     0
 10
66.3995
 20
77.2929
 30
0.0
 11
65.199
 21
77.2929
 31
0.0
  0
LINE
  5
1B4
  8
0
 62
     0
 10
65.199
 20
77.2929
 30
0.0
 11
65.199
 21
73.9937
 31
0.0
  0
LINE
  5
1B5
  8
0
 62
     0
 10
65.199
 20
73.9937
 30
0.0
 11
66.3995
 21
73.9937
 31
0.0
  0
LINE
  5
1B6
  8
0
 62
     0
 10
66.3995
 20
73.9937
 30
0.0
 11
66.3995
 21
72.2683
 31
0.0
  0
LINE
  5
1B7
  8
0
 62
     0
 10
66.3995
 20
72.2683
 30
0.0
 11
70.8685
 21
72.2683
 31
0.0
  0
LINE
  5
1B8
  8
0
 62
     0
 10
70.8685
 20
72.2683
 30
0.0
 11
70.8685
 21
70.7429
 31
0.0
  0
LINE
  5
1B9
  8
0
 62
     0
 10
70.8685
 20
70.7429
 30
0.0
 11
70.2677
 21
70.7429
 31
0.0
  0
LINE
  5
1BA
  8
0
 62
     0
 10
70.2677
 20
70.7429
 30
0.0
 11
70.2677
 21
71.5437
 31
0.0
  0
LINE
  5
1BB
  8
0
 62
     0
 10
70.2677
 20
71.5437
 30
0.0
 11
67.1682
 21
71.5437
 31
0.0
  0
LINE
  5
1BC
  8
0
 62
     0
 10
67.1682
 20
71.5437
 30
0.0
 11
67.1682
 21
70.7429
 31
0.0
  0
LINE
  5
1BD
  8
0
 62
     0
 10
67.1682
 20
70.7429
 30
0.0
 11
66.1691
 21
70.7429
 31
0.0
  0
LINE
  5
1BE
  8
0
 62
     0
 10
66.1691
 20
70.7429
 30
0.0
 11
66.1691
 21
56.7436
 31
0.0
  0
LINE
  5
1BF
  8
0
 62
     0
 10
66.1691
 20
56.7436
 30
0.0
 11
67.1682
 21
56.7436
 31
0.0
  0
LINE
  5
1C0
  8
0
 62
     0
 10
67.1682
 20
56.7436
 30
0.0
 11
67.1682
 21
55.9428
 31
0.0
  0
LINE
  5
1C1
  8
0
 62
     0
 10
67.1682
 20
55.9428
 30
0.0
 11
70.2677
 21
55.9428
 31
0.0
  0
LINE
  5
1C2
  8
0
 62
     0
 10
70.2677
 20
55.9428
 30
0.0
 11
70.2677
 21
56.7436
 31
0.0
  0
LINE
  5
1C3
  8
0
 62
     0
 10
70.2677
 20
56.7436
 30
0.0
 11
70.8685
 21
56.7436
 31
0.0
  0
LINE
  5
1C4
  8
0
 62
     0
 10
70.8685
 20
56.7436
 30
0.0
 11
70.8685
 21
55.2178
 31
0.0
  0
LINE
  5
1C5
  8
0
 62
     0
 10
70.8685
 20
55.2178
 30
0.0
 11
66.3995
 21
55.2178
 31
0.0
  0
LINE
  5
1C6
  8
0
 62
     0
 10
66.3995
 20
55.2178
 30
0.0
 11
66.3995
 21
53.4928
 31
0.0
  0
LINE
  5
1C7
  8
0
 62
     0
 10
66.3995
 20
53.4928
 30
0.0
 11
65.199
 21
53.4928
 31
0.0
  0
LINE
  5
1C8
  8
0
 62
     0
 10
65.199
 20
53.4928
 30
0.0
 11
65.199
 21
50.1936
 31
0.0
  0
LINE
  5
1C9
  8
0
 62
     0
 10
65.199
 20
50.1936
 30
0.0
 11
66.3995
 21
50.1936
 31
0.0
  0
LINE
  5
1CA
  8
0
 62
     0
 10
66.3995
 20
50.1936
 30
0.0
 11
66.3995
 21
48.4685
 31
0.0
  0
LINE
  5
1CB
  8
0
 62
     0
 10
66.3995
 20
48.4685
 30
0.0
 11
72.668
 21
48.4685
 31
0.0
  0
LINE
  5
1CC
  8
0
 62
     0
 10
72.668
 20
48.4685
 30
0.0
 11
72.668
 21
47.643
 31
0.0
  0
LINE
  5
1CD
  8
0
 62
     0
 10
72.668
 20
47.643
 30
0.0
 11
75.4683
 21
47.643
 31
0.0
  0
LINE
  5
1CE
  8
0
 62
     0
 10
75.4683
 20
47.643
 30
0.0
 11
75.4683
 21
48.4685
 31
0.0
  0
LINE
  5
1CF
  8
0
 62
     0
 10
75.4683
 20
48.4685
 30
0.0
 11
78.6984
 21
48.4685
 31
0.0
  0
LINE
  5
1D0
  8
0
 62
     0
 10
78.6984
 20
48.4685
 30
0.0
 11
78.6984
 21
55.2178
 31
0.0
  0
LINE
  5
1D1
  8
0
 62
     0
 10
78.6984
 20
55.2178
 30
0.0
 11
75.4683
 21
55.2178
 31
0.0
  0
LINE
  5
1D2
  8
0
 62
     0
 10
75.4683
 20
55.2178
 30
0.0
 11
75.4683
 21
56.7436
 31
0.0
  0
LINE
  5
1D3
  8
0
 62
     0
 10
75.4683
 20
56.7436
 30
0.0
 11
76.0691
 21
56.7436
 31
0.0
  0
LINE
  5
1D4
  8
0
 62
     0
 10
76.0691
 20
56.7436
 30
0.0
 11
76.0691
 21
55.9428
 31
0.0
  0
LINE
  5
1D5
  8
0
 62
     0
 10
76.0691
 20
55.9428
 30
0.0
 11
79.1683
 21
55.9428
 31
0.0
  0
LINE
  5
1D6
  8
0
 62
     0
 10
79.1683
 20
55.9428
 30
0.0
 11
79.1683
 21
56.7436
 31
0.0
  0
LINE
  5
1D7
  8
0
 62
     0
 10
79.1683
 20
56.7436
 30
0.0
 11
80.1688
 21
56.7436
 31
0.0
  0
LINE
  5
1D8
  8
0
 62
     0
 10
80.1688
 20
56.7436
 30
0.0
 11
80.1688
 21
70.7429
 31
0.0
  0
LINE
  5
1D9
  8
0
 62
     0
 10
80.1688
 20
70.7429
 30
0.0
 11
79.1683
 21
70.7429
 31
0.0
  0
LINE
  5
1DA
  8
0
 62
     0
 10
79.1683
 20
70.7429
 30
0.0
 11
79.1683
 21
71.5437
 31
0.0
  0
LINE
  5
1DB
  8
0
 62
     0
 10
79.1683
 20
71.5437
 30
0.0
 11
76.0691
 21
71.5437
 31
0.0
  0
LINE
  5
1DC
  8
0
 62
     0
 10
76.0691
 20
71.5437
 30
0.0
 11
76.0691
 21
70.7429
 31
0.0
  0
LINE
  5
1DD
  8
0
 62
     0
 10
76.0691
 20
70.7429
 30
0.0
 11
75.4683
 21
70.7429
 31
0.0
  0
LINE
  5
1DE
  8
0
 62
     0
 10
75.4683
 20
70.7429
 30
0.0
 11
75.4683
 21
72.2683
 31
0.0
  0
LINE
  5
1DF
  8
0
 62
     0
 10
75.4683
 20
72.2683
 30
0.0
 11
78.6984
 21
72.2683
 31
0.0
  0
LINE
  5
1E0
  8
0
 62
     0
 10
78.6984
 20
72.2683
 30
0.0
 11
78.6984
 21
79.018
 31
0.0
  0
LINE
  5
1E1
  8
0
 62
     0
 10
78.6984
 20
79.018
 30
0.0
 11
75.4683
 21
79.018
 31
0.0
  0
LINE
  5
1E2
  8
0
 62
     0
 10
75.4683
 20
79.018
 30
0.0
 11
75.4683
 21
79.8435
 31
0.0
  0
LINE
  5
1E3
  8
0
 62
     0
 10
75.4683
 20
79.8435
 30
0.0
 11
72.668
 21
79.8435
 31
0.0
  0
LINE
  5
1E4
  8
0
 62
     0
 10
9.01926
 20
80.2679
 30
0.0
 11
9.01926
 21
79.2674
 31
0.0
  0
LINE
  5
1E5
  8
0
 62
     0
 10
9.01926
 20
79.2674
 30
0.0
 11
8.21725
 21
79.2674
 31
0.0
  0
LINE
  5
1E6
  8
0
 62
     0
 10
8.21725
 20
79.2674
 30
0.0
 11
8.21725
 21
76.1683
 31
0.0
  0
LINE
  5
1E7
  8
0
 62
     0
 10
8.21725
 20
76.1683
 30
0.0
 11
9.01926
 21
76.1683
 31
0.0
  0
LINE
  5
1E8
  8
0
 62
     0
 10
9.01926
 20
76.1683
 30
0.0
 11
9.01926
 21
70.3682
 31
0.0
  0
LINE
  5
1E9
  8
0
 62
     0
 10
9.01926
 20
70.3682
 30
0.0
 11
8.21725
 21
70.3682
 31
0.0
  0
LINE
  5
1EA
  8
0
 62
     0
 10
8.21725
 20
70.3682
 30
0.0
 11
8.21725
 21
67.2677
 31
0.0
  0
LINE
  5
1EB
  8
0
 62
     0
 10
8.21725
 20
67.2677
 30
0.0
 11
9.01926
 21
67.2677
 31
0.0
  0
LINE
  5
1EC
  8
0
 62
     0
 10
9.01926
 20
67.2677
 30
0.0
 11
9.01926
 21
66.2686
 31
0.0
  0
LINE
  5
1ED
  8
0
 62
     0
 10
9.01926
 20
66.2686
 30
0.0
 11
23.0188
 21
66.2686
 31
0.0
  0
LINE
  5
1EE
  8
0
 62
     0
 10
23.0188
 20
66.2686
 30
0.0
 11
23.0188
 21
67.2677
 31
0.0
  0
LINE
  5
1EF
  8
0
 62
     0
 10
23.0188
 20
67.2677
 30
0.0
 11
23.8194
 21
67.2677
 31
0.0
  0
LINE
  5
1F0
  8
0
 62
     0
 10
23.8194
 20
67.2677
 30
0.0
 11
23.8194
 21
70.3682
 31
0.0
  0
LINE
  5
1F1
  8
0
 62
     0
 10
23.8194
 20
70.3682
 30
0.0
 11
23.0188
 21
70.3682
 31
0.0
  0
LINE
  5
1F2
  8
0
 62
     0
 10
23.0188
 20
70.3682
 30
0.0
 11
23.0188
 21
76.1683
 31
0.0
  0
LINE
  5
1F3
  8
0
 62
     0
 10
23.0188
 20
76.1683
 30
0.0
 11
23.8194
 21
76.1683
 31
0.0
  0
LINE
  5
1F4
  8
0
 62
     0
 10
23.8194
 20
76.1683
 30
0.0
 11
23.8194
 21
79.2674
 31
0.0
  0
LINE
  5
1F5
  8
0
 62
     0
 10
23.8194
 20
79.2674
 30
0.0
 11
23.0188
 21
79.2674
 31
0.0
  0
LINE
  5
1F6
  8
0
 62
     0
 10
23.0188
 20
79.2674
 30
0.0
 11
23.0188
 21
80.2679
 31
0.0
  0
LINE
  5
1F7
  8
0
 62
     0
 10
23.0188
 20
80.2679
 30
0.0
 11
9.01926
 21
80.2679
 31
0.0
  0
LINE
  5
1F8
  8
0
 62
     0
 10
28.0693
 20
80.2679
 30
0.0
 11
28.0693
 21
79.2674
 31
0.0
  0
LINE
  5
1F9
  8
0
 62
     0
 10
28.0693
 20
79.2674
 30
0.0
 11
27.2686
 21
79.2674
 31
0.0
  0
LINE
  5
1FA
  8
0
 62
     0
 10
27.2686
 20
79.2674
 30
0.0
 11
27.2686
 21
76.1683
 31
0.0
  0
LINE
  5
1FB
  8
0
 62
     0
 10
27.2686
 20
76.1683
 30
0.0
 11
28.0693
 21
76.1683
 31
0.0
  0
LINE
  5
1FC
  8
0
 62
     0
 10
28.0693
 20
76.1683
 30
0.0
 11
28.0693
 21
70.3682
 31
0.0
  0
LINE
  5
1FD
  8
0
 62
     0
 10
28.0693
 20
70.3682
 30
0.0
 11
27.2686
 21
70.3682
 31
0.0
  0
LINE
  5
1FE
  8
0
 62
     0
 10
27.2686
 20
70.3682
 30
0.0
 11
27.2686
 21
67.2677
 31
0.0
  0
LINE
  5
1FF
  8
0
 62
     0
 10
27.2686
 20
67.2677
 30
0.0
 11
28.0693
 21
67.2677
 31
0.0
  0
LINE
  5
200
  8
0
 62
     0
 10
28.0693
 20
67.2677
 30
0.0
 11
28.0693
 21
66.2686
 31
0.0
  0
LINE
  5
201
  8
0
 62
     0
 10
28.0693
 20
66.2686
 30
0.0
 11
42.0688
 21
66.2686
 31
0.0
  0
LINE
  5
202
  8
0
 62
     0
 10
42.0688
 20
66.2686
 30
0.0
 11
42.0688
 21
67.2677
 31
0.0
  0
LINE
  5
203
  8
0
 62
     0
 10
42.0688
 20
67.2677
 30
0.0
 11
42.8696
 21
67.2677
 31
0.0
  0
LINE
  5
204
  8
0
 62
     0
 10
42.8696
 20
67.2677
 30
0.0
 11
42.8696
 21
70.3682
 31
0.0
  0
LINE
  5
205
  8
0
 62
     0
 10
42.8696
 20
70.3682
 30
0.0
 11
42.0688
 21
70.3682
 31
0.0
  0
LINE
  5
206
  8
0
 62
     0
 10
42.0688
 20
70.3682
 30
0.0
 11
42.0688
 21
76.1683
 31
0.0
  0
LINE
  5
207
  8
0
 62
     0
 10
42.0688
 20
76.1683
 30
0.0
 11
42.8696
 21
76.1683
 31
0.0
  0
LINE
  5
208
  8
0
 62
     0
 10
42.8696
 20
76.1683
 30
0.0
 11
42.8696
 21
79.2674
 31
0.0
  0
LINE
  5
209
  8
0
 62
     0
 10
42.8696
 20
79.2674
 30
0.0
 11
42.0688
 21
79.2674
 31
0.0
  0
LINE
  5
20A
  8
0
 62
     0
 10
42.0688
 20
79.2674
 30
0.0
 11
42.0688
 21
80.2679
 31
0.0
  0
LINE
  5
20B
  8
0
 62
     0
 10
42.0688
 20
80.2679
 30
0.0
 11
28.0693
 21
80.2679
 31
0.0
  0
LINE
  5
20C
  8
0
 62
     0
 10
47.1191
 20
80.2679
 30
0.0
 11
47.1191
 21
79.2674
 31
0.0
  0
LINE
  5
20D
  8
0
 62
     0
 10
47.1191
 20
79.2674
 30
0.0
 11
46.3187
 21
79.2674
 31
0.0
  0
LINE
  5
20E
  8
0
 62
     0
 10
46.3187
 20
79.2674
 30
0.0
 11
46.3187
 21
76.1683
 31
0.0
  0
LINE
  5
20F
  8
0
 62
     0
 10
46.3187
 20
76.1683
 30
0.0
 11
47.1191
 21
76.1683
 31
0.0
  0
LINE
  5
210
  8
0
 62
     0
 10
47.1191
 20
76.1683
 30
0.0
 11
47.1191
 21
70.3682
 31
0.0
  0
LINE
  5
211
  8
0
 62
     0
 10
47.1191
 20
70.3682
 30
0.0
 11
46.3187
 21
70.3682
 31
0.0
  0
LINE
  5
212
  8
0
 62
     0
 10
46.3187
 20
70.3682
 30
0.0
 11
46.3187
 21
67.2677
 31
0.0
  0
LINE
  5
213
  8
0
 62
     0
 10
46.3187
 20
67.2677
 30
0.0
 11
47.1191
 21
67.2677
 31
0.0
  0
LINE
  5
214
  8
0
 62
     0
 10
47.1191
 20
67.2677
 30
0.0
 11
47.1191
 21
66.2686
 31
0.0
  0
LINE
  5
215
  8
0
 62
     0
 10
47.1191
 20
66.2686
 30
0.0
 11
61.1188
 21
66.2686
 31
0.0
  0
LINE
  5
216
  8
0
 62
     0
 10
61.1188
 20
66.2686
 30
0.0
 11
61.1188
 21
67.2677
 31
0.0
  0
LINE
  5
217
  8
0
 62
     0
 10
61.1188
 20
67.2677
 30
0.0
 11
61.9196
 21
67.2677
 31
0.0
  0
LINE
  5
218
  8
0
 62
     0
 10
61.9196
 20
67.2677
 30
0.0
 11
61.9196
 21
70.3682
 31
0.0
  0
LINE
  5
219
  8
0
 62
     0
 10
61.9196
 20
70.3682
 30
0.0
 11
61.1188
 21
70.3682
 31
0.0
  0
LINE
  5
21A
  8
0
 62
     0
 10
61.1188
 20
70.3682
 30
0.0
 11
61.1188
 21
76.1683
 31
0.0
  0
LINE
  5
21B
  8
0
 62
     0
 10
61.1188
 20
76.1683
 30
0.0
 11
61.9196
 21
76.1683
 31
0.0
  0
LINE
  5
21C
  8
0
 62
     0
 10
61.9196
 20
76.1683
 30
0.0
 11
61.9196
 21
79.2674
 31
0.0
  0
LINE
  5
21D
  8
0
 62
     0
 10
61.9196
 20
79.2674
 30
0.0
 11
61.1188
 21
79.2674
 31
0.0
  0
LINE
  5
21E
  8
0
 62
     0
 10
61.1188
 20
79.2674
 30
0.0
 11
61.1188
 21
80.2679
 31
0.0
  0
LINE
  5
21F
  8
0
 62
     0
 10
61.1188
 20
80.2679
 30
0.0
 11
47.1191
 21
80.2679
 31
0.0
  0
LINE
  5
220
  8
0
 62
     0
 10
9.01926
 20
99.3193
 30
0.0
 11
9.01926
 21
98.3188
 31
0.0
  0
LINE
  5
221
  8
0
 62
     0
 10
9.01926
 20
98.3188
 30
0.0
 11
8.21725
 21
98.3188
 31
0.0
  0
LINE
  5
222
  8
0
 62
     0
 10
8.21725
 20
98.3188
 30
0.0
 11
8.21725
 21
95.2183
 31
0.0
  0
LINE
  5
223
  8
0
 62
     0
 10
8.21725
 20
95.2183
 30
0.0
 11
9.01926
 21
95.2183
 31
0.0
  0
LINE
  5
224
  8
0
 62
     0
 10
9.01926
 20
95.2183
 30
0.0
 11
9.01926
 21
89.4196
 31
0.0
  0
LINE
  5
225
  8
0
 62
     0
 10
9.01926
 20
89.4196
 30
0.0
 11
8.21725
 21
89.4196
 31
0.0
  0
LINE
  5
226
  8
0
 62
     0
 10
8.21725
 20
89.4196
 30
0.0
 11
8.21725
 21
86.3177
 31
0.0
  0
LINE
  5
227
  8
0
 62
     0
 10
8.21725
 20
86.3177
 30
0.0
 11
9.01926
 21
86.3177
 31
0.0
  0
LINE
  5
228
  8
0
 62
     0
 10
9.01926
 20
86.3177
 30
0.0
 11
9.01926
 21
85.3186
 31
0.0
  0
LINE
  5
229
  8
0
 62
     0
 10
9.01926
 20
85.3186
 30
0.0
 11
23.0188
 21
85.3186
 31
0.0
  0
LINE
  5
22A
  8
0
 62
     0
 10
23.0188
 20
85.3186
 30
0.0
 11
23.0188
 21
86.3177
 31
0.0
  0
LINE
  5
22B
  8
0
 62
     0
 10
23.0188
 20
86.3177
 30
0.0
 11
23.8194
 21
86.3177
 31
0.0
  0
LINE
  5
22C
  8
0
 62
     0
 10
23.8194
 20
86.3177
 30
0.0
 11
23.8194
 21
89.4196
 31
0.0
  0
LINE
  5
22D
  8
0
 62
     0
 10
23.8194
 20
89.4196
 30
0.0
 11
23.0188
 21
89.4196
 31
0.0
  0
LINE
  5
22E
  8
0
 62
     0
 10
23.0188
 20
89.4196
 30
0.0
 11
23.0188
 21
95.2183
 31
0.0
  0
LINE
  5
22F
  8
0
 62
     0
 10
23.0188
 20
95.2183
 30
0.0
 11
23.8194
 21
95.2183
 31
0.0
  0
LINE
  5
230
  8
0
 62
     0
 10
23.8194
 20
95.2183
 30
0.0
 11
23.8194
 21
98.3188
 31
0.0
  0
LINE
  5
231
  8
0
 62
     0
 10
23.8194
 20
98.3188
 30
0.0
 11
23.0188
 21
98.3188
 31
0.0
  0
LINE
  5
232
  8
0
 62
     0
 10
23.0188
 20
98.3188
 30
0.0
 11
23.0188
 21
99.3193
 31
0.0
  0
LINE
  5
233
  8
0
 62
     0
 10
23.0188
 20
99.3193
 30
0.0
 11
9.01926
 21
99.3193
 31
0.0
  0
LINE
  5
234
  8
0
 62
     0
 10
28.0693
 20
99.3193
 30
0.0
 11
28.0693
 21
98.3188
 31
0.0
  0
LINE
  5
235
  8
0
 62
     0
 10
28.0693
 20
98.3188
 30
0.0
 11
27.2686
 21
98.3188
 31
0.0
  0
LINE
  5
236
  8
0
 62
     0
 10
27.2686
 20
98.3188
 30
0.0
 11
27.2686
 21
95.2183
 31
0.0
  0
LINE
  5
237
  8
0
 62
     0
 10
27.2686
 20
95.2183
 30
0.0
 11
28.0693
 21
95.2183
 31
0.0
  0
LINE
  5
238
  8
0
 62
     0
 10
28.0693
 20
95.2183
 30
0.0
 11
28.0693
 21
89.4196
 31
0.0
  0
LINE
  5
239
  8
0
 62
     0
 10
28.0693
 20
89.4196
 30
0.0
 11
27.2686
 21
89.4196
 31
0.0
  0
LINE
  5
23A
  8
0
 62
     0
 10
27.2686
 20
89.4196
 30
0.0
 11
27.2686
 21
86.3177
 31
0.0
  0
LINE
  5
23B
  8
0
 62
     0
 10
27.2686
 20
86.3177
 30
0.0
 11
28.0693
 21
86.3177
 31
0.0
  0
LINE
  5
23C
  8
0
 62
     0
 10
28.0693
 20
86.3177
 30
0.0
 11
28.0693
 21
85.3186
 31
0.0
  0
LINE
  5
23D
  8
0
 62
     0
 10
28.0693
 20
85.3186
 30
0.0
 11
42.0688
 21
85.3186
 31
0.0
  0
LINE
  5
23E
  8
0
 62
     0
 10
42.0688
 20
85.3186
 30
0.0
 11
42.0688
 21
86.3177
 31
0.0
  0
LINE
  5
23F
  8
0
 62
     0
 10
42.0688
 20
86.3177
 30
0.0
 11
42.8696
 21
86.3177
 31
0.0
  0
LINE
  5
240
  8
0
 62
     0
 10
42.8696
 20
86.3177
 30
0.0
 11
42.8696
 21
89.4196
 31
0.0
  0
LINE
  5
241
  8
0
 62
     0
 10
42.8696
 20
89.4196
 30
0.0
 11
42.0688
 21
89.4196
 31
0.0
  0
LINE
  5
242
  8
0
 62
     0
 10
42.0688
 20
89.4196
 30
0.0
 11
42.0688
 21
95.2183
 31
0.0
  0
LINE
  5
243
  8
0
 62
     0
 10
42.0688
 20
95.2183
 30
0.0
 11
42.8696
 21
95.2183
 31
0.0
  0
LINE
  5
244
  8
0
 62
     0
 10
42.8696
 20
95.2183
 30
0.0
 11
42.8696
 21
98.3188
 31
0.0
  0
LINE
  5
245
  8
0
 62
     0
 10
42.8696
 20
98.3188
 30
0.0
 11
42.0688
 21
98.3188
 31
0.0
  0
LINE
  5
246
  8
0
 62
     0
 10
42.0688
 20
98.3188
 30
0.0
 11
42.0688
 21
99.3193
 31
0.0
  0
LINE
  5
247
  8
0
 62
     0
 10
42.0688
 20
99.3193
 30
0.0
 11
28.0693
 21
99.3193
 31
0.0
  0
LINE
  5
248
  8
0
 62
     0
 10
47.1191
 20
99.3193
 30
0.0
 11
47.1191
 21
98.3188
 31
0.0
  0
LINE
  5
249
  8
0
 62
     0
 10
47.1191
 20
98.3188
 30
0.0
 11
46.3187
 21
98.3188
 31
0.0
  0
LINE
  5
24A
  8
0
 62
     0
 10
46.3187
 20
98.3188
 30
0.0
 11
46.3187
 21
95.2183
 31
0.0
  0
LINE
  5
24B
  8
0
 62
     0
 10
46.3187
 20
95.2183
 30
0.0
 11
47.1191
 21
95.2183
 31
0.0
  0
LINE
  5
24C
  8
0
 62
     0
 10
47.1191
 20
95.2183
 30
0.0
 11
47.1191
 21
89.4196
 31
0.0
  0
LINE
  5
24D
  8
0
 62
     0
 10
47.1191
 20
89.4196
 30
0.0
 11
46.3187
 21
89.4196
 31
0.0
  0
LINE
  5
24E
  8
0
 62
     0
 10
46.3187
 20
89.4196
 30
0.0
 11
46.3187
 21
86.3177
 31
0.0
  0
LINE
  5
24F
  8
0
 62
     0
 10
46.3187
 20
86.3177
 30
0.0
 11
47.1191
 21
86.3177
 31
0.0
  0
LINE
  5
250
  8
0
 62
     0
 10
47.1191
 20
86.3177
 30
0.0
 11
47.1191
 21
85.3186
 31
0.0
  0
LINE
  5
251
  8
0
 62
     0
 10
47.1191
 20
85.3186
 30
0.0
 11
61.1188
 21
85.3186
 31
0.0
  0
LINE
  5
252
  8
0
 62
     0
 10
61.1188
 20
85.3186
 30
0.0
 11
61.1188
 21
86.3177
 31
0.0
  0
LINE
  5
253
  8
0
 62
     0
 10
61.1188
 20
86.3177
 30
0.0
 11
61.9196
 21
86.3177
 31
0.0
  0
LINE
  5
254
  8
0
 62
     0
 10
61.9196
 20
86.3177
 30
0.0
 11
61.9196
 21
89.4196
 31
0.0
  0
LINE
  5
255
  8
0
 62
     0
 10
61.9196
 20
89.4196
 30
0.0
 11
61.1188
 21
89.4196
 31
0.0
  0
LINE
  5
256
  8
0
 62
     0
 10
61.1188
 20
89.4196
 30
0.0
 11
61.1188
 21
95.2183
 31
0.0
  0
LINE
  5
257
  8
0
 62
     0
 10
61.1188
 20
95.2183
 30
0.0
 11
61.9196
 21
95.2183
 31
0.0
  0
LINE
  5
258
  8
0
 62
     0
 10
61.9196
 20
95.2183
 30
0.0
 11
61.9196
 21
98.3188
 31
0.0
  0
LINE
  5
259
  8
0
 62
     0
 10
61.9196
 20
98.3188
 30
0.0
 11
61.1188
 21
98.3188
 31
0.0
  0
LINE
  5
25A
  8
0
 62
     0
 10
61.1188
 20
98.3188
 30
0.0
 11
61.1188
 21
99.3193
 31
0.0
  0
LINE
  5
25B
  8
0
 62
     0
 10
61.1188
 20
99.3193
 30
0.0
 11
47.1191
 21
99.3193
 31
0.0
  0
LINE
  5
25C
  8
0
 62
     0
 10
66.1691
 20
99.3193
 30
0.0
 11
66.1691
 21
98.3188
 31
0.0
  0
LINE
  5
25D
  8
0
 62
     0
 10
66.1691
 20
98.3188
 30
0.0
 11
65.3687
 21
98.3188
 31
0.0
  0
LINE
  5
25E
  8
0
 62
     0
 10
65.3687
 20
98.3188
 30
0.0
 11
65.3687
 21
95.2183
 31
0.0
  0
LINE
  5
25F
  8
0
 62
     0
 10
65.3687
 20
95.2183
 30
0.0
 11
66.1691
 21
95.2183
 31
0.0
  0
LINE
  5
260
  8
0
 62
     0
 10
66.1691
 20
95.2183
 30
0.0
 11
66.1691
 21
89.4196
 31
0.0
  0
LINE
  5
261
  8
0
 62
     0
 10
66.1691
 20
89.4196
 30
0.0
 11
65.3687
 21
89.4196
 31
0.0
  0
LINE
  5
262
  8
0
 62
     0
 10
65.3687
 20
89.4196
 30
0.0
 11
65.3687
 21
86.3177
 31
0.0
  0
LINE
  5
263
  8
0
 62
     0
 10
65.3687
 20
86.3177
 30
0.0
 11
66.1691
 21
86.3177
 31
0.0
  0
LINE
  5
264
  8
0
 62
     0
 10
66.1691
 20
86.3177
 30
0.0
 11
66.1691
 21
85.3186
 31
0.0
  0
LINE
  5
265
  8
0
 62
     0
 10
66.1691
 20
85.3186
 30
0.0
 11
80.1688
 21
85.3186
 31
0.0
  0
LINE
  5
266
  8
0
 62
     0
 10
80.1688
 20
85.3186
 30
0.0
 11
80.1688
 21
86.3177
 31
0.0
  0
LINE
  5
267
  8
0
 62
     0
 10
80.1688
 20
86.3177
 30
0.0
 11
80.9696
 21
86.3177
 31
0.0
  0
LINE
  5
268
  8
0
 62
     0
 10
80.9696
 20
86.3177
 30
0.0
 11
80.9696
 21
89.4196
 31
0.0
  0
LINE
  5
269
  8
0
 62
     0
 10
80.9696
 20
89.4196
 30
0.0
 11
80.1688
 21
89.4196
 31
0.0
  0
LINE
  5
26A
  8
0
 62
     0
 10
80.1688
 20
89.4196
 30
0.0
 11
80.1688
 21
95.2183
 31
0.0
  0
LINE
  5
26B
  8
0
 62
     0
 10
80.1688
 20
95.2183
 30
0.0
 11
80.9696
 21
95.2183
 31
0.0
  0
LINE
  5
26C
  8
0
 62
     0
 10
80.9696
 20
95.2183
 30
0.0
 11
80.9696
 21
98.3188
 31
0.0
  0
LINE
  5
26D
  8
0
 62
     0
 10
80.9696
 20
98.3188
 30
0.0
 11
80.1688
 21
98.3188
 31
0.0
  0
LINE
  5
26E
  8
0
 62
     0
 10
80.1688
 20
98.3188
 30
0.0
 11
80.1688
 21
99.3193
 31
0.0
  0
LINE
  5
26F
  8
0
 62
     0
 10
80.1688
 20
99.3193
 30
0.0
 11
66.1691
 21
99.3193
 31
0.0
  0
LINE
  5
270
  8
0
 62
     0
 10
3.72576
 20
105.996
 30
0.0
 11
3.16903
 21
105.712
 31
0.0
  0
LINE
  5
271
  8
0
 62
     0
 10
3.16903
 20
105.712
 30
0.0
 11
2.72531
 21
105.269
 31
0.0
  0
LINE
  5
272
  8
0
 62
     0
 10
2.72531
 20
105.269
 30
0.0
 11
2.44143
 21
104.712
 31
0.0
  0
LINE
  5
273
  8
0
 62
     0
 10
2.44143
 20
104.712
 30
0.0
 11
2.34359
 21
104.093
 31
0.0
  0
LINE
  5
274
  8
0
 62
     0
 10
2.34359
 20
104.093
 30
0.0
 11
2.44143
 21
103.474
 31
0.0
  0
LINE
  5
275
  8
0
 62
     0
 10
2.44143
 20
103.474
 30
0.0
 11
2.72531
 21
102.918
 31
0.0
  0
LINE
  5
276
  8
0
 62
     0
 10
2.72531
 20
102.918
 30
0.0
 11
3.16903
 21
102.475
 31
0.0
  0
LINE
  5
277
  8
0
 62
     0
 10
3.16903
 20
102.475
 30
0.0
 11
3.72576
 21
102.192
 31
0.0
  0
LINE
  5
278
  8
0
 62
     0
 10
3.72576
 20
102.192
 30
0.0
 11
4.3445
 21
102.092
 31
0.0
  0
LINE
  5
279
  8
0
 62
     0
 10
4.3445
 20
102.092
 30
0.0
 11
4.96325
 21
102.192
 31
0.0
  0
LINE
  5
27A
  8
0
 62
     0
 10
4.96325
 20
102.192
 30
0.0
 11
5.51997
 21
102.475
 31
0.0
  0
LINE
  5
27B
  8
0
 62
     0
 10
5.51997
 20
102.475
 30
0.0
 11
5.96231
 21
102.918
 31
0.0
  0
LINE
  5
27C
  8
0
 62
     0
 10
5.96231
 20
102.918
 30
0.0
 11
6.24619
 21
103.474
 31
0.0
  0
LINE
  5
27D
  8
0
 62
     0
 10
6.24619
 20
103.474
 30
0.0
 11
6.34539
 21
104.093
 31
0.0
  0
LINE
  5
27E
  8
0
 62
     0
 10
6.34539
 20
104.093
 30
0.0
 11
6.24619
 21
104.712
 31
0.0
  0
LINE
  5
27F
  8
0
 62
     0
 10
6.24619
 20
104.712
 30
0.0
 11
5.96231
 21
105.269
 31
0.0
  0
LINE
  5
280
  8
0
 62
     0
 10
5.96231
 20
105.269
 30
0.0
 11
5.51997
 21
105.712
 31
0.0
  0
LINE
  5
281
  8
0
 62
     0
 10
5.51997
 20
105.712
 30
0.0
 11
4.96325
 21
105.996
 31
0.0
  0
LINE
  5
282
  8
0
 62
     0
 10
4.96325
 20
105.996
 30
0.0
 11
4.3445
 21
106.093
 31
0.0
  0
LINE
  5
283
  8
0
 62
     0
 10
4.3445
 20
106.093
 30
0.0
 11
3.72576
 21
105.996
 31
0.0
  0
LINE
  5
284
  8
0
 62
     0
 10
84.2248
 20
105.996
 30
0.0
 11
83.6681
 21
105.712
 31
0.0
  0
LINE
  5
285
  8
0
 62
     0
 10
83.6681
 20
105.712
 30
0.0
 11
83.2243
 21
105.269
 31
0.0
  0
LINE
  5
286
  8
0
 62
     0
 10
83.2243
 20
105.269
 30
0.0
 11
82.9403
 21
104.712
 31
0.0
  0
LINE
  5
287
  8
0
 62
     0
 10
82.9403
 20
104.712
 30
0.0
 11
82.844
 21
104.093
 31
0.0
  0
LINE
  5
288
  8
0
 62
     0
 10
82.844
 20
104.093
 30
0.0
 11
82.9403
 21
103.474
 31
0.0
  0
LINE
  5
289
  8
0
 62
     0
 10
82.9403
 20
103.474
 30
0.0
 11
83.2243
 21
102.918
 31
0.0
  0
LINE
  5
28A
  8
0
 62
     0
 10
83.2243
 20
102.918
 30
0.0
 11
83.6681
 21
102.475
 31
0.0
  0
LINE
  5
28B
  8
0
 62
     0
 10
83.6681
 20
102.475
 30
0.0
 11
84.2248
 21
102.192
 31
0.0
  0
LINE
  5
28C
  8
0
 62
     0
 10
84.2248
 20
102.192
 30
0.0
 11
84.8435
 21
102.092
 31
0.0
  0
LINE
  5
28D
  8
0
 62
     0
 10
84.8435
 20
102.092
 30
0.0
 11
85.4623
 21
102.192
 31
0.0
  0
LINE
  5
28E
  8
0
 62
     0
 10
85.4623
 20
102.192
 30
0.0
 11
86.019
 21
102.475
 31
0.0
  0
LINE
  5
28F
  8
0
 62
     0
 10
86.019
 20
102.475
 30
0.0
 11
86.4614
 21
102.918
 31
0.0
  0
LINE
  5
290
  8
0
 62
     0
 10
86.4614
 20
102.918
 30
0.0
 11
86.7454
 21
103.474
 31
0.0
  0
LINE
  5
291
  8
0
 62
     0
 10
86.7454
 20
103.474
 30
0.0
 11
86.8445
 21
104.093
 31
0.0
  0
LINE
  5
292
  8
0
 62
     0
 10
86.8445
 20
104.093
 30
0.0
 11
86.7454
 21
104.712
 31
0.0
  0
LINE
  5
293
  8
0
 62
     0
 10
86.7454
 20
104.712
 30
0.0
 11
86.4614
 21
105.269
 31
0.0
  0
LINE
  5
294
  8
0
 62
     0
 10
86.4614
 20
105.269
 30
0.0
 11
86.019
 21
105.712
 31
0.0
  0
LINE
  5
295
  8
0
 62
     0
 10
86.019
 20
105.712
 30
0.0
 11
85.4623
 21
105.996
 31
0.0
  0
LINE
  5
296
  8
0
 62
     0
 10
85.4623
 20
105.996
 30
0.0
 11
84.8435
 21
106.093
 31
0.0
  0
LINE
  5
297
  8
0
 62
     0
 10
84.8435
 20
106.093
 30
0.0
 11
84.2248
 21
105.996
 31
0.0
  0
VIEWPORT
  5
373
 67
     1
  8
0
 62
    18
 10
5.25
 20
4.0
 30
0.0
 40
11.638
 41
8.993
 68
     1
 69
     1
1001
ACAD
1000
MVIEW
1002
{
1070
    16
1010
0.0
1020
0.0
1030
0.0
1010
0.0
1020
0.0
1030
1.0
1040
0.0
1040
8.993
1040
5.25
1040
4.0
1040
50.0
1040
0.0
1040
0.0
1070
     0
1070
   100
1070
     0
1070
     3
1070
     0
1070
     0
1070
     0
1070
     0
1040
0.0
1040
0.0
1040
0.0
1040
0.5
1040
0.5
1040
0.5
1040
0.5
1070
     0
1002
{
1002
}
1002
}
  0
ENDSEC
  0
EOF
